<?xml version="1.0" standalone="no"?>
<!DOCTYPE svg PUBLIC "-//W3C//DTD SVG 20010904//EN"
 "http://www.w3.org/TR/2001/REC-SVG-20010904/DTD/svg10.dtd">
<svg version="1.0" xmlns="http://www.w3.org/2000/svg"
 width="2148.000000pt" height="2148.000000pt" viewBox="0 0 2148.000000 2148.000000"
 preserveAspectRatio="xMidYMid meet">
<metadata>
Created by potrace 1.14, written by Peter Selinger 2001-2017
</metadata>
<g transform="translate(0.000000,2148.000000) scale(0.100000,-0.100000)"
fill="#000000" stroke="none">
<path d="M12174 20483 c-63 -31 -149 -99 -152 -121 -4 -25 90 -167 121 -184
24 -12 38 -6 135 56 58 38 72 52 72 72 0 32 -102 180 -129 187 -10 2 -32 -2
-47 -10z"/>
<path d="M10212 20094 c-34 -24 -27 -57 24 -116 63 -72 72 -78 118 -78 l41 0
-3 -232 c-2 -149 1 -246 8 -270 14 -50 97 -138 173 -186 34 -21 136 -80 227
-130 91 -50 177 -103 190 -117 l24 -25 -33 -34 c-48 -49 -40 -70 48 -133 40
-29 82 -53 93 -53 32 0 104 79 117 128 19 67 -1 115 -79 192 -52 52 -106 88
-272 183 -126 72 -219 132 -237 153 l-31 35 0 239 0 240 105 0 105 0 0 -102
c0 -57 -3 -140 -7 -185 l-6 -83 -46 0 c-53 0 -91 -21 -91 -51 0 -11 23 -48 51
-84 56 -71 82 -83 166 -71 55 7 98 31 127 69 19 25 22 47 28 190 3 89 7 197 7
240 l1 77 74 0 c42 0 78 5 81 10 4 7 11 8 18 1 9 -7 551 -71 605 -71 10 0 11
-19 6 -77 -4 -43 -8 -80 -10 -82 -2 -2 -24 10 -49 28 -162 116 -416 86 -513
-61 -23 -36 -27 -52 -27 -117 0 -62 5 -87 27 -134 35 -75 127 -166 205 -202
75 -36 180 -45 249 -21 26 9 49 16 51 16 2 0 1 -45 -3 -99 l-7 -99 72 -46 c80
-51 114 -57 134 -23 10 14 29 164 56 432 23 226 44 421 47 434 5 23 8 23 67
17 73 -7 107 9 107 50 0 28 -68 126 -103 148 -14 9 -182 31 -492 64 -405 43
-474 48 -498 36 -18 -8 -37 -10 -55 -4 -15 4 -216 11 -447 14 -371 5 -423 4
-443 -10z m1491 -564 c30 -11 64 -31 76 -44 l22 -23 -46 -41 c-72 -63 -188
-92 -248 -61 -97 50 -102 128 -12 177 33 19 148 14 208 -8z"/>
<path d="M9351 20003 c-192 -27 -238 -36 -256 -53 -19 -18 -23 -18 -41 -5 -10
8 -27 15 -36 15 -33 0 -483 -112 -505 -126 -48 -30 -19 -80 87 -150 l38 -25
63 16 c35 9 71 18 80 21 13 4 20 -10 34 -66 l17 -71 -29 -37 c-38 -48 -112
-98 -158 -106 -20 -4 -38 -6 -40 -4 -2 2 4 30 12 63 13 48 13 68 4 101 -25 92
-125 179 -247 217 -60 18 -66 18 -119 2 -87 -25 -158 -99 -179 -187 -17 -71
42 -173 130 -224 l44 -26 -35 -46 c-128 -167 -52 -346 182 -427 96 -34 166
-40 233 -23 l55 15 84 -93 c46 -52 92 -96 102 -99 40 -13 122 55 122 101 0 22
-19 45 -87 109 l-87 80 12 33 c18 52 6 109 -32 148 -68 70 -155 92 -217 54
-62 -38 -83 -97 -57 -162 6 -16 1 -18 -39 -18 -117 0 -148 71 -77 174 55 79
56 79 151 55 113 -29 197 -23 274 19 31 16 58 27 60 24 2 -4 25 -95 51 -202
26 -107 54 -203 62 -212 14 -16 129 -48 172 -48 11 0 28 11 36 24 15 22 9 49
-90 445 -58 231 -105 427 -105 434 0 9 22 19 58 26 31 7 65 20 75 29 15 14 19
13 36 -2 16 -14 34 -17 92 -14 l73 3 53 -370 c28 -203 54 -385 58 -403 5 -28
15 -37 85 -72 90 -45 109 -48 135 -20 17 19 16 33 -40 432 -31 227 -60 427
-62 444 l-5 31 58 8 c123 14 136 56 44 137 -33 29 -68 55 -78 58 -9 4 -122 -9
-251 -27z m-943 -395 c26 -26 0 -128 -32 -128 -26 0 -76 51 -76 76 0 49 75 85
108 52z"/>
<path d="M13050 19773 c-32 -6 -60 -31 -60 -54 0 -25 49 -150 67 -170 12 -14
30 -16 121 -12 121 6 168 -6 198 -52 23 -35 8 -68 -44 -94 -40 -21 -96 -27
-189 -21 -55 3 -83 -10 -83 -39 0 -9 7 -49 17 -90 22 -94 37 -105 144 -106 76
0 79 -1 90 -27 24 -59 -40 -138 -113 -138 -112 0 -219 118 -254 280 -22 99
-30 108 -91 91 -69 -18 -86 -37 -78 -86 11 -73 65 -219 107 -290 51 -86 137
-173 201 -204 27 -13 75 -26 111 -28 138 -11 243 53 302 185 1 2 17 -6 35 -17
18 -11 53 -23 76 -27 24 -3 43 -11 43 -16 0 -5 -20 -71 -45 -147 -25 -76 -45
-148 -45 -161 0 -15 21 -44 58 -82 64 -63 100 -74 124 -39 8 11 75 206 149
434 l134 414 50 -15 c74 -24 117 -22 130 5 11 20 12 18 24 -26 7 -27 20 -56
29 -64 9 -8 117 -63 239 -122 l222 -107 -51 -103 -51 -103 -175 87 c-193 95
-235 105 -289 65 -45 -34 -59 -100 -40 -196 27 -137 73 -202 140 -200 40 1 69
23 92 68 11 22 20 40 21 42 1 1 35 -14 77 -34 l76 -36 -74 -149 -75 -149 -40
0 c-50 0 -117 -27 -131 -52 -7 -13 -5 -40 7 -96 20 -94 37 -116 79 -107 65 14
124 16 144 6 29 -16 29 -71 -1 -98 -58 -52 -113 -57 -179 -14 -109 69 -178
206 -195 389 -9 90 -24 107 -91 99 -64 -7 -86 -34 -78 -96 59 -431 303 -711
556 -638 98 29 154 93 179 208 15 65 2 163 -31 240 l-20 46 132 269 c72 148
151 311 175 362 l44 93 47 -24 c79 -40 90 -41 117 -14 l25 25 6 -32 c4 -17 9
-38 11 -47 3 -9 44 -43 93 -75 l88 -58 -55 -85 c-72 -112 -68 -108 -94 -84
-76 69 -161 54 -201 -35 -37 -85 -35 -169 14 -453 55 -321 48 -311 192 -283
50 10 51 38 7 217 -23 89 -43 169 -45 177 -4 11 10 21 46 33 28 10 52 17 53
15 52 -87 113 -137 191 -157 25 -6 45 -14 45 -16 0 -3 -39 -65 -87 -138 -49
-76 -86 -143 -86 -157 0 -24 46 -141 66 -167 14 -19 61 -16 79 5 9 9 118 175
243 367 125 193 230 354 235 358 4 5 33 -8 63 -28 98 -65 135 -34 112 93 -9
54 -19 80 -36 97 -42 39 -876 575 -896 575 -26 0 -53 -30 -54 -61 0 -14 -8 0
-17 33 -10 32 -26 66 -37 77 -20 19 -749 378 -776 381 -35 5 -50 -2 -60 -27
l-11 -28 -23 47 c-12 26 -27 54 -35 63 -12 15 -490 175 -523 175 -9 0 -24 -11
-32 -24 -15 -22 -14 -30 6 -98 12 -40 27 -78 33 -84 6 -6 51 -23 99 -38 67
-21 87 -31 83 -42 -3 -8 -20 -61 -37 -119 -37 -120 -43 -125 -154 -125 -69 0
-117 24 -144 71 -13 24 -12 27 32 71 79 80 86 165 22 295 -40 82 -121 175
-174 202 -75 38 -218 59 -301 44z m2561 -1344 c60 -39 109 -73 109 -75 0 -2
-25 -42 -56 -89 l-55 -85 -82 0 c-91 0 -157 23 -176 59 -10 18 -1 37 66 141
43 66 80 120 81 120 2 0 53 -32 113 -71z"/>
<path d="M6472 19605 c-168 -38 -268 -137 -301 -297 -21 -102 19 -211 105
-288 l39 -35 -89 -50 c-49 -28 -92 -59 -96 -70 -15 -41 4 -60 94 -91 l86 -29
59 33 60 33 14 -23 c8 -13 94 -174 191 -358 98 -184 186 -343 198 -352 15 -14
38 -18 95 -18 65 0 77 3 98 25 14 13 25 30 25 37 -1 7 -94 189 -209 403 l-208
390 61 35 c47 28 62 42 64 63 3 23 7 26 31 21 15 -3 44 1 65 10 44 18 51 16
61 -21 24 -98 183 -183 341 -183 l62 0 -10 -37 c-5 -21 -11 -39 -13 -41 -1 -1
-24 2 -50 8 -37 8 -59 7 -99 -4 -149 -44 -170 -205 -36 -274 56 -29 134 -26
202 7 l47 22 136 -90 c75 -50 140 -91 146 -91 23 0 48 22 73 64 47 80 39 91
-124 180 -58 32 -109 62 -113 66 -5 4 -2 18 6 31 60 92 76 253 37 373 -18 57
-32 79 -85 133 l-63 65 32 13 c17 7 59 24 94 38 l63 26 8 -22 c80 -209 299
-737 311 -751 14 -14 38 -19 104 -23 93 -6 116 2 116 41 0 13 -74 206 -165
431 -91 225 -164 409 -163 410 2 1 23 10 48 19 71 28 90 43 90 75 0 35 -6 39
-97 81 l-73 33 -310 -125 c-296 -120 -309 -125 -295 -97 35 67 17 86 -128 134
-217 73 -412 98 -535 70z m370 -189 c86 -16 208 -54 208 -65 0 -4 -88 -42
-195 -86 -108 -43 -200 -85 -206 -92 -6 -7 -9 -26 -7 -42 4 -28 3 -28 -29 -19
-26 7 -41 4 -73 -12 l-41 -21 -34 21 c-34 21 -75 90 -75 126 1 29 35 98 61
123 78 74 218 97 391 67z m388 -282 c32 -27 70 -92 70 -119 0 -38 -146 -1
-169 43 -16 31 -13 60 9 82 27 27 52 25 90 -6z"/>
<path d="M16198 18805 c-121 -14 -126 -20 -109 -132 20 -138 30 -148 147 -133
139 18 141 21 119 152 -9 51 -21 98 -26 104 -16 19 -39 21 -131 9z"/>
<path d="M5623 18559 c-39 -14 -713 -511 -713 -525 0 -8 0 -17 1 -21 0 -3 -12
-12 -28 -18 -37 -17 -376 -311 -385 -336 -4 -10 -13 -19 -20 -19 -16 0 -675
-657 -693 -691 -13 -24 -12 -30 6 -52 11 -16 32 -27 52 -30 21 -2 13 -4 -23
-6 -30 0 -65 -4 -78 -7 -15 -4 -77 -75 -165 -187 l-141 -180 -9 34 c-15 57
-24 62 -97 56 -79 -7 -225 -44 -342 -87 -298 -109 -429 -309 -353 -540 30 -89
115 -165 221 -195 32 -10 60 -19 62 -20 2 -2 -20 -39 -47 -82 -53 -82 -62
-121 -36 -143 13 -11 32 -11 99 -1 91 14 109 26 155 103 l22 37 350 -220 c193
-120 360 -219 372 -218 31 1 140 71 153 98 7 13 10 31 7 41 -3 10 -163 116
-383 254 l-379 237 35 55 c23 36 34 64 32 82 -2 20 4 31 23 43 14 9 106 120
205 247 98 127 182 231 186 232 15 0 128 -94 121 -100 -5 -4 -30 -15 -58 -25
-61 -23 -161 -119 -192 -186 -104 -223 3 -409 236 -409 199 0 364 122 396 292
l7 37 67 -53 c36 -29 75 -56 87 -60 22 -7 150 50 172 77 32 39 16 55 -344 336
l-352 275 39 51 c40 53 49 91 27 113 -9 9 -6 12 16 12 15 0 37 5 49 11 12 6
117 106 234 222 211 210 212 211 233 192 21 -19 20 -19 -165 -205 -199 -200
-202 -205 -165 -266 28 -44 45 -48 121 -25 175 54 309 52 366 -5 19 -19 23
-33 21 -62 -3 -37 -3 -37 -57 -45 -101 -14 -155 -64 -155 -144 0 -29 7 -59 18
-75 21 -32 73 -58 115 -58 42 0 122 32 170 67 l40 29 153 -23 c84 -13 164 -22
178 -21 33 4 50 40 50 109 0 82 -6 85 -166 81 l-133 -4 5 64 c15 160 -70 251
-264 280 l-82 13 60 60 60 60 208 -208 c114 -114 214 -207 223 -207 36 0 146
44 167 67 18 20 20 28 11 46 -6 12 -152 164 -325 337 l-314 315 63 62 c34 34
82 79 105 100 l44 37 16 -21 c82 -103 517 -592 531 -596 29 -7 177 17 195 32
9 7 16 23 16 35 0 13 -105 141 -290 354 -159 184 -290 338 -290 342 0 5 23 28
50 51 28 23 50 48 50 56 0 7 8 17 18 20 9 4 106 71 215 150 108 79 201 143
206 143 5 0 38 -40 73 -88 l65 -88 -163 -118 c-177 -129 -202 -158 -190 -222
13 -66 87 -113 227 -144 145 -32 227 55 153 164 -30 43 -32 39 53 100 l52 37
24 -33 c13 -18 63 -86 111 -151 48 -65 94 -121 103 -124 25 -10 165 16 185 34
10 9 18 24 18 35 0 10 -115 177 -257 371 -141 193 -256 357 -257 363 -1 6 23
30 52 53 56 45 66 75 35 103 -23 21 -153 47 -180 37z m-2361 -2296 c-76 -98
-141 -185 -145 -195 -3 -9 1 -24 8 -35 20 -26 19 -30 -14 -36 -19 -4 -36 -18
-51 -42 -19 -31 -26 -35 -64 -35 -108 0 -177 117 -132 225 8 19 36 57 62 85
82 88 210 151 379 188 50 11 91 20 93 21 1 0 -60 -79 -136 -176z m744 -39 c22
-151 -51 -284 -158 -284 -106 0 -105 139 1 248 39 40 109 81 138 82 6 0 15
-21 19 -46z"/>
<path d="M10350 18420 c-1440 -85 -2801 -555 -3959 -1367 -1344 -944 -2345
-2285 -2861 -3831 -217 -652 -340 -1302 -381 -2007 -14 -247 -6 -825 15 -1055
152 -1631 758 -3070 1818 -4319 168 -198 596 -627 798 -800 933 -798 1987
-1341 3160 -1631 829 -204 1720 -268 2565 -184 2225 220 4222 1392 5512 3234
713 1018 1181 2262 1317 3505 57 510 60 1103 10 1595 -161 1598 -801 3067
-1865 4285 -141 162 -504 526 -664 666 -1269 1112 -2773 1753 -4445 1894 -217
19 -811 27 -1020 15z m865 -240 c843 -55 1619 -233 2374 -547 2153 -894 3773
-2770 4335 -5021 219 -874 275 -1804 166 -2712 -307 -2537 -1942 -4759 -4282
-5819 -779 -353 -1538 -549 -2443 -633 -190 -18 -1020 -18 -1210 0 -460 43
-816 102 -1216 203 -2175 549 -4003 2087 -4924 4145 -596 1329 -781 2813 -534
4274 280 1652 1150 3198 2424 4305 1236 1074 2746 1697 4375 1804 184 12 751
13 935 1z"/>
<path d="M10460 18143 c-1348 -60 -2632 -475 -3740 -1208 -646 -427 -1223
-955 -1704 -1558 -759 -953 -1269 -2080 -1481 -3275 -85 -475 -109 -757 -109
-1282 -1 -502 22 -793 95 -1229 221 -1314 795 -2540 1669 -3560 160 -187 514
-546 700 -711 992 -876 2150 -1451 3445 -1709 1889 -378 3880 16 5480 1082
409 273 735 539 1089 886 869 856 1503 1890 1860 3036 516 1651 435 3411 -230
5022 -95 232 -326 690 -459 913 -1142 1905 -3023 3175 -5205 3514 -434 67
-984 98 -1410 79z m486 -250 c-18 -227 -62 -458 -127 -658 l-32 -100 -14 40
c-60 170 -111 450 -120 658 l-6 147 153 0 152 0 -6 -87z m-472 46 c3 -17 6
-58 6 -91 0 -140 50 -444 103 -625 24 -82 24 -82 3 -71 -52 28 -169 124 -243
201 -99 103 -171 204 -233 327 -47 93 -105 249 -96 258 6 6 295 29 382 31 l72
1 6 -31z m863 16 c178 -14 243 -22 243 -30 0 -2 -14 -43 -31 -92 -105 -297
-304 -547 -570 -717 l-27 -17 33 104 c65 203 112 453 130 680 5 61 11 87 20
87 8 0 98 -7 202 -15z m-1457 -158 c111 -331 347 -630 643 -814 58 -36 56 -37
-85 -54 -489 -57 -989 170 -1276 580 l-41 58 57 17 c115 36 208 117 253 221
27 62 6 54 234 91 77 12 148 22 158 21 13 -2 27 -31 57 -120z m2040 88 c85
-14 167 -28 181 -31 21 -4 34 -20 58 -69 40 -82 129 -165 206 -194 31 -12 62
-21 70 -21 22 0 19 -10 -19 -65 -181 -267 -500 -481 -811 -546 -122 -26 -307
-34 -425 -20 -154 19 -151 16 -73 68 288 192 514 486 608 793 34 111 33 110
43 110 4 0 77 -11 162 -25z m-2696 -86 c-44 -50 -183 -81 -197 -45 -5 11 18
20 96 39 128 31 124 31 101 6z m3249 -25 c53 -12 77 -22 77 -32 0 -24 -102 -9
-155 23 -49 28 -57 40 -22 32 12 -3 57 -13 100 -23z m-3598 -90 l13 -32 -49
-26 c-61 -34 -149 -38 -209 -11 -22 10 -40 21 -40 25 0 10 230 79 253 77 11
-1 25 -16 32 -33z m4043 -35 l73 -23 -33 -18 c-48 -25 -157 -24 -209 2 -47 24
-53 37 -40 73 l10 26 63 -18 c35 -10 96 -29 136 -42z m-4593 -99 c-3 -5 -12
-10 -18 -10 -7 0 -6 4 3 10 19 12 23 12 15 0z m4940 -20 c13 -6 15 -9 5 -9 -8
0 -22 4 -30 9 -18 12 -2 12 25 0z m-4672 -79 c116 -40 234 -32 333 23 l41 23
51 -76 c108 -162 253 -306 429 -424 170 -113 371 -192 584 -228 182 -31 447
-19 592 27 48 15 -189 -364 -355 -567 -485 -597 -1216 -1032 -1980 -1178 -533
-102 -1110 -69 -1581 91 l-67 23 92 60 c126 82 332 287 417 414 163 246 246
501 258 791 5 133 -9 296 -33 385 -4 18 2 22 55 32 169 32 289 144 331 310
l11 43 42 -6 c65 -9 119 10 162 58 35 38 41 41 94 42 65 2 121 30 147 76 16
25 20 27 51 18 67 -18 165 24 198 86 l19 35 28 -20 c15 -11 51 -28 81 -38z
m4087 6 c107 -51 221 -52 344 -2 56 23 61 23 70 7 35 -63 126 -107 198 -96 31
5 38 3 53 -19 25 -39 95 -69 153 -66 46 2 50 0 90 -43 46 -50 109 -75 161 -65
29 6 30 5 46 -51 22 -77 54 -129 113 -184 61 -57 112 -84 199 -104 37 -9 69
-17 71 -19 2 -1 -5 -54 -14 -116 -21 -147 -14 -369 16 -514 83 -391 302 -718
628 -936 103 -69 103 -69 75 -80 -112 -43 -391 -105 -588 -131 -159 -21 -677
-18 -840 5 -481 68 -923 223 -1327 467 -231 138 -398 270 -609 480 -179 177
-283 303 -402 482 -70 106 -199 329 -194 335 2 1 48 -7 102 -19 81 -18 134
-22 275 -22 197 0 301 17 488 79 299 100 560 288 746 539 44 59 82 105 85 103
3 -2 31 -15 61 -30z m-4593 -3 c-3 -3 -12 -4 -19 -1 -8 3 -5 6 6 6 11 1 17 -2
13 -5z m5408 -22 c-3 -3 -11 0 -18 7 -9 10 -8 11 6 5 10 -3 15 -9 12 -12z
m-5630 -72 c-3 -5 -14 -10 -23 -10 -15 0 -15 2 -2 10 20 13 33 13 25 0z m5860
-28 c-3 -3 -11 0 -18 7 -9 10 -8 11 6 5 10 -3 15 -9 12 -12z m-6125 -117 c0
-32 -41 -113 -72 -142 -37 -34 -109 -63 -161 -63 -46 0 -49 2 -63 36 -8 20
-14 38 -12 39 10 11 285 154 296 154 6 1 12 -10 12 -24z m6645 -139 c23 -17 2
-72 -31 -80 -55 -14 -154 22 -202 72 -32 34 -61 99 -62 135 l0 28 139 -71 c77
-40 147 -77 156 -84z m-7085 -123 c0 -24 -77 -54 -131 -51 l-50 3 78 47 c70
42 79 45 91 31 6 -9 12 -23 12 -30z m7370 -45 l45 -28 -43 0 c-45 0 -142 35
-142 52 0 5 5 18 11 29 11 22 1 26 129 -53z m-7510 -173 c64 1 110 6 140 18
25 9 48 13 51 9 12 -12 29 -181 29 -281 0 -384 -179 -772 -470 -1014 -102 -86
-175 -136 -167 -113 4 10 17 63 29 119 30 138 32 435 5 572 -27 131 -80 286
-135 398 l-50 98 57 43 c31 24 109 79 173 123 l118 81 62 -27 c53 -22 78 -26
158 -26z m7816 -27 c49 -34 137 -97 196 -140 l107 -79 -29 -48 c-78 -126 -145
-310 -182 -493 -27 -139 -30 -388 -5 -508 8 -41 14 -76 12 -78 -8 -9 -173 129
-241 200 -176 188 -299 431 -350 694 -19 98 -24 325 -11 435 l8 67 52 -21 c79
-31 203 -29 282 5 33 14 63 26 66 27 3 0 46 -27 95 -61z m-3917 -243 c261
-426 677 -833 1128 -1103 851 -511 1883 -650 2803 -378 46 14 85 24 87 23 1
-2 -9 -39 -23 -82 -104 -334 -148 -628 -147 -980 0 -305 26 -520 99 -816 232
-946 842 -1767 1657 -2229 42 -24 77 -47 77 -50 0 -3 -21 -16 -47 -29 -69 -33
-202 -114 -318 -192 -312 -211 -603 -500 -842 -834 -325 -455 -545 -1025 -628
-1625 -9 -64 -19 -223 -22 -360 -7 -351 17 -571 103 -909 24 -96 43 -176 41
-177 -1 -2 -45 10 -96 26 -117 37 -329 83 -486 107 -97 14 -182 18 -440 18
-282 -1 -337 -3 -465 -23 -581 -91 -1102 -298 -1569 -627 -419 -294 -803 -721
-1036 -1152 l-28 -52 -57 102 c-401 721 -1071 1274 -1877 1550 -409 140 -763
201 -1178 200 -321 0 -615 -40 -905 -123 -58 -16 -108 -30 -112 -30 -4 0 2 26
13 58 27 77 73 264 98 393 51 265 65 646 36 924 -87 818 -444 1566 -1024 2145
-225 225 -476 417 -724 556 -48 26 -87 50 -87 53 0 3 42 29 93 58 949 529
1601 1547 1722 2690 19 180 19 539 0 713 -23 206 -82 495 -130 629 -8 24 -13
46 -11 48 2 2 55 -12 117 -30 960 -290 2036 -109 2918 490 448 305 826 715
1076 1169 l50 91 46 -86 c25 -47 65 -117 88 -156z m-4507 -240 c82 -222 100
-511 48 -753 l-12 -54 -58 107 c-102 186 -262 413 -386 547 -24 26 -44 52 -44
57 0 9 159 149 300 264 l55 45 34 -67 c19 -36 47 -102 63 -146z m9023 19 c72
-62 140 -122 152 -135 l22 -24 -81 -90 c-150 -167 -295 -369 -384 -535 -37
-68 -39 -70 -46 -43 -4 15 -12 80 -18 145 -18 191 10 411 73 579 25 67 92 205
109 227 13 15 3 22 173 -124z m-9502 -348 c113 -136 244 -330 323 -480 l58
-110 -80 43 c-103 57 -281 175 -368 245 -111 90 -236 206 -236 221 0 13 188
195 201 195 4 0 49 -51 102 -114z m9901 -25 l98 -98 -104 -85 c-159 -131 -354
-259 -529 -349 l-41 -21 33 59 c108 191 212 337 354 496 47 53 87 97 88 97 2
0 47 -44 101 -99z m-10005 -459 c63 -48 173 -121 243 -163 l128 -77 -82 -13
c-128 -21 -371 -16 -495 10 -145 30 -322 99 -412 160 -15 9 41 80 228 288 l64
72 105 -95 c58 -53 157 -134 221 -182z m10378 59 c143 -167 144 -146 -10 -213
-214 -93 -470 -128 -707 -98 -147 19 -145 15 -29 77 171 90 357 218 519 357
77 66 54 78 227 -123z m-10873 -391 c191 -75 444 -118 630 -107 98 6 255 30
292 44 32 12 -66 -117 -166 -217 -178 -179 -409 -304 -655 -355 -115 -23 -317
-37 -442 -30 l-111 7 13 32 c7 17 18 59 24 93 15 78 -5 181 -49 259 l-30 54
91 128 c50 70 107 146 126 169 l34 43 82 -45 c45 -24 118 -58 161 -75z m11184
3 c135 -182 202 -285 193 -297 -21 -25 -51 -139 -51 -193 0 -64 18 -140 43
-190 10 -18 17 -34 17 -36 0 -13 -190 -31 -310 -30 -280 1 -507 71 -750 231
-143 95 -313 277 -404 433 l-26 46 94 -23 c340 -82 712 -38 1021 119 50 25 91
46 91 46 1 1 38 -47 82 -106z m-10029 -236 c38 -134 74 -304 98 -462 15 -97
18 -180 17 -440 0 -346 -11 -458 -70 -725 -120 -538 -374 -1053 -724 -1465
-99 -116 -340 -349 -450 -434 -52 -41 -148 -109 -213 -152 -114 -76 -325 -195
-332 -188 -2 2 5 40 16 84 61 258 33 597 -71 861 -110 276 -309 538 -528 691
-37 25 -71 49 -75 53 -4 4 3 29 17 56 64 129 54 283 -25 402 l-29 42 40 36
c46 41 62 85 59 153 -2 44 0 52 28 75 42 35 67 103 61 161 -3 25 -2 45 3 45 5
0 24 14 43 30 39 34 72 116 62 154 -6 23 -2 25 67 40 176 40 304 177 324 349
l6 49 37 -6 c91 -14 275 -18 395 -7 505 46 896 271 1159 668 24 36 44 57 47
50 4 -7 21 -61 38 -120z m8784 -158 c221 -258 524 -430 879 -501 141 -27 387
-29 513 -4 44 9 85 16 92 16 6 0 19 -26 28 -57 21 -73 39 -107 83 -161 44 -55
121 -105 194 -128 l56 -17 0 -53 c-1 -61 34 -131 76 -154 23 -12 26 -20 26
-68 0 -65 22 -114 66 -150 31 -24 32 -28 27 -78 -7 -64 22 -132 70 -166 18
-12 33 -23 35 -24 2 -1 -8 -19 -22 -41 -80 -123 -76 -312 9 -437 l24 -35 -82
-57 c-187 -130 -397 -382 -496 -595 -48 -104 -104 -282 -128 -404 -24 -127
-22 -396 4 -517 l19 -88 -84 46 c-282 152 -528 339 -763 581 -844 866 -1165
2106 -838 3235 l32 108 57 -88 c32 -48 87 -121 123 -163z m-10523 -82 c0 -49
-6 -79 -20 -107 -11 -22 -24 -40 -28 -40 -19 0 -82 22 -87 30 -3 5 22 54 57
109 40 66 65 96 70 88 4 -6 8 -43 8 -80z m12175 -134 c21 -35 20 -37 -12 -47
-33 -10 -83 80 -83 149 l0 50 39 -60 c20 -33 46 -74 56 -92z m-12340 -152 l50
-18 3 -51 c6 -101 -76 -199 -185 -222 -26 -6 -60 -7 -75 -3 l-27 8 82 153 c45
83 86 152 92 151 5 0 33 -8 60 -18z m12521 -172 l72 -134 -33 -3 c-40 -4 -99
24 -137 65 -34 36 -67 109 -68 149 0 27 5 33 38 47 20 8 41 14 47 13 5 -1 42
-63 81 -137z m-12850 -354 c-3 -8 -10 -15 -15 -15 -7 0 -6 10 1 26 12 26 25
16 14 -11z m13037 -25 c3 -11 2 -20 -3 -20 -8 0 -20 24 -20 41 0 17 17 1 23
-21z m-13147 -216 c-4 -9 -9 -15 -11 -12 -3 3 -3 13 1 22 4 9 9 15 11 12 3 -3
3 -13 -1 -22z m13241 -16 c-3 -8 -6 -5 -6 6 -1 11 2 17 5 13 3 -3 4 -12 1 -19z
m-13317 -192 c0 -7 -8 -20 -17 -27 -15 -12 -16 -12 -10 4 4 10 7 23 7 28 0 5
5 9 10 9 6 0 10 -6 10 -14z m13413 -36 c3 -11 1 -20 -4 -20 -5 0 -9 9 -9 20 0
11 2 20 4 20 2 0 6 -9 9 -20z m-13467 -285 c43 -75 42 -182 -4 -243 l-18 -23
-59 27 c-33 14 -61 27 -62 28 -3 3 77 257 84 269 7 12 31 -12 59 -58z m13603
-116 c23 -74 41 -142 41 -150 0 -8 -16 -21 -36 -28 -43 -16 -62 -3 -95 66 -30
61 -24 172 11 225 14 20 28 34 31 30 4 -4 25 -68 48 -143z m-13723 -289 c2 0
4 -24 4 -53 0 -73 -40 -152 -97 -191 -24 -16 -44 -28 -46 -25 -2 2 12 70 31
151 l35 147 35 -15 c19 -7 36 -14 38 -14z m13842 -149 c13 -56 21 -105 18
-108 -21 -22 -106 114 -106 170 0 27 29 50 55 43 5 -1 20 -49 33 -105z
m-13604 12 c279 -205 473 -503 538 -828 23 -117 26 -365 5 -479 l-12 -68 -80
107 c-94 127 -240 269 -357 348 -119 80 -292 160 -440 204 -150 44 -139 17
-100 242 l27 155 57 17 c143 42 254 154 289 293 6 25 14 46 16 46 3 0 28 -17
57 -37z m13421 -161 c50 -67 123 -122 194 -143 22 -7 45 -17 50 -23 9 -11 61
-312 61 -352 0 -18 -17 -27 -112 -58 -322 -107 -589 -313 -796 -614 -33 -49
-52 -67 -55 -58 -4 9 -11 64 -18 123 -40 378 96 776 364 1060 45 47 118 115
161 149 l79 63 23 -55 c12 -30 34 -71 49 -92z m-13779 -727 c130 -43 246 -98
349 -165 92 -60 279 -244 343 -337 l43 -62 -73 25 c-186 63 -469 117 -696 133
-74 5 -136 12 -139 15 -3 3 2 90 11 194 9 104 16 199 16 211 0 30 23 27 146
-14z m14123 -117 c6 -73 14 -175 17 -225 l7 -93 -24 0 c-81 -1 -331 -22 -423
-36 -60 -8 -169 -30 -242 -48 l-133 -33 21 31 c124 179 299 333 489 431 94 48
231 104 260 105 13 0 18 -22 28 -132z m-14016 -474 c167 -19 330 -54 495 -106
98 -31 129 -44 117 -51 -38 -21 -250 -76 -385 -101 -151 -27 -337 -46 -452
-46 l-68 0 0 163 0 164 83 -4 c45 -2 140 -11 210 -19z m14047 -183 l0 -159
-67 5 c-131 8 -319 34 -433 59 -118 27 -310 82 -368 107 l-33 14 128 36 c235
66 417 94 636 96 l137 1 0 -159z m-1187 -191 c-23 -93 -26 -127 -26 -300 -1
-168 2 -210 22 -299 91 -412 309 -745 637 -974 l72 -50 -29 -40 c-45 -62 -73
-165 -66 -246 6 -71 37 -166 66 -203 18 -22 18 -22 -21 -51 -52 -37 -82 -104
-75 -166 5 -42 3 -48 -33 -83 -44 -42 -65 -102 -56 -158 5 -31 2 -37 -28 -57
-49 -32 -79 -101 -74 -168 l5 -53 -43 -7 c-143 -21 -293 -171 -319 -318 -6
-29 -11 -36 -24 -33 -125 39 -385 57 -536 37 -456 -60 -851 -307 -1096 -686
-50 -77 -42 -84 -90 84 -83 285 -113 511 -113 866 -1 346 22 548 95 840 230
913 831 1694 1619 2104 74 38 135 69 136 68 1 -1 -9 -49 -23 -107z m-11783 15
c249 -140 450 -295 676 -520 185 -184 275 -292 407 -485 376 -553 567 -1139
584 -1791 6 -241 -3 -393 -38 -608 -31 -197 -112 -497 -130 -486 -5 4 -18 24
-29 45 -37 73 -168 236 -259 322 -202 193 -466 326 -757 385 -155 31 -480 19
-615 -22 -11 -4 -20 9 -33 52 -26 83 -57 133 -121 191 -60 55 -139 91 -217
100 -47 4 -48 5 -48 39 0 49 -22 94 -64 130 -32 29 -36 38 -36 80 0 61 -29
124 -69 152 -28 20 -30 25 -25 64 8 57 -10 120 -45 154 l-28 29 20 24 c32 39
65 120 77 189 15 83 -6 184 -56 266 -19 32 -33 59 -32 60 2 1 32 21 68 45 335
223 573 581 655 987 37 186 37 408 0 587 -8 39 -15 73 -15 75 0 7 37 -11 130
-64z m-490 9 c0 -18 -122 -163 -204 -242 -106 -103 -221 -182 -359 -247 -111
-53 -267 -100 -277 -85 -8 14 -30 291 -30 381 l0 65 183 12 c209 13 369 38
547 86 145 39 140 38 140 30z m12700 -33 c173 -53 427 -103 590 -116 41 -3 95
-8 119 -11 l44 -6 -7 -111 c-11 -195 -29 -367 -37 -367 -14 0 -157 59 -218 90
-189 95 -426 297 -539 459 -56 80 -62 95 -34 87 9 -3 46 -14 82 -25z m-12481
-66 c16 -108 14 -334 -4 -445 -58 -352 -285 -709 -574 -901 l-46 -30 -27 60
c-49 109 -148 194 -265 227 -72 20 -62 -4 -98 229 -34 216 -34 211 14 219 21
3 80 19 131 36 320 104 593 312 787 598 31 45 60 82 64 82 3 0 12 -34 18 -75z
m12383 -203 c172 -205 468 -408 707 -483 40 -13 76 -30 79 -37 3 -8 -8 -92
-23 -188 l-27 -174 -38 -10 c-99 -27 -216 -140 -250 -241 l-17 -48 -74 55
c-260 194 -452 482 -520 781 -26 115 -36 338 -20 457 7 50 14 94 17 98 3 4 26
-23 51 -60 25 -37 77 -104 115 -150z m-13217 -1132 c24 -34 45 -89 45 -116 0
-6 -22 -20 -49 -32 l-48 -20 -27 117 c-14 64 -26 120 -26 124 0 18 81 -39 105
-73z m13885 -64 c-22 -93 -22 -94 -46 -84 -28 13 -32 50 -11 101 18 41 70 103
75 89 2 -7 -6 -54 -18 -106z m-13757 -258 c45 -60 57 -94 57 -163 0 -72 -20
-123 -63 -163 l-25 -23 -25 78 c-52 159 -79 255 -72 261 7 7 85 40 97 41 4 1
18 -14 31 -31z m13680 3 c10 -10 -67 -288 -83 -305 -15 -16 -60 94 -60 146 0
55 11 89 48 141 23 34 29 38 56 33 17 -4 34 -10 39 -15z m-170 -571 c-3 -12
-8 -19 -11 -16 -5 6 5 36 12 36 2 0 2 -9 -1 -20z m-201 -482 c-7 -7 -12 -8
-12 -2 0 14 12 26 19 19 2 -3 -1 -11 -7 -17z m-12814 -207 c70 -36 132 -120
132 -179 0 -26 -6 -31 -71 -57 -40 -15 -74 -24 -79 -19 -11 11 -140 258 -140
267 0 16 122 6 158 -12z m12640 -149 c-91 -172 -84 -164 -135 -141 -40 17 -43
21 -43 56 0 24 11 58 30 90 36 63 112 113 173 113 l38 0 -63 -118z m-11688
-161 c238 -54 455 -169 628 -335 80 -76 186 -207 217 -266 l14 -27 -62 13
c-209 44 -439 38 -655 -16 -184 -47 -311 -100 -445 -186 -38 -25 -72 -42 -77
-39 -9 6 -154 203 -218 297 l-32 47 24 36 c31 46 61 126 70 186 9 59 -15 176
-47 234 l-25 43 62 12 c181 34 396 34 546 1z m11168 -47 c59 -8 110 -18 114
-20 4 -3 -1 -23 -12 -44 -30 -60 -53 -168 -45 -220 7 -55 33 -138 51 -164 14
-20 -7 -54 -168 -274 l-69 -93 -45 32 c-62 42 -233 123 -326 153 -180 58 -268
71 -483 70 -147 0 -219 -5 -270 -16 -38 -9 -72 -15 -74 -12 -9 9 116 158 198
236 194 185 452 313 706 352 123 19 296 19 423 0z m-11931 -46 c29 -32 49 -76
56 -122 6 -40 -9 -136 -22 -136 -6 0 -151 234 -151 245 0 7 61 33 81 34 8 1
25 -9 36 -21z m12257 -44 c9 -3 16 -10 16 -14 0 -20 -103 -179 -112 -174 -22
14 11 132 50 177 16 19 22 20 46 11z m-9084 -494 c193 -12 349 -32 515 -66
868 -181 1636 -698 2100 -1413 68 -106 181 -311 171 -311 -3 0 -48 8 -98 17
-124 22 -371 22 -493 0 -356 -66 -640 -217 -876 -464 -64 -68 -190 -235 -226
-301 -1 -2 -19 8 -40 22 -77 53 -212 73 -313 46 -25 -6 -69 -25 -99 -41 l-54
-28 -19 25 c-34 43 -93 66 -158 62 -54 -3 -59 -1 -98 34 -44 40 -90 54 -151
45 -34 -4 -41 -1 -66 30 -34 43 -105 76 -150 71 -33 -4 -33 -4 -38 47 -15 164
-162 326 -320 351 -28 5 -36 11 -33 23 19 60 37 163 46 263 25 270 -48 608
-183 851 -123 219 -344 449 -539 560 -21 12 -38 25 -38 28 0 9 200 64 321 88
138 28 315 52 459 60 185 12 200 12 380 1z m6358 -5 c81 -9 212 -29 291 -45
153 -31 383 -99 379 -111 -2 -4 -45 -35 -97 -69 -119 -80 -272 -227 -365 -350
-252 -334 -356 -794 -272 -1196 8 -38 14 -69 13 -70 -1 -1 -29 -9 -62 -19
-140 -39 -246 -147 -282 -286 -16 -65 -18 -68 -52 -74 -49 -9 -84 -29 -114
-65 -21 -25 -33 -30 -69 -30 -57 -1 -119 -30 -153 -73 -25 -31 -32 -34 -64
-30 -51 7 -114 -12 -149 -45 l-30 -28 -54 32 c-127 79 -284 83 -412 11 l-44
-24 -10 21 c-24 52 -168 229 -250 307 -239 226 -520 363 -852 414 -177 28
-420 15 -579 -31 -29 -8 -55 -13 -58 -10 -14 14 169 308 301 481 110 145 408
449 555 565 522 412 1152 668 1791 729 148 14 481 12 638 -4z m-8054 -137 l68
-10 -103 -55 c-193 -101 -408 -254 -602 -426 -37 -32 -71 -56 -77 -52 -17 11
-270 305 -270 315 0 10 89 65 185 113 233 116 522 158 799 115z m9663 -9 c114
-15 226 -45 323 -86 97 -41 230 -114 230 -126 0 -10 -171 -215 -246 -296 l-52
-56 -92 88 c-162 155 -340 289 -535 403 -55 32 -93 60 -85 61 118 23 335 29
457 12z m-9543 -250 c-115 -206 -245 -382 -407 -554 l-85 -90 -67 65 c-37 36
-85 87 -108 114 l-41 49 59 54 c135 123 263 220 410 313 81 51 288 160 293
155 2 -2 -22 -50 -54 -106z m9236 -64 c125 -83 301 -228 394 -323 l50 -51 -60
-67 c-32 -36 -82 -86 -110 -111 l-52 -44 -77 88 c-100 113 -208 257 -281 375
-59 96 -164 289 -164 302 0 13 169 -82 300 -169z m-8832 120 c310 -203 525
-531 587 -891 22 -126 22 -346 0 -469 -23 -133 -20 -127 -58 -105 -48 27 -134
50 -192 50 -65 0 -159 -24 -211 -55 l-42 -25 -148 106 c-82 58 -168 121 -191
140 l-41 34 53 89 c98 161 166 347 199 540 28 168 17 460 -23 599 -5 17 -8 32
-5 32 3 0 35 -20 72 -45z m8261 -7 c-46 -157 -62 -441 -34 -613 32 -195 99
-390 185 -534 l47 -80 -86 -64 c-47 -35 -123 -90 -168 -121 l-83 -58 -30 22
c-108 77 -307 83 -418 13 -13 -8 -26 -12 -30 -9 -30 31 -42 406 -17 549 51
293 212 578 435 773 49 42 193 149 207 153 1 1 -3 -14 -8 -31z m-8462 -288 c6
-195 -7 -306 -53 -452 -28 -91 -121 -286 -158 -332 l-23 -30 -69 59 c-38 32
-114 98 -170 147 l-100 88 79 83 c159 165 336 403 433 584 35 63 40 69 48 50
4 -12 11 -101 13 -197z m8798 -115 c69 -103 177 -242 288 -369 l48 -54 -48
-45 c-56 -52 -178 -157 -245 -211 l-47 -37 -27 43 c-64 101 -129 267 -160 408
-30 140 -29 474 3 556 4 10 24 -17 61 -83 30 -54 87 -147 127 -208z m-3716
-1151 c345 -50 698 -266 900 -551 l62 -87 -53 -16 c-95 -30 -167 -81 -219
-156 -32 -47 -69 -143 -69 -180 0 -13 -8 -25 -18 -28 -22 -7 -368 -66 -387
-66 -7 0 -16 16 -19 38 -13 74 -69 239 -112 331 -121 259 -345 509 -587 654
l-58 35 58 12 c157 33 339 38 502 14z m3070 -14 c9 -5 -20 -27 -85 -68 -131
-80 -127 -79 -147 -37 -9 20 -17 40 -17 45 0 16 79 63 118 70 39 8 107 2 131
-10z m-4199 -10 c132 -16 130 -14 37 -82 -287 -212 -490 -533 -573 -907 l-19
-83 -61 6 c-69 7 -360 54 -386 62 -10 3 -18 13 -18 22 0 34 -50 123 -97 173
-53 56 -106 91 -170 110 -24 7 -43 15 -43 19 0 13 97 152 154 221 168 200 444
371 701 433 144 35 322 44 475 26z m-3330 -21 c24 -11 52 -27 62 -36 16 -14
16 -17 1 -49 -9 -19 -20 -34 -24 -34 -19 0 -209 122 -204 131 11 17 118 9 165
-12z m7138 -127 c12 -31 24 -61 25 -65 1 -5 -63 -44 -143 -87 l-145 -79 -3 47
c-5 65 13 116 56 164 43 47 102 78 152 78 33 0 36 -3 58 -58z m-6768 10 c86
-44 148 -160 125 -233 -6 -19 -14 -16 -123 42 -64 34 -131 70 -149 80 l-31 19
26 60 c26 58 28 60 63 60 21 0 60 -12 89 -28z m3385 -316 c40 -183 55 -301 62
-493 l6 -183 -163 0 -163 0 6 133 c11 234 53 462 128 693 l42 129 28 -84 c16
-46 40 -134 54 -195z m239 177 c236 -177 425 -464 491 -745 13 -57 13 -58 -8
-63 -31 -6 -232 -23 -369 -31 l-118 -7 0 120 c0 219 -38 481 -103 706 l-33
116 29 -17 c15 -9 66 -45 111 -79z m-543 -33 c-66 -220 -108 -463 -118 -677
l-6 -133 -30 0 c-46 0 -309 20 -333 25 -21 5 -21 6 -8 71 47 225 178 481 327
641 59 63 187 176 193 170 2 -2 -10 -45 -25 -97z m2442 -341 c42 -11 123 -78
110 -90 -8 -7 -296 -100 -298 -96 -1 1 -12 31 -25 66 l-24 64 29 22 c52 42
133 55 208 34z m-4703 -29 c13 -8 13 -10 -2 -10 -9 0 -20 5 -23 10 -8 13 5 13
25 0z m522 -49 c25 -16 48 -33 50 -38 3 -4 -2 -29 -11 -55 l-16 -46 -155 46
c-85 26 -155 52 -155 57 0 6 23 22 50 37 41 23 63 28 121 28 60 0 76 -4 116
-29z m3812 -101 c10 -28 17 -52 15 -54 -8 -6 -289 -74 -289 -69 0 13 36 72 59
96 32 36 70 56 124 67 71 14 72 13 91 -40z m-3526 -35 c49 -15 132 -78 119
-91 -6 -7 -198 35 -210 46 -11 10 10 60 26 60 7 0 36 -7 65 -15z"/>
<path d="M10021 15315 c-38 -32 -56 -110 -46 -198 18 -160 91 -417 164 -572
61 -129 215 -316 378 -458 l78 -69 -170 -171 c-248 -250 -337 -368 -405 -536
-52 -129 -63 -198 -57 -364 7 -213 35 -306 133 -444 24 -34 44 -64 44 -68 0
-3 -11 -21 -24 -38 -38 -49 -83 -153 -107 -242 -29 -113 -38 -330 -15 -407 25
-86 107 -200 236 -328 114 -113 118 -117 340 -242 270 -152 428 -251 575 -363
163 -123 158 -113 83 -172 -147 -116 -453 -307 -788 -491 -91 -50 -192 -105
-225 -124 -32 -18 -94 -67 -136 -108 l-77 -75 -7 -87 c-9 -104 7 -233 34 -287
11 -21 34 -50 51 -64 32 -27 115 -57 158 -57 17 0 67 -39 169 -131 79 -73 140
-135 136 -140 -4 -4 -73 -42 -153 -84 -173 -92 -182 -99 -178 -139 4 -36 26
-49 208 -120 161 -63 199 -72 264 -57 62 14 270 116 371 182 176 115 390 307
507 453 146 183 223 335 275 544 24 94 27 127 27 272 0 137 -4 180 -22 255
-24 94 -52 176 -77 226 -14 27 -14 32 11 81 56 111 102 375 89 513 -8 89 -39
210 -70 280 -13 30 -52 98 -86 151 -51 79 -81 112 -159 176 -108 90 -386 279
-665 453 -104 65 -196 124 -203 130 -21 19 202 171 523 355 310 179 409 246
500 335 80 78 112 135 131 231 22 114 22 288 0 339 -35 81 -143 161 -359 266
l-121 58 160 78 c147 71 165 83 241 157 72 72 82 87 92 134 24 114 6 278 -35
323 -27 29 -111 66 -303 130 -188 63 -244 71 -308 44 -34 -15 -64 -12 -477 40
-243 31 -451 58 -463 60 -26 6 -47 63 -68 189 -21 124 -40 173 -75 191 -41 21
-64 19 -99 -10z m1437 -655 c82 -27 170 -58 195 -69 43 -18 46 -23 53 -66 3
-26 4 -72 0 -103 -10 -90 -61 -132 -327 -264 -241 -120 -441 -232 -573 -320
-128 -85 -449 -340 -533 -423 -63 -63 -69 -67 -50 -32 50 87 308 375 433 481
82 69 403 265 634 386 180 94 200 110 200 158 0 78 -55 140 -199 223 l-79 46
26 16 c40 24 57 22 220 -33z m-738 -61 c107 -11 202 -23 210 -26 8 -3 -73 -23
-180 -44 -106 -21 -195 -37 -195 -36 -1 1 -25 30 -53 65 -29 35 -52 65 -52 68
0 3 17 3 38 0 20 -3 125 -15 232 -27z m-361 -104 c78 -102 224 -250 319 -323
41 -31 69 -58 63 -60 -38 -13 -365 318 -435 440 -26 45 -18 37 53 -57z m599
-255 c-56 -35 -60 -36 -96 -12 l-26 17 59 11 c106 21 117 18 63 -16z m403
-433 c231 -109 339 -181 339 -225 0 -18 -8 -15 -67 24 -64 42 -365 195 -454
231 -39 15 -41 17 -23 30 27 20 54 12 205 -60z m-170 -143 l214 -105 -80 5
c-44 3 -174 10 -290 16 -115 6 -230 13 -255 16 l-44 6 24 19 c20 16 212 148
216 149 1 0 97 -47 215 -106z m489 -353 c-15 -59 -113 -159 -229 -236 -53 -34
-188 -116 -301 -181 -357 -205 -409 -241 -928 -639 l-26 -19 25 44 c30 56 294
323 409 414 122 97 264 189 610 396 287 172 397 245 430 286 14 16 15 16 18
-4 2 -11 -2 -39 -8 -61z m-712 -17 c216 -5 299 -10 286 -17 -15 -9 -856 -86
-941 -87 -32 0 -29 10 19 70 l42 53 145 -6 c81 -4 283 -10 449 -13z m-324
-399 c-55 -40 -46 -37 -226 -75 l-133 -29 -22 26 c-21 26 -38 71 -30 79 5 5
323 31 401 33 l60 1 -50 -35z m-430 -265 c26 -33 44 -65 40 -71 -6 -10 -47 42
-80 104 -22 42 -11 33 40 -33z m448 -402 c70 -46 214 -138 320 -205 385 -243
536 -363 611 -486 l44 -72 -106 106 c-144 145 -228 208 -448 340 -103 62 -277
168 -386 237 -191 120 -197 125 -181 143 9 10 18 19 18 19 1 0 58 -37 128 -82z
m191 -356 c28 -19 27 -19 -130 -25 -87 -4 -230 -7 -317 -7 -140 0 -160 2 -172
18 -7 9 -14 20 -14 25 0 4 136 7 303 7 276 0 304 -2 330 -18z m-284 -427 c371
-231 564 -374 761 -564 l85 -82 -86 68 c-199 157 -362 263 -698 453 -213 120
-276 170 -391 309 l-45 55 60 -40 c33 -22 174 -112 314 -199z m752 119 l24
-26 -25 6 c-14 3 -128 8 -255 11 -126 3 -273 9 -325 13 l-95 7 115 6 c63 3
210 6 326 7 l211 2 24 -26z m166 -304 l122 0 16 -30 c8 -16 15 -38 15 -49 0
-18 -4 -20 -32 -14 -18 4 -139 28 -268 55 l-235 47 130 -4 c72 -3 185 -5 252
-5z m184 -428 c-30 -104 -151 -258 -311 -396 -241 -209 -494 -374 -950 -621
-129 -70 -241 -132 -247 -137 -10 -8 -13 3 -13 50 l0 60 56 47 c31 27 115 79
187 117 153 81 400 224 607 351 261 161 569 408 644 516 16 23 30 41 32 41 1
0 -1 -13 -5 -28z m-32 -602 c15 -70 14 -120 -2 -120 -7 0 -113 -7 -236 -16
-122 -8 -227 -14 -232 -12 -5 2 14 21 43 43 40 30 95 54 218 97 91 31 173 57
182 57 12 1 19 -13 27 -49z m-150 -470 c-23 -33 -56 -77 -74 -97 l-31 -36
-384 57 c-212 31 -386 58 -387 60 -2 1 813 70 895 75 22 1 21 -2 -19 -59z m91
-157 c-63 -112 -125 -189 -259 -323 -203 -202 -404 -344 -611 -431 l-71 -30
-57 16 c-109 32 -111 27 80 132 515 282 729 431 873 607 39 47 72 86 73 86 2
0 -11 -26 -28 -57z m-1341 -43 c50 -20 109 -16 183 15 95 38 114 28 34 -18
-100 -59 -226 -73 -279 -33 -10 8 -21 31 -24 52 l-6 38 29 -20 c16 -11 44 -27
63 -34z m591 -135 c118 -21 219 -41 223 -45 12 -10 -212 -142 -226 -133 -7 4
-63 51 -124 106 -102 90 -135 127 -100 115 6 -3 109 -22 227 -43z"/>
<path d="M7892 12654 c-22 -15 -22 -15 -22 -352 l-1 -337 -464 -268 -465 -267
-286 165 c-157 91 -293 165 -303 165 -41 0 -88 -82 -68 -119 7 -12 127 -88
287 -180 l275 -158 3 -544 2 -544 -272 -157 c-150 -86 -279 -163 -285 -169
-34 -34 6 -129 54 -129 18 0 126 57 298 157 149 86 277 157 286 157 9 1 224
-118 478 -264 l460 -265 1 -336 c0 -278 2 -339 14 -348 8 -7 37 -11 67 -9 45
3 55 7 66 28 9 19 13 111 13 355 l1 330 451 260 c248 143 454 261 457 263 4 1
136 -72 293 -163 158 -91 298 -165 311 -165 25 0 46 18 67 58 27 53 16 61
-297 242 l-298 172 1 526 1 527 285 165 c157 91 293 171 302 179 23 19 20 51
-9 94 -41 59 -6 74 -472 -196 l-181 -105 -454 261 -453 262 -5 343 -5 344 -24
19 c-28 23 -78 25 -109 3z m511 -1103 l457 -263 0 -533 0 -532 -457 -264
c-252 -145 -465 -264 -473 -263 -8 1 -217 118 -465 262 l-450 260 0 537 0 538
455 263 c250 145 460 263 466 261 6 -1 216 -121 467 -266z"/>
<path d="M7800 11545 c-281 -60 -494 -234 -594 -487 -207 -524 175 -1088 739
-1088 458 0 818 380 792 835 -7 117 -25 191 -73 295 -94 204 -278 360 -499
425 -111 33 -267 42 -365 20z m340 -174 c186 -59 336 -207 408 -399 30 -82 41
-239 22 -334 -43 -224 -214 -414 -434 -484 -63 -20 -103 -25 -182 -26 -123 -1
-184 12 -293 64 -158 75 -292 240 -336 413 -19 76 -19 244 0 318 21 80 76 185
134 255 80 97 229 185 356 212 70 15 253 5 325 -19z"/>
<path d="M13415 12259 c-347 -28 -675 -102 -908 -205 -169 -74 -316 -194 -368
-301 -20 -40 -24 -64 -24 -138 0 -78 4 -97 27 -140 56 -105 150 -188 307 -269
88 -45 314 -126 394 -141 30 -6 46 -18 77 -59 57 -75 115 -189 149 -291 47
-142 111 -523 196 -1172 30 -231 38 -270 55 -285 17 -14 40 -16 153 -13 72 2
140 4 150 4 22 0 111 0 135 0 9 0 59 -3 111 -5 107 -6 136 -1 150 25 6 10 33
200 61 422 28 222 60 449 71 504 58 281 198 626 337 833 5 7 58 26 118 42 560
148 811 400 684 687 -28 64 -149 179 -245 235 -208 120 -519 209 -885 253
-160 19 -588 28 -745 14z m-605 -269 c-8 -5 -22 -9 -30 -9 -10 0 -8 3 5 9 27
12 43 12 25 0z m1825 0 c3 -6 -1 -7 -9 -4 -18 7 -21 14 -7 14 6 0 13 -4 16
-10z m-1025 -74 l0 -54 -77 -6 c-43 -4 -90 -9 -104 -11 -23 -3 -27 1 -42 48
-9 28 -14 53 -12 55 2 3 53 8 112 12 59 4 111 8 116 8 4 1 7 -22 7 -52z m398
38 c17 -3 32 -6 32 -8 0 -1 -7 -24 -16 -51 l-17 -48 -75 7 c-41 3 -95 6 -119
6 l-43 0 0 55 0 55 103 -5 c56 -4 117 -8 135 -11z m-783 -75 c9 -28 15 -52 13
-54 -2 -3 -48 -16 -102 -30 l-98 -25 -52 47 -53 48 41 13 c34 10 204 49 228
51 3 1 14 -22 23 -50z m1124 25 c64 -14 119 -29 123 -32 3 -4 -16 -26 -43 -50
l-49 -43 -102 22 c-57 13 -105 24 -107 25 -1 2 5 25 14 53 10 32 22 51 32 51
9 0 68 -12 132 -26z m559 -18 c63 -32 198 -124 190 -130 -1 -2 -35 -6 -73 -9
l-71 -7 -19 36 c-18 34 -74 91 -111 113 -16 9 -17 12 -4 21 19 13 11 15 88
-24z m-2304 15 c3 -5 -14 -25 -39 -46 -25 -20 -57 -56 -71 -81 -22 -37 -30
-43 -47 -38 -12 4 -44 9 -71 13 l-49 6 54 41 c65 50 177 114 201 114 9 0 19
-4 22 -9z m249 -179 c18 -20 18 -21 -34 -71 -29 -28 -56 -50 -59 -49 -3 2 -36
20 -73 42 l-68 38 28 31 c15 16 48 42 72 58 l44 28 36 -28 c20 -16 44 -38 54
-49z m1869 42 c47 -31 86 -71 76 -78 -2 -2 -32 -20 -67 -40 l-63 -37 -42 39
c-23 21 -51 44 -62 51 -18 10 -16 14 31 56 27 25 55 45 61 45 6 0 36 -16 66
-36z m-1112 -134 l0 -70 -74 0 -73 0 -7 50 c-4 28 -9 57 -12 65 -5 11 7 15 53
18 32 2 70 4 86 5 l27 2 0 -70z m297 64 l60 -7 -8 -41 c-20 -94 -12 -86 -88
-86 -100 0 -101 1 -101 76 l0 64 39 0 c21 0 65 -3 98 -6z m289 -35 c32 -6 62
-13 66 -15 4 -3 -9 -31 -29 -62 l-36 -58 -49 9 c-28 6 -48 15 -48 23 0 27 22
114 29 114 4 0 34 -5 67 -11z m-898 -61 c6 -34 10 -63 9 -64 -1 -1 -22 -4 -47
-8 l-45 -6 -37 57 -38 58 48 12 c94 22 97 21 110 -49z m-862 -21 c24 -8 43
-25 59 -53 l24 -41 -74 -20 -74 -20 -39 41 c-43 45 -62 76 -62 102 0 15 8 16
65 10 36 -4 81 -12 101 -19z m2088 -50 c7 -11 2 -22 -20 -41 -33 -29 -43 -30
-101 -13 l-43 13 36 52 35 53 42 -24 c23 -14 46 -32 51 -40z m636 50 c0 -21
-60 -107 -87 -124 -22 -15 -29 -14 -86 2 -34 10 -65 21 -69 24 -4 3 6 27 22
53 32 51 39 54 153 57 50 1 67 -2 67 -12z m-2126 -69 l17 -27 -37 -16 c-34
-14 -39 -14 -70 6 -44 27 -43 52 3 84 l38 25 16 -22 c9 -12 24 -34 33 -50z
m576 -144 c0 -29 -3 -35 -16 -30 -9 3 -36 6 -60 6 -42 0 -44 1 -44 30 l0 30
60 0 60 0 0 -36z m302 6 c-3 -19 -10 -30 -21 -30 -9 0 -40 -3 -68 -6 l-53 -7
0 37 0 36 73 0 74 0 -5 -30z m-582 -4 c0 -9 -7 -12 -21 -9 -16 4 -17 8 -7 14
19 13 28 11 28 -5z m788 2 c-7 -20 -48 -23 -48 -4 0 11 9 16 26 16 16 0 24 -5
22 -12z m-1380 -29 l32 -11 -21 -29 c-11 -16 -27 -29 -35 -29 -26 0 -145 53
-137 61 4 4 28 9 53 12 25 2 52 4 61 5 9 1 30 -3 47 -9z m2110 -8 c18 -5 6
-13 -63 -40 l-86 -34 -25 23 c-32 31 -30 38 9 55 31 13 105 12 165 -4z m-1718
-106 c181 -37 166 -42 -60 -20 -80 8 -152 15 -160 15 -17 1 28 40 45 39 6 0
84 -15 175 -34z m1365 11 l30 -24 -25 -6 c-50 -12 -226 -36 -267 -36 -36 0
-63 13 -51 25 3 4 250 61 273 64 6 0 24 -10 40 -23z m-1168 -52 c-3 -3 -12 -4
-19 -1 -8 3 -5 6 6 6 11 1 17 -2 13 -5z m688 -24 c4 -6 -34 -9 -107 -8 -83 1
-101 3 -68 8 71 11 168 11 175 0z m-665 -307 c0 -10 2 -36 5 -58 5 -38 4 -38
-10 10 -18 60 -18 65 -5 65 6 0 10 -8 10 -17z m690 10 c0 -5 -11 -44 -24 -88
l-24 -80 5 75 c2 41 6 81 9 88 4 13 34 17 34 5z m-430 -88 l0 -85 -39 0 c-43
0 -39 -10 -56 123 l-6 47 50 0 51 0 0 -85z m230 46 c0 -21 -3 -59 -6 -85 -6
-43 -9 -46 -35 -46 l-29 0 0 79 c0 84 2 86 53 90 13 1 17 -7 17 -38z m-230
-471 c0 -143 -3 -180 -13 -180 -10 0 -17 34 -26 128 -6 70 -15 151 -18 180
l-6 52 32 0 31 0 0 -180z m205 153 c-2 -16 -10 -93 -16 -173 -6 -80 -15 -149
-20 -154 -5 -6 -9 63 -9 172 l0 182 25 0 c21 0 24 -4 20 -27z m-208 -590 c-2
-21 -4 -6 -4 32 0 39 2 55 4 38 2 -18 2 -50 0 -70z"/>
<path d="M10538 8235 c-134 -34 -227 -104 -274 -207 -24 -53 -28 -76 -29 -148
0 -77 3 -92 33 -152 49 -100 115 -155 289 -239 79 -38 146 -76 150 -85 15 -40
-63 -55 -164 -34 -27 6 -93 33 -146 59 -147 74 -157 66 -157 -144 0 -163 1
-165 123 -206 169 -56 314 -71 441 -44 192 41 313 156 335 321 26 186 -59 300
-327 437 -83 43 -154 83 -158 88 -3 5 0 17 7 26 11 12 28 14 84 11 75 -5 149
-33 236 -89 97 -62 119 -35 119 141 0 69 -3 135 -6 148 -9 30 -96 74 -205 103
-107 28 -271 34 -351 14z"/>
<path d="M8243 8230 c-12 -5 -26 -18 -32 -29 -8 -13 -11 -199 -11 -568 0 -480
2 -551 16 -571 15 -21 20 -22 203 -22 145 0 191 3 200 13 7 9 12 99 13 263 l3
248 244 -262 245 -262 175 2 175 3 13 25 c10 20 12 145 10 577 -2 515 -3 554
-20 570 -16 16 -38 18 -197 18 -159 0 -181 -2 -197 -18 -16 -16 -19 -45 -23
-260 l-5 -243 -235 252 c-129 139 -245 257 -258 263 -27 13 -287 14 -319 1z"/>
<path d="M9697 8220 l-27 -21 0 -563 c0 -533 1 -564 18 -579 16 -15 45 -17
203 -17 131 0 189 4 197 12 9 9 12 152 12 584 0 519 -2 573 -17 585 -12 10
-61 15 -187 17 -163 3 -173 2 -199 -18z"/>
<path d="M11302 8230 c-12 -5 -27 -21 -32 -35 -16 -42 -13 -1094 3 -1125 l13
-25 440 -3 c401 -2 443 -1 455 14 10 12 15 53 17 133 3 107 2 119 -18 144
l-21 27 -230 0 -229 0 0 65 0 65 210 0 c265 0 250 -9 250 158 0 173 17 162
-246 162 l-214 0 0 50 0 50 220 0 c277 0 260 -11 260 164 0 182 42 166 -454
165 -220 0 -411 -4 -424 -9z"/>
<path d="M12353 8230 c-12 -5 -26 -18 -32 -29 -8 -13 -11 -199 -11 -568 0
-480 2 -551 16 -571 15 -21 20 -22 203 -22 163 0 190 2 202 17 11 12 15 64 17
210 l3 193 24 0 c56 0 110 -78 201 -285 26 -60 52 -116 57 -122 13 -18 408
-18 425 -1 7 7 12 23 12 38 0 34 -159 367 -204 428 l-35 49 35 34 c88 84 118
229 74 358 -45 135 -132 217 -275 259 -59 17 -675 28 -712 12z m547 -335 c24
-22 28 -96 6 -114 -8 -7 -46 -15 -85 -18 l-71 -6 0 83 0 83 65 -6 c43 -3 73
-11 85 -22z"/>
<path d="M16258 18154 c-33 -10 -59 -28 -91 -64 -60 -67 -82 -132 -81 -237 l0
-83 -52 -15 c-85 -25 -134 -103 -134 -213 0 -67 38 -193 75 -249 53 -79 138
-135 226 -149 l39 -7 -58 -66 c-32 -36 -62 -74 -65 -84 -7 -19 37 -141 61
-169 8 -10 27 -18 41 -18 22 0 72 52 301 316 151 174 282 325 292 337 16 21
16 21 73 -26 32 -26 64 -47 71 -47 8 0 14 -10 14 -21 0 -12 21 -47 47 -77 l47
-55 -31 -26 c-16 -14 -150 -138 -297 -275 -296 -277 -277 -249 -255 -373 13
-75 45 -111 83 -91 11 6 154 135 316 286 162 152 306 285 318 296 l24 21 41
-46 c23 -25 49 -49 58 -55 16 -9 327 -388 332 -403 1 -5 -37 -40 -84 -79 l-86
-71 -124 154 c-134 167 -165 191 -228 182 -78 -13 -136 -132 -136 -279 0 -70
3 -80 25 -102 41 -40 92 -38 145 4 l37 30 49 -61 c27 -34 49 -65 49 -68 0 -4
-65 -60 -145 -124 -122 -100 -145 -122 -145 -145 0 -38 29 -153 42 -169 28
-34 58 -14 399 262 186 151 343 276 348 277 5 2 28 -21 51 -49 32 -41 48 -53
70 -53 37 0 46 14 59 84 21 117 37 90 -264 461 -151 187 -282 342 -290 343 -9
2 -35 25 -58 50 -199 220 -311 332 -332 332 -17 0 -24 7 -28 29 -5 22 -45 63
-164 167 -87 76 -168 146 -180 157 -28 24 -72 25 -90 1 -12 -16 -13 -14 -13
17 0 67 -30 141 -74 185 -28 29 -58 47 -95 58 -65 19 -72 19 -133 0z m142
-213 c0 -11 -25 -21 -51 -21 -19 0 -25 11 -12 23 10 10 63 8 63 -2z m153 -154
l-5 -63 55 -51 56 -51 -112 -130 -112 -130 -54 -7 c-159 -22 -318 50 -309 139
2 24 8 32 27 34 45 7 91 -9 157 -53 68 -46 104 -55 121 -32 6 6 18 43 27 81
15 63 16 70 1 93 -9 14 -43 41 -75 61 -60 37 -79 60 -37 45 12 -4 50 -8 83 -8
78 1 138 36 163 96 9 21 17 39 18 39 1 0 0 -28 -4 -63z"/>
<path d="M18302 15938 c-19 -25 -62 -161 -56 -180 3 -10 26 -55 51 -99 25 -44
43 -82 41 -83 -1 -2 -45 -27 -95 -55 -93 -52 -113 -56 -113 -21 0 52 -83 101
-145 86 -37 -9 -95 -66 -133 -129 -39 -65 -202 -550 -194 -579 9 -36 139 -82
166 -59 8 6 33 89 56 184 24 95 46 175 49 179 4 4 30 5 59 1 l52 -6 0 -37 c0
-62 29 -128 80 -180 l47 -48 -137 -76 c-75 -42 -144 -84 -154 -95 -12 -14 -19
-44 -23 -108 -6 -96 2 -116 50 -115 12 0 189 92 392 205 204 113 377 208 385
212 11 4 25 -12 48 -55 32 -57 42 -65 84 -61 16 2 16 -1 -1 -40 -21 -47 -25
-32 42 -196 l25 -62 -114 -45 c-63 -25 -115 -46 -117 -46 -1 0 -2 22 -2 50 0
43 -5 54 -32 82 -26 26 -40 31 -76 31 -91 0 -132 -52 -309 -396 -84 -165 -128
-261 -126 -277 2 -19 16 -32 62 -54 87 -44 93 -39 183 173 40 96 75 176 76
178 2 1 26 -7 54 -18 l50 -22 -9 -46 c-11 -55 -4 -129 17 -193 19 -55 79 -128
106 -128 21 0 168 56 187 72 26 22 14 62 -32 100 -53 45 -96 126 -96 183 l0
42 131 52 c73 28 133 50 134 49 1 -2 26 -63 55 -136 53 -135 72 -159 111 -147
25 8 101 158 92 183 -29 86 -269 671 -281 685 -18 20 -53 22 -70 5 -9 -9 -8 1
3 31 8 24 15 53 15 64 0 23 -481 899 -513 935 -22 24 -59 29 -75 10z m214
-675 c32 -59 60 -110 62 -114 2 -4 -39 -31 -90 -59 l-93 -53 -55 29 c-76 40
-140 105 -140 143 0 27 9 34 118 95 64 36 122 66 128 66 6 0 37 -48 70 -107z"/>
<path d="M19097 15328 c-16 -14 -35 -55 -52 -106 -35 -107 -30 -115 92 -161
117 -43 121 -41 163 84 29 87 30 98 17 118 -12 18 -78 49 -183 84 -6 2 -23 -6
-37 -19z"/>
<path d="M2615 15062 l-80 -27 -192 -430 c-106 -236 -192 -442 -193 -457 0
-17 8 -33 19 -40 18 -11 17 -13 -12 -32 -17 -12 -36 -37 -42 -56 l-12 -35
-109 -6 c-156 -10 -242 -39 -320 -111 -113 -104 -125 -250 -28 -357 52 -58
104 -79 212 -88 39 -3 72 -9 72 -12 0 -3 -43 -174 -94 -380 -97 -384 -102
-421 -59 -421 14 0 12 -5 -9 -27 -24 -26 -29 -46 -57 -243 -17 -118 -33 -233
-35 -255 -56 -625 -60 -673 -47 -689 23 -27 60 -18 120 28 31 24 63 51 70 60
7 8 16 54 20 101 5 47 11 88 14 91 3 4 56 3 116 -1 103 -7 110 -8 101 -25 -27
-51 7 -131 65 -156 40 -17 81 -18 121 -4 16 6 148 101 294 213 302 230 298
225 234 302 -59 70 -68 67 -241 -82 -82 -71 -156 -134 -165 -141 -14 -11 -22
-7 -61 32 -57 57 -104 71 -300 87 l-149 12 7 86 c3 47 8 102 11 121 12 81 21
131 26 135 2 2 179 -20 394 -50 214 -31 399 -53 410 -50 12 2 47 34 78 70 65
73 72 110 26 131 -14 6 -216 37 -450 69 -234 33 -426 60 -428 61 -2 1 2 30 7
65 9 53 8 67 -5 87 -14 22 -14 25 1 42 9 10 22 41 30 70 8 29 15 54 17 55 2 2
68 -12 146 -32 l143 -36 57 20 c31 11 65 23 75 27 12 6 17 4 17 -8 0 -29 38
-92 74 -124 50 -43 107 -57 173 -42 97 21 233 133 282 232 l20 42 47 -100 c53
-112 69 -134 97 -134 31 0 144 67 150 89 4 18 -15 72 -90 247 l-30 70 113 64
c63 35 121 72 130 81 32 36 -12 139 -58 139 -12 0 -89 -37 -172 -82 -83 -46
-153 -84 -157 -86 -4 -2 -10 13 -13 33 -4 20 -10 44 -13 53 -5 14 -3 15 8 5
30 -29 79 -9 79 32 0 27 -18 45 -45 45 -27 0 -45 -18 -45 -44 0 -16 -5 -12
-18 14 -23 46 -50 48 -137 11 -92 -38 -99 -53 -69 -139 18 -52 24 -88 24 -162
0 -52 -4 -110 -10 -129 -13 -47 -48 -81 -81 -81 -48 0 -61 42 -69 215 -8 161
-19 204 -72 282 -40 60 -94 87 -243 124 -71 17 -134 35 -138 39 -10 9 11 116
29 145 6 11 14 32 18 47 3 15 10 38 16 52 l9 24 138 -44 c76 -24 255 -82 397
-128 207 -67 264 -82 281 -74 32 14 125 123 125 146 0 11 -6 24 -12 30 -7 6
-202 72 -433 147 -231 75 -421 138 -422 139 -1 1 7 31 18 66 15 50 18 70 9 88
-9 20 -7 27 13 42 13 10 43 64 67 119 41 95 45 101 77 107 19 4 52 1 74 -5
l39 -12 0 -67 c0 -41 -8 -89 -19 -122 -29 -82 -12 -102 94 -119 152 -23 333
38 419 140 46 55 69 110 74 182 3 37 6 67 8 67 2 0 39 -16 83 -35 43 -19 90
-35 103 -35 12 1 53 23 91 51 56 42 67 54 67 79 0 20 -7 34 -22 44 -13 7 -199
92 -414 187 l-391 173 28 64 c30 71 28 99 -8 113 -13 5 -25 9 -26 9 -1 0 -38
-13 -82 -28z m323 -543 c49 -95 20 -249 -56 -292 -18 -11 -35 -18 -37 -16 -2
3 1 26 7 52 18 88 -20 202 -82 244 -43 28 -128 53 -183 53 l-37 0 15 35 c8 19
22 50 30 69 l15 34 152 -67 c147 -65 154 -70 176 -112z m-896 -705 c8 -8 -62
-217 -76 -227 -13 -8 -82 1 -108 14 -40 21 -61 106 -38 150 13 23 62 50 110
60 45 9 105 11 112 3z m122 -580 c20 -3 38 -9 40 -13 2 -3 -27 -23 -65 -44
-37 -20 -66 -31 -64 -25 2 7 9 33 15 56 8 30 15 42 25 38 7 -2 30 -8 49 -12z
m244 -205 c-4 -85 -11 -88 -137 -58 l-102 24 113 62 c129 71 131 71 126 -28z"/>
<path d="M19118 13934 c-62 -19 -131 -87 -168 -167 -17 -34 -30 -69 -30 -77 0
-8 -4 -22 -10 -30 -7 -11 -16 1 -38 48 -16 34 -35 69 -42 77 -25 30 -60 17
-125 -46 -176 -169 -204 -414 -64 -573 16 -19 26 -36 22 -39 -4 -2 -41 -12
-81 -22 -88 -21 -101 -35 -126 -138 -19 -74 -19 -77 -1 -97 10 -11 24 -20 31
-20 6 0 196 49 420 109 225 60 418 111 428 113 16 2 22 -6 33 -42 14 -48 46
-231 40 -236 -1 -2 -178 -37 -392 -79 -287 -55 -395 -80 -408 -93 -29 -29 -77
-163 -66 -184 22 -40 33 -39 478 48 239 46 435 84 436 84 2 0 9 -32 15 -70 8
-50 18 -74 32 -84 16 -11 18 -18 9 -34 -8 -15 -5 -86 11 -267 16 -194 18 -249
9 -255 -14 -8 -201 -23 -208 -16 -3 2 -13 92 -23 198 -9 107 -22 204 -29 215
-33 62 -102 79 -177 42 -57 -27 -170 -148 -183 -194 -21 -76 25 -125 117 -125
l49 0 7 -76 c4 -42 5 -79 2 -81 -3 -3 -86 -13 -185 -22 -140 -12 -183 -20
-198 -33 -24 -22 -66 -138 -61 -170 7 -47 24 -48 478 -7 234 21 431 36 438 34
7 -3 12 -24 12 -60 0 -46 4 -60 24 -80 33 -32 54 -24 120 45 48 50 56 64 56
97 0 22 -16 219 -35 439 -36 404 -44 444 -80 444 -17 0 -20 16 -5 25 6 3 10
21 10 38 0 25 -53 301 -97 507 -19 88 -106 396 -115 407 -16 20 -59 16 -85 -9
-21 -20 -21 -17 6 33 42 79 56 152 42 220 -23 105 -85 177 -177 205 -56 17
-56 17 -116 -2z m100 -244 c66 -62 -31 -175 -134 -156 -28 6 -34 11 -34 32 0
102 107 181 168 124z m-375 -284 c26 -19 77 -45 113 -56 127 -39 247 -19 332
54 44 39 45 39 19 7 -24 -29 -27 -39 -22 -75 l6 -41 -158 -42 -158 -42 -53 24
c-116 53 -192 146 -192 235 l1 45 32 -36 c18 -20 54 -53 80 -73z"/>
<path d="M6356 4192 c-92 -31 -173 -125 -200 -230 l-11 -42 -82 55 c-45 30
-91 55 -103 55 -11 0 -27 -11 -35 -24 -13 -20 -14 -34 -5 -92 15 -98 15 -98
76 -138 l55 -37 -226 -334 c-124 -184 -225 -344 -225 -355 0 -30 67 -148 91
-161 11 -5 28 -7 39 -4 10 3 124 162 256 358 130 194 240 356 245 361 8 9 48
-16 104 -63 17 -14 142 -87 278 -161 135 -74 247 -139 247 -144 0 -5 -16 -38
-36 -74 l-36 -64 -28 49 c-53 92 -137 151 -256 179 -113 26 -230 -10 -280 -85
-37 -57 -56 -143 -45 -206 37 -204 175 -345 339 -345 l43 0 -40 -74 c-23 -40
-41 -85 -41 -99 0 -15 20 -55 46 -92 38 -54 50 -65 74 -65 20 0 34 8 48 28 10
15 108 188 217 385 l198 357 53 -30 c30 -16 62 -30 72 -30 10 0 22 -4 28 -9 5
-6 83 -40 174 -76 91 -37 168 -70 172 -74 4 -3 3 -12 -1 -20 -7 -11 -26 -7
-100 23 -110 44 -167 47 -232 13 -94 -50 -115 -155 -55 -270 l33 -65 -23 -11
c-32 -14 -62 -65 -70 -117 -13 -86 53 -231 140 -312 56 -52 93 -70 173 -87 60
-13 83 -12 148 0 18 4 20 0 17 -29 -3 -28 3 -42 44 -87 26 -30 57 -60 70 -67
46 -25 63 7 230 423 87 215 158 391 159 392 1 2 29 -8 63 -22 33 -14 68 -22
77 -19 8 4 21 2 28 -4 6 -6 55 -20 107 -32 52 -12 102 -24 111 -26 23 -6 41
-54 37 -100 -5 -57 -29 -67 -155 -60 -97 5 -103 5 -118 -16 -31 -45 -12 -181
40 -296 32 -70 115 -156 184 -189 48 -24 68 -28 144 -28 48 0 87 -1 87 -2 0
-1 -9 -40 -20 -87 -14 -59 -18 -92 -11 -104 5 -9 34 -41 65 -70 61 -58 96 -67
119 -30 8 13 56 208 107 433 52 226 94 411 95 412 2 3 236 -45 241 -49 2 -2
-24 -172 -56 -377 -33 -206 -60 -384 -60 -397 0 -29 125 -144 157 -144 12 0
29 10 37 22 8 13 43 204 81 443 36 231 67 420 68 421 1 1 33 -3 70 -9 76 -12
99 -1 100 46 0 23 -71 138 -93 152 -6 4 -113 24 -238 45 -125 21 -420 84 -657
139 -236 56 -442 102 -457 104 -15 2 -33 9 -40 15 -7 6 -227 97 -488 202 -261
106 -485 197 -497 203 -12 7 -78 44 -148 82 -108 60 -125 73 -121 91 3 11 -1
63 -10 115 -51 320 -165 539 -322 616 -70 34 -191 41 -266 15z m166 -222 c45
-13 126 -84 167 -149 37 -56 85 -184 99 -259 l9 -52 -51 29 c-28 16 -116 65
-196 109 -171 95 -230 144 -230 191 0 99 95 160 202 131z m4 -879 c75 -34 171
-139 147 -161 -19 -17 -80 -30 -142 -30 -78 0 -132 26 -168 79 -30 44 -29 76
2 106 30 31 100 34 161 6z m1326 -294 l36 -15 -88 -219 -88 -218 -61 -28 c-74
-35 -170 -53 -233 -43 -58 9 -112 44 -116 76 -9 61 96 69 196 14 36 -19 74
-34 86 -32 31 4 46 45 46 125 0 70 -1 73 -33 97 -36 27 -115 58 -181 70 -21 4
-49 18 -62 31 -26 26 -32 70 -11 78 6 2 77 -22 156 -54 79 -33 152 -59 161
-59 26 0 46 28 80 115 39 99 38 97 58 86 9 -5 33 -16 54 -24z m927 -271 c29
-8 55 -16 56 -18 2 -2 -13 -75 -33 -163 l-37 -159 -49 -31 c-43 -26 -61 -30
-130 -33 -87 -3 -132 13 -156 57 -10 20 -8 21 33 21 68 0 143 29 186 70 48 46
66 114 58 206 -7 72 -9 71 72 50z"/>
<path d="M14654 4046 c-72 -23 -124 -73 -153 -148 -15 -41 14 -70 104 -102 96
-34 114 -32 140 17 37 72 60 72 254 4 122 -43 124 -45 100 -60 -156 -100 -538
-320 -628 -362 -64 -29 -241 -114 -394 -189 -153 -75 -284 -136 -291 -136 -8
0 -156 -52 -330 -115 -174 -63 -323 -115 -331 -115 -7 0 -208 -52 -446 -116
-241 -65 -441 -113 -453 -110 -12 3 -212 -21 -446 -54 l-425 -59 -490 -6
c-409 -5 -494 -8 -513 -21 -15 -10 -28 -12 -40 -5 -32 17 -373 42 -415 30 -52
-14 -114 -72 -127 -118 -22 -84 21 -163 175 -321 142 -145 185 -206 185 -263
0 -81 -62 -141 -145 -140 -85 1 -175 60 -244 160 -31 45 -55 50 -102 19 -54
-36 -55 -64 -6 -136 108 -158 273 -260 418 -260 118 0 242 86 273 191 20 67
20 111 0 180 -32 108 -72 168 -194 289 -64 63 -125 127 -134 143 l-18 27 28 0
c16 0 98 -7 183 -15 85 -8 165 -12 178 -9 30 8 44 40 31 74 -9 24 -9 24 22 -5
30 -28 36 -30 106 -29 l74 1 0 -147 0 -148 -34 -12 c-50 -16 -71 -45 -70 -94
2 -108 132 -247 234 -250 49 -1 87 32 96 83 4 20 12 39 18 43 6 4 55 8 109 8
l97 0 0 -122 0 -123 -51 -44 c-69 -59 -93 -114 -86 -197 9 -113 95 -225 217
-283 48 -22 68 -26 150 -25 144 0 229 47 197 109 -19 37 -89 120 -107 127 -11
4 -38 -4 -73 -22 -30 -16 -73 -32 -95 -36 -37 -6 -44 -3 -72 24 -43 43 -43
100 1 136 17 14 38 26 47 26 59 2 165 20 177 30 28 23 18 62 -30 110 l-44 45
-7 386 -7 386 104 6 c57 4 216 23 353 43 136 19 249 34 251 32 2 -2 6 -19 10
-39 l7 -36 -94 -12 c-141 -18 -217 -44 -271 -91 -123 -109 -129 -256 -15 -431
74 -115 270 -299 318 -299 29 0 90 64 90 95 0 18 -18 39 -69 79 -117 93 -178
185 -188 281 -5 47 -3 54 26 88 33 37 58 45 183 62 57 7 47 36 88 -265 23
-170 35 -229 48 -241 22 -21 145 -61 173 -57 12 2 27 10 32 19 7 12 -7 138
-50 445 -33 236 -59 431 -57 433 5 6 105 22 136 22 15 0 56 9 92 19 l63 18 39
-147 40 -147 -31 -14 c-72 -35 -72 -112 0 -189 78 -83 191 -128 258 -102 35
14 61 71 53 116 l-6 32 105 28 c58 16 107 26 108 24 2 -2 19 -62 37 -133 19
-72 41 -137 50 -146 22 -22 167 -47 189 -33 9 5 17 23 19 39 1 16 -47 211
-107 434 -60 223 -108 406 -106 408 1 1 40 13 86 26 46 13 91 27 99 30 11 4
21 -7 38 -43 39 -85 141 -137 295 -148 46 -4 77 -10 77 -17 0 -14 -37 -96 -43
-96 -3 0 -22 7 -43 16 -53 22 -127 14 -159 -16 -14 -13 -30 -41 -37 -62 -34
-115 97 -225 244 -203 42 6 47 3 183 -89 77 -53 150 -96 162 -96 13 0 34 16
56 42 68 86 62 98 -103 188 -72 39 -130 75 -128 78 2 4 16 31 31 60 34 65 67
189 67 251 0 105 -44 224 -104 284 l-33 33 61 23 c34 12 158 69 277 127 120
57 221 104 226 104 10 0 93 -167 93 -186 0 -6 -75 -47 -167 -91 -93 -44 -179
-93 -193 -108 -32 -35 -34 -101 -4 -142 49 -67 210 -141 281 -130 73 12 99 72
65 148 l-19 44 71 37 71 36 81 -166 c66 -136 80 -171 73 -190 -15 -38 -10 -88
9 -104 24 -22 156 -63 176 -55 17 7 31 33 41 80 8 38 48 77 79 77 54 0 75 -94
36 -158 -34 -55 -96 -77 -215 -77 -108 1 -163 14 -268 67 -32 16 -68 28 -80
26 -30 -4 -69 -65 -65 -102 4 -39 34 -59 149 -101 144 -51 244 -68 358 -62
203 10 327 92 366 242 31 121 -28 231 -163 299 -62 31 -125 48 -190 50 l-53 1
-163 335 -164 335 82 41 c44 23 179 101 300 173 120 72 219 130 221 129 21
-31 35 -54 35 -60 0 -4 -44 -33 -97 -65 -54 -32 -117 -77 -140 -101 -71 -72
-100 -186 -72 -285 26 -93 160 -206 329 -276 111 -46 229 -77 254 -68 19 8 48
70 48 105 1 34 -12 42 -84 59 -100 23 -201 77 -258 140 -44 48 -50 60 -50 98
0 24 5 56 12 70 12 26 164 129 178 120 4 -2 62 -97 130 -209 67 -113 129 -211
138 -218 19 -16 145 -12 182 5 52 25 44 43 -186 423 -119 197 -218 363 -221
370 -2 6 13 22 34 34 57 35 83 61 83 86 0 28 -12 37 -89 63 -71 23 -116 27
-126 11 -5 -8 -11 -8 -19 -1 -15 12 -381 148 -451 167 -61 17 -127 17 -181 0z
m-963 -1266 c23 -13 59 -81 59 -113 0 -23 -2 -24 -42 -16 -24 4 -46 8 -49 9
-3 0 -18 11 -33 25 -28 26 -35 72 -14 93 15 15 53 16 79 2z m-726 -341 c21
-79 34 -144 29 -149 -5 -4 -53 -19 -106 -33 l-98 -25 -11 41 c-6 23 -23 88
-39 145 -19 72 -24 105 -16 108 21 8 181 52 192 53 6 1 28 -62 49 -140z
m-1925 -268 c0 -65 3 -133 6 -150 l7 -31 -110 0 -110 0 -6 107 c-4 58 -7 126
-7 150 l0 43 110 0 110 0 0 -119z"/>
</g>
</svg>
