<?xml version="1.0" encoding="UTF-8" standalone="no"?>
<svg
   version="1.0"
   width="390.0527pt"
   height="390.0527pt"
   viewBox="0 0 390.0527 390.0527"
   preserveAspectRatio="xMidYMid meet"
   id="svg175"
   sodipodi:docname="niser-logo-blue.svg"
   inkscape:version="1.1 (c68e22c387, 2021-05-23)"
   xmlns:inkscape="http://www.inkscape.org/namespaces/inkscape"
   xmlns:sodipodi="http://sodipodi.sourceforge.net/DTD/sodipodi-0.dtd"
   xmlns="http://www.w3.org/2000/svg"
   xmlns:svg="http://www.w3.org/2000/svg">
  <defs
     id="defs179">
    <linearGradient
       id="linearGradient4139"
       inkscape:swatch="solid">
      <stop
         style="stop-color:#ff0000;stop-opacity:1;"
         offset="0"
         id="stop4137" />
    </linearGradient>
    <linearGradient
       id="linearGradient4083"
       inkscape:swatch="solid">
      <stop
         style="stop-color:#ff0000;stop-opacity:1;"
         offset="0"
         id="stop4081" />
    </linearGradient>
  </defs>
  <sodipodi:namedview
     id="namedview177"
     pagecolor="#ffffff"
     bordercolor="#666666"
     borderopacity="1.0"
     inkscape:pageshadow="2"
     inkscape:pageopacity="0.0"
     inkscape:pagecheckerboard="0"
     inkscape:document-units="pt"
     showgrid="false"
     width="357pt"
     inkscape:zoom="1.396036"
     inkscape:cx="266.11061"
     inkscape:cy="292.97239"
     inkscape:window-width="2304"
     inkscape:window-height="1262"
     inkscape:window-x="-11"
     inkscape:window-y="-11"
     inkscape:window-maximized="1"
     inkscape:current-layer="g173" />
  <g
     transform="matrix(0.1,0,0,-0.1,16.41416,394.70021)"
     fill="#000000"
     stroke="none"
     id="g173">
    <path
       d="m 2056,3871 c -3,-5 1,-14 8,-20 16,-13 32,2 21,19 -8,12 -22,13 -29,1 z"
       id="path95"
       style="fill:#000080" />
    <path
       d="m 1700,3800 c 0,-5 7,-10 15,-10 11,0 15,-13 15,-52 0,-29 4,-58 8,-64 4,-6 31,-26 60,-44 34,-21 51,-38 50,-48 -2,-10 4,-17 12,-17 32,0 12,32 -42,68 l -58,38 v 60 c 0,60 0,60 28,57 23,-2 28,-8 30,-36 2,-22 -3,-41 -14,-53 -15,-17 -15,-19 -1,-25 27,-10 37,5 37,57 0,38 4,49 16,49 9,0 14,6 12,13 -6,15 -168,23 -168,7 z"
       id="path97"
       style="fill:#000080" />
    <path
       d="m 1880,3802 c 0,-14 25,-22 66,-22 56,0 74,-14 64,-50 -5,-16 -6,-30 -3,-30 3,0 -2,-9 -12,-20 -27,-30 -70,-23 -70,10 0,22 4,25 38,24 30,-1 35,1 26,12 -14,17 -61,18 -77,2 -35,-35 11,-97 62,-84 21,5 25,2 28,-19 6,-52 23,-23 31,52 5,51 13,82 23,90 20,15 10,20 -61,28 -33,3 -72,9 -87,11 -16,3 -28,1 -28,-4 z"
       id="path99"
       style="fill:#000080" />
    <path
       d="m 1490,3780 c -15,-9 -11,-12 20,-14 11,-1 18,-23 27,-81 6,-44 12,-81 12,-82 1,-2 7,-3 14,-3 10,0 11,15 1,82 -10,73 -10,84 5,95 14,11 10,12 -24,13 -22,0 -47,-5 -55,-10 z"
       id="path101"
       style="fill:#000080" />
    <path
       d="m 1395,3765 c -39,-13 -39,-17 0,-19 42,-2 21,-76 -22,-76 -11,0 -14,6 -9,25 5,19 1,28 -19,41 -44,29 -84,-9 -50,-46 14,-16 15,-23 6,-34 -7,-8 -10,-24 -6,-34 6,-22 57,-47 79,-39 8,3 22,-3 32,-14 20,-23 29,-19 15,8 -5,10 -12,26 -15,36 -6,19 -48,24 -43,5 4,-19 -32,-21 -40,-2 -11,30 9,45 64,48 l 52,3 6,-38 c 7,-38 20,-57 32,-45 3,3 -4,42 -15,86 -17,68 -18,82 -6,87 16,6 9,23 -9,22 -7,0 -30,-6 -52,-14 z m -55,-54 c 0,-11 -4,-22 -9,-25 -12,-8 -34,21 -26,34 11,17 35,11 35,-9 z"
       id="path103"
       style="fill:#000080" />
    <path
       d="m 2240,3731 c 0,-6 9,-11 19,-11 58,0 72,-44 19,-58 l -33,-9 28,-11 c 29,-12 35,-33 13,-51 -20,-17 -44,-3 -66,38 -14,27 -19,31 -20,16 0,-21 25,-64 44,-77 20,-14 56,-8 67,10 8,13 20,17 36,14 21,-4 23,-8 18,-31 -11,-39 -11,-46 0,-49 5,-2 21,31 34,72 14,43 31,76 38,76 7,0 13,5 13,10 0,11 -30,25 -78,37 -24,6 -26,5 -13,-10 7,-10 20,-17 27,-17 17,0 17,1 3,-39 -8,-22 -17,-31 -34,-31 -34,0 -49,23 -33,49 20,32 -7,75 -50,79 -18,2 -32,-1 -32,-7 z"
       id="path105"
       style="fill:#000080" />
    <path
       d="m 920,3688 c -24,-26 -25,-37 -3,-67 15,-22 15,-25 0,-36 -21,-15 -11,-26 18,-19 17,4 25,-3 44,-43 28,-60 57,-100 67,-91 4,4 -10,39 -30,77 -20,39 -33,76 -30,85 5,12 0,16 -19,16 -27,0 -42,25 -31,53 9,24 58,37 96,27 40,-12 50,-4 14,10 -47,18 -103,12 -126,-12 z"
       id="path107"
       style="fill:#000080" />
    <path
       d="m 1105,3674 c -99,-39 -122,-54 -84,-54 13,0 30,-9 37,-20 8,-13 23,-20 43,-20 36,0 35,-21 -2,-30 -36,-9 -30,-35 8,-36 18,-1 39,-7 47,-13 9,-7 21,-11 28,-8 8,3 2,10 -15,18 -24,11 -27,17 -21,38 10,39 7,61 -12,82 -19,21 -19,21 14,38 21,11 24,9 38,-26 39,-95 54,-123 63,-123 16,0 14,8 -20,88 -24,58 -28,76 -18,88 18,22 -5,17 -106,-22 z m 15,-54 c 9,-16 8,-22 -5,-27 -20,-7 -50,20 -41,36 11,17 34,13 46,-9 z"
       id="path109"
       style="fill:#000080" />
    <path
       d="m 2480,3652 c 0,-5 23,-19 50,-32 28,-13 50,-25 50,-27 0,-2 -7,-15 -16,-28 -15,-23 -18,-24 -44,-10 -42,22 -60,19 -60,-9 0,-27 15,-42 25,-26 7,12 25,13 43,1 11,-6 9,-15 -7,-42 -11,-18 -29,-37 -38,-40 -15,-6 -14,-9 10,-18 34,-13 33,-44 0,-49 -16,-2 -28,6 -43,30 -11,18 -20,41 -20,51 0,10 -4,16 -9,12 -9,-5 -4,-34 14,-78 10,-23 59,-49 79,-41 19,7 30,45 22,71 -9,28 60,167 79,159 8,-3 15,0 15,7 0,7 -29,27 -65,45 -67,33 -85,38 -85,24 z"
       id="path111"
       style="fill:#000080" />
    <path
       d="m 2650,3570 c 0,-5 9,-14 20,-20 23,-13 25,-28 5,-54 -11,-15 -17,-16 -28,-8 -8,7 -17,9 -20,5 -16,-15 -2,-133 15,-133 6,0 8,14 4,35 -8,41 13,57 39,31 9,-9 21,-16 26,-16 14,0 11,-26 -6,-40 -15,-13 -21,-50 -7,-50 4,0 27,32 52,70 25,39 50,68 57,65 7,-2 15,0 18,5 3,6 -32,35 -79,65 -91,58 -96,61 -96,45 z m 104,-75 c 16,-12 18,-19 8,-40 -13,-28 -52,-34 -71,-11 -10,12 -9,20 4,40 20,29 32,32 59,11 z"
       id="path113"
       style="fill:#000080" />
    <path
       d="m 2842,3538 c 7,-19 38,-22 38,-4 0,10 -9,16 -21,16 -12,0 -19,-5 -17,-12 z"
       id="path115"
       style="fill:#000080" />
    <path
       d="m 727,3462 c -37,-27 -64,-52 -60,-55 3,-4 -1,-7 -9,-7 -20,0 -227,-199 -208,-200 9,0 34,18 55,40 39,40 65,51 65,28 0,-7 -17,-30 -37,-51 l -38,-39 32,7 c 18,3 42,4 53,0 26,-8 26,-41 0,-48 -42,-11 -18,-25 40,-23 33,0 60,4 60,9 0,4 -11,7 -25,7 -18,0 -25,5 -25,19 0,27 -27,51 -57,51 -25,0 -26,0 -8,20 10,11 21,20 24,20 4,0 26,-18 50,-40 68,-63 70,-34 2,34 -34,34 -61,67 -61,73 0,11 37,43 50,43 4,0 28,-27 56,-60 42,-52 74,-75 74,-54 0,4 -25,35 -55,69 -30,35 -55,66 -55,69 0,8 108,86 119,86 6,0 15,-10 22,-22 10,-19 7,-25 -27,-53 l -38,-32 23,-12 c 29,-16 51,-8 44,17 -9,35 28,37 57,2 25,-30 40,-38 40,-21 0,5 -21,36 -46,70 -33,44 -44,66 -39,81 9,30 -4,25 -78,-28 z"
       id="path117"
       style="fill:#000080" />
    <path
       d="M 1635,3473 C 1382,3442 1175,3366 960,3223 827,3134 676,2989 588,2865 230,2360 220,1709 561,1190 647,1059 831,876 968,786 1415,492 1968,452 2438,682 c 437,213 736,612 818,1088 20,120 15,426 -10,537 -140,620 -648,1087 -1266,1163 -79,9 -278,12 -345,3 z m 421,-44 c 312,-60 554,-188 778,-413 290,-292 446,-722 408,-1128 C 3183,1266 2751,757 2153,606 1449,428 724,792 446,1462 c -78,190 -111,384 -103,602 15,370 157,697 416,957 213,212 470,352 741,402 47,9 94,18 105,20 11,3 93,5 182,6 126,1 186,-4 269,-20 z"
       id="path119"
       style="fill:#000080" />
    <path
       d="M 1695,3423 C 1325,3393 1005,3242 758,2982 577,2791 455,2563 398,2308 c -20,-89 -23,-130 -23,-303 0,-155 4,-218 18,-283 123,-561 545,-979 1117,-1107 114,-25 382,-31 500,-11 209,36 404,113 586,231 118,77 300,259 382,383 108,162 181,338 219,527 27,134 24,414 -5,552 -78,362 -302,690 -607,889 -216,140 -423,212 -675,234 -113,10 -135,10 -215,3 z m 57,-78 c 5,-33 10,-76 12,-95 2,-20 6,-46 10,-57 16,-50 -124,-211 -246,-285 -143,-85 -332,-118 -472,-81 -38,10 -71,23 -72,28 -2,6 16,24 38,40 23,17 55,55 72,85 27,48 31,65 31,130 0,74 1,76 30,90 17,8 34,25 40,38 5,12 15,22 21,22 10,0 42,14 116,51 10,5 27,5 40,0 13,-5 33,-5 47,0 20,8 29,3 63,-36 67,-76 172,-117 255,-99 35,7 31,8 -42,14 -96,8 -148,32 -199,91 l -36,42 29,18 c 16,10 33,25 38,34 6,9 27,19 50,22 39,5 39,5 58,-43 18,-48 93,-134 117,-134 7,0 -7,19 -31,43 -45,43 -87,119 -76,138 4,5 28,9 53,7 l 47,-3 z m 83,18 c -10,-72 -26,-133 -35,-133 -12,0 -28,55 -36,123 l -6,57 h 42 42 z m 114,38 c 13,-8 12,-16 -5,-53 -29,-66 -144,-173 -119,-110 4,9 12,46 17,82 6,36 12,71 14,78 4,14 72,16 93,3 z m 146,-48 c 34,-34 35,-37 21,-59 -22,-33 -76,-71 -125,-89 -48,-16 -147,-20 -155,-6 -3,5 10,18 28,29 41,24 90,88 106,138 12,34 13,35 51,29 25,-4 51,-19 74,-42 z m -595,12 c -14,-16 -50,-21 -50,-6 0,11 18,19 44,20 15,1 16,-2 6,-14 z m 648,0 c 2,-2 1,-8 -2,-14 -8,-12 -56,7 -56,22 0,8 49,1 58,-8 z m -720,-22 c -2,-12 -13,-18 -32,-18 -33,0 -47,21 -19,28 39,10 54,7 51,-10 z m 805,0 c 15,-9 -5,-23 -33,-23 -30,0 -45,13 -35,30 6,9 47,5 68,-7 z m -903,-23 c 0,-5 -7,-10 -15,-10 -8,0 -15,5 -15,10 0,6 7,10 15,10 8,0 15,-4 15,-10 z m 960,0 c 0,-5 -4,-10 -10,-10 -5,0 -10,5 -10,10 0,6 5,10 10,10 6,0 10,-4 10,-10 z m -108,-11 c 14,-8 27,-8 44,-1 17,8 25,7 34,-4 7,-8 20,-14 29,-14 9,0 29,-7 45,-15 15,-8 35,-15 42,-15 8,0 14,-5 14,-12 0,-19 42,-58 63,-58 17,0 19,-5 13,-45 -5,-30 -2,-65 10,-107 15,-54 27,-72 80,-124 l 62,-62 -57,-16 c -82,-23 -238,-21 -326,4 -120,34 -212,87 -295,170 -64,63 -138,166 -127,176 1,2 21,-2 44,-7 81,-21 209,29 270,106 32,40 28,38 55,24 z m -902,-9 c 0,-5 -4,-10 -10,-10 -5,0 -10,5 -10,10 0,6 5,10 10,10 6,0 10,-4 10,-10 z m 1060,0 c 0,-5 -4,-10 -9,-10 -6,0 -13,5 -16,10 -3,6 1,10 9,10 9,0 16,-4 16,-10 z m -1109,-23 c -13,-13 -26,-3 -16,12 3,6 11,8 17,5 6,-4 6,-10 -1,-17 z m 1149,3 c 0,-5 -4,-10 -10,-10 -5,0 -10,5 -10,10 0,6 5,10 10,10 6,0 10,-4 10,-10 z m -1200,-29 c 0,-22 -17,-38 -45,-43 -32,-5 -30,28 2,46 37,20 43,20 43,-3 z m 1275,-2 c 33,-20 35,-23 21,-37 -13,-13 -18,-13 -40,2 -14,9 -26,25 -26,36 0,25 1,25 45,-1 z m -1362,-36 c 11,-10 -13,-33 -34,-33 -24,0 -25,16 -1,29 20,12 27,13 35,4 z m 1440,-7 c 23,-18 21,-28 -5,-24 -13,2 -24,11 -26,21 -4,20 6,21 31,3 z m -1425,-86 c 4,-73 -21,-141 -73,-195 -25,-25 -48,-45 -52,-45 -4,0 -8,39 -8,87 0,55 -6,99 -15,118 -19,41 -19,42 19,68 24,17 46,22 80,21 l 46,-2 z m 1508,28 c 24,-17 43,-34 41,-37 -29,-52 -41,-95 -41,-158 0,-40 -4,-73 -7,-73 -4,0 -27,22 -51,49 -50,56 -81,136 -76,198 3,35 5,38 35,38 18,1 35,4 39,8 11,10 12,10 60,-25 z m -782,-37 c 78,-127 245,-246 406,-288 83,-22 264,-22 333,0 26,8 47,12 47,9 0,-4 -7,-29 -16,-57 -22,-69 -22,-231 -1,-315 40,-154 149,-312 274,-396 32,-21 62,-41 66,-45 5,-4 -16,-21 -46,-38 -31,-17 -81,-57 -112,-87 -166,-164 -240,-407 -190,-623 9,-35 14,-65 12,-67 -1,-2 -25,3 -52,11 -57,18 -221,20 -297,4 -77,-16 -224,-89 -292,-145 -52,-42 -129,-133 -161,-188 -8,-15 -16,-8 -53,48 -77,118 -204,212 -359,267 -82,30 -265,37 -351,15 -35,-9 -65,-16 -67,-16 -2,0 3,19 12,43 24,67 29,224 8,310 -39,166 -150,329 -285,416 -31,20 -58,39 -60,43 -3,4 22,24 55,46 155,101 251,248 291,445 19,90 15,199 -10,280 -8,26 -10,47 -6,47 5,0 35,-7 67,-15 75,-20 210,-19 292,1 184,46 359,173 436,317 11,20 20,37 21,37 1,0 18,-27 38,-59 z m -895,-20 c 19,-34 30,-104 24,-153 -3,-26 -9,-48 -12,-48 -3,0 -16,20 -29,44 -13,24 -36,59 -52,77 l -28,34 37,32 c 42,38 47,39 60,14 z m 1781,-26 33,-34 -36,-40 c -20,-22 -43,-54 -52,-70 -27,-53 -38,-38 -33,42 4,67 28,137 46,137 5,0 23,-16 42,-35 z M 890,2954 c 28,-42 48,-79 46,-82 -7,-6 -82,40 -126,77 l -35,29 24,26 c 14,14 28,26 32,26 4,0 31,-34 59,-76 z m 1902,49 c 24,-21 23,-31 -4,-54 -41,-34 -119,-82 -125,-76 -10,11 86,147 105,147 3,0 14,-7 24,-17 z M 870,2888 c 22,-13 40,-26 40,-30 0,-12 -68,-21 -107,-13 -48,9 -103,31 -103,42 0,5 14,25 31,46 l 31,37 34,-29 c 19,-17 52,-41 74,-53 z m 1995,35 c 27,-33 28,-36 11,-49 -27,-20 -112,-35 -157,-28 -46,8 -49,17 -11,33 15,7 47,27 72,46 25,18 47,34 50,34 3,0 18,-16 35,-36 z M 735,2849 c 38,-17 62,-20 121,-17 41,2 74,1 74,-3 0,-3 -22,-27 -49,-52 -53,-50 -123,-77 -197,-77 -46,0 -58,8 -44,29 4,8 4,26 -2,42 -8,22 -5,34 14,63 13,20 26,36 29,36 4,0 28,-9 54,-21 z m 2200,-15 c 22,-28 28,-48 29,-90 1,-45 -2,-54 -19,-58 -72,-20 -171,17 -243,91 -55,55 -61,80 -16,63 39,-15 114,-11 164,10 25,10 48,18 51,19 4,1 19,-15 34,-35 z M 972,2778 c 7,-31 13,-102 12,-168 0,-98 -4,-127 -28,-195 -36,-105 -76,-173 -145,-247 -49,-54 -160,-138 -181,-138 -4,0 -5,29 -3,64 8,91 -16,155 -83,224 -44,46 -51,58 -44,77 6,15 4,31 -5,48 -11,22 -11,28 1,38 8,7 13,17 11,23 -2,6 5,26 15,44 10,18 18,38 18,45 0,7 15,17 33,22 24,8 34,18 42,42 8,31 11,32 45,27 83,-13 218,46 265,116 11,16 23,30 27,30 3,0 12,-24 20,-52 z m 1692,17 c 52,-79 126,-118 230,-122 71,-2 80,-4 90,-25 6,-13 24,-29 38,-36 19,-9 29,-23 34,-47 3,-19 12,-39 20,-46 8,-6 12,-15 9,-19 -3,-5 -1,-12 5,-15 6,-4 8,-25 4,-54 -4,-33 -2,-51 5,-56 8,-4 -5,-23 -37,-54 -28,-26 -57,-62 -66,-79 -25,-48 -37,-128 -27,-173 11,-50 2,-50 -69,-2 -128,85 -237,236 -276,383 -9,36 -17,105 -18,155 -1,88 19,215 34,215 4,0 15,-11 24,-25 z M 625,2731 c -6,-21 -29,-28 -39,-13 -3,5 2,19 11,31 18,27 39,14 28,-18 z m 2375,4 c 16,-29 7,-43 -15,-25 -16,13 -21,50 -7,50 5,0 15,-11 22,-25 z M 605,2690 c 14,-23 -42,-79 -65,-65 -15,9 21,75 41,75 10,0 21,-4 24,-10 z m 2439,-31 c 10,-17 16,-33 13,-36 -11,-10 -49,10 -56,30 -18,46 16,51 43,6 z M 530,2590 c 0,-5 -4,-10 -10,-10 -5,0 -10,5 -10,10 0,6 5,10 10,10 6,0 10,-4 10,-10 z m 2550,-11 c 0,-5 -4,-9 -10,-9 -5,0 -10,7 -10,16 0,8 5,12 10,9 6,-3 10,-10 10,-16 z M 510,2551 c 0,-6 -4,-13 -10,-16 -5,-3 -10,1 -10,9 0,9 5,16 10,16 6,0 10,-4 10,-9 z m 2590,-11 c 0,-5 -4,-10 -10,-10 -5,0 -10,5 -10,10 0,6 5,10 10,10 6,0 10,-4 10,-10 z M 490,2500 c 0,-5 -4,-10 -10,-10 -5,0 -10,5 -10,10 0,6 5,10 10,10 6,0 10,-4 10,-10 z m 2630,-11 c 0,-5 -4,-9 -10,-9 -5,0 -10,7 -10,16 0,8 5,12 10,9 6,-3 10,-10 10,-16 z M 480,2440 c 13,-25 4,-60 -16,-60 -21,0 -27,22 -15,53 13,32 17,33 31,7 z m 2666,-57 c -4,-8 -11,-13 -18,-11 -18,6 -26,41 -16,68 l 10,25 15,-34 c 8,-18 12,-40 9,-48 z M 460,2352 c 0,-23 -24,-56 -37,-51 -15,6 5,69 22,69 8,0 15,-8 15,-18 z m 2704,-8 c 9,-23 7,-44 -4,-44 -13,0 -32,38 -25,50 9,15 22,12 29,-6 z M 532,2313 c 63,-67 85,-129 80,-231 l -2,-33 -53,54 c -37,38 -69,61 -105,73 -47,17 -52,22 -52,49 0,35 6,45 42,67 14,10 29,27 33,38 9,28 16,26 57,-17 z m 2588,13 c 0,-8 13,-25 29,-38 19,-14 32,-36 36,-59 6,-34 5,-37 -27,-48 -49,-17 -105,-59 -137,-103 -23,-30 -30,-35 -35,-23 -23,61 13,179 74,243 42,44 60,52 60,28 z M 489,2140 c 38,-19 99,-85 89,-95 -3,-3 -18,0 -35,5 -16,6 -59,14 -94,18 l -64,7 4,45 c 1,25 5,48 7,52 5,8 35,-2 93,-32 z m 2711,-19 v -49 l -73,-10 c -41,-6 -81,-14 -90,-18 -27,-10 -20,9 20,49 39,41 97,76 126,77 14,0 17,-9 17,-49 z M 511,2043 c 39,-9 68,-21 66,-27 -6,-17 -76,-34 -139,-35 l -58,-1 v 33 c 0,19 3,37 7,40 11,11 51,8 124,-10 z m 2689,-33 c 0,-36 -2,-40 -26,-40 -44,0 -165,33 -161,44 5,14 82,34 140,35 l 47,1 z m -225,-92 c 0,-69 5,-102 18,-129 20,-39 72,-100 99,-115 16,-8 16,-14 6,-42 -10,-26 -10,-37 0,-52 8,-13 9,-26 3,-37 -36,-72 -51,-107 -51,-117 0,-6 -13,-17 -30,-23 -17,-6 -32,-21 -35,-35 -6,-22 -10,-24 -83,-23 -64,0 -86,-5 -134,-28 -52,-26 -108,-76 -121,-109 -9,-23 -25,11 -38,83 -38,215 36,446 192,595 46,44 152,122 169,123 3,1 5,-41 5,-91 z m -2277,43 c 120,-81 218,-214 268,-361 24,-70 26,-291 4,-358 l -15,-42 -35,47 c -25,34 -54,58 -100,81 -58,30 -72,33 -134,30 -64,-3 -69,-1 -77,20 -5,13 -22,29 -38,35 -16,6 -34,20 -39,31 -38,80 -49,112 -43,121 17,22 19,44 6,68 -12,23 -10,27 31,61 24,20 56,58 71,84 25,42 28,57 28,134 0,49 4,88 8,88 4,0 34,-17 65,-39 z m -127,12 c -24,-45 -120,-113 -158,-113 -18,0 -23,6 -23,28 0,15 -3,37 -6,48 -5,20 0,22 63,29 37,4 77,11 88,15 34,15 47,12 36,-7 z m 44,-83 c -7,-61 -48,-142 -91,-180 l -35,-31 -27,29 c -15,16 -33,31 -40,33 -8,3 -17,24 -22,47 l -7,43 61,28 c 41,18 76,44 106,78 l 45,50 8,-26 c 4,-14 5,-46 2,-71 z m 2432,89 c 15,-6 55,-14 88,-17 l 60,-7 3,-44 c 5,-67 -1,-74 -44,-56 -49,20 -105,66 -127,104 -20,35 -20,35 20,20 z m 30,-96 c 15,-11 48,-30 71,-42 43,-22 44,-24 37,-59 -4,-20 -11,-39 -17,-41 -15,-5 -45,-36 -50,-52 -7,-19 -83,53 -108,101 -22,44 -34,118 -25,159 l 7,32 28,-39 c 16,-22 41,-48 57,-59 z M 450,1700 c 6,-11 8,-25 5,-30 -9,-15 -35,-12 -35,4 0,8 -3,21 -6,30 -9,24 23,20 36,-4 z m 2720,3 c 0,-28 -17,-50 -29,-38 -8,8 -6,18 5,33 18,27 24,28 24,5 z M 481,1626 c 11,-23 -1,-66 -19,-66 -9,0 -32,72 -26,82 10,16 35,7 45,-16 z m 2664,-13 c -8,-48 -21,-61 -30,-33 -10,30 2,70 21,70 13,0 15,-7 9,-37 z M 477,1518 c -3,-8 -6,-5 -6,6 -1,11 2,17 5,13 3,-3 4,-12 1,-19 z m 2639,-5 c -10,-10 -19,5 -10,18 6,11 8,11 12,0 2,-7 1,-15 -2,-18 z M 500,1474 c 0,-8 -4,-12 -10,-9 -5,3 -10,10 -10,16 0,5 5,9 10,9 6,0 10,-7 10,-16 z m 2600,6 c 0,-5 -5,-10 -11,-10 -5,0 -7,5 -4,10 3,6 8,10 11,10 2,0 4,-4 4,-10 z M 520,1429 c 0,-6 -4,-7 -10,-4 -5,3 -10,11 -10,16 0,6 5,7 10,4 6,-3 10,-11 10,-16 z m 2556,-6 c -10,-10 -19,5 -10,18 6,11 8,11 12,0 2,-7 1,-15 -2,-18 z M 585,1380 c 15,-16 15,-22 5,-35 -20,-24 -35,-18 -53,20 -17,35 -17,35 7,35 12,0 31,-9 41,-20 z m 2458,-25 c -18,-38 -21,-39 -42,-26 -12,8 -12,13 3,35 9,14 25,26 36,26 19,0 19,-1 3,-35 z M 793,1324 c 42,-14 137,-92 137,-113 0,-3 -35,-7 -77,-6 -65,0 -86,-5 -129,-27 l -52,-27 -26,39 c -22,34 -24,43 -14,65 8,18 8,31 0,49 -6,13 -8,27 -5,30 12,12 121,6 166,-10 z m 2170,-1 c 3,-5 1,-17 -3,-28 -4,-11 -3,-31 1,-43 7,-19 3,-31 -21,-62 l -31,-39 -32,19 c -48,29 -126,43 -175,32 -23,-6 -42,-7 -42,-3 1,8 49,62 77,85 12,10 39,24 60,32 41,14 159,19 166,7 z M 618,1297 c 2,-10 1,-26 -3,-35 -5,-13 -9,-11 -25,13 -26,39 -25,47 2,43 13,-2 24,-11 26,-21 z m 2392,4 c 0,-5 -9,-19 -20,-32 -15,-19 -19,-21 -20,-7 0,27 11,48 26,48 8,0 14,-4 14,-9 z m -1692,-97 c 139,-28 292,-116 373,-216 35,-42 89,-123 89,-132 0,-3 -22,-2 -49,1 -97,11 -216,-43 -269,-121 -22,-32 -26,-34 -49,-23 -17,8 -32,8 -52,1 -26,-10 -32,-9 -78,14 -29,15 -40,15 -25,0 7,-7 12,-16 12,-21 0,-13 -79,74 -85,94 -3,9 -17,21 -31,28 -24,11 -25,14 -19,61 13,93 -36,202 -117,260 l -40,30 28,11 c 79,30 202,36 312,13 z m 1245,-5 c 26,-7 47,-16 47,-20 0,-4 -10,-13 -22,-22 -83,-54 -131,-145 -130,-247 1,-62 -1,-68 -24,-79 -13,-6 -29,-22 -34,-35 -12,-33 -99,-80 -140,-76 -8,1 -33,2 -55,3 -33,2 -48,10 -84,46 -23,23 -68,54 -98,68 -47,22 -66,25 -134,21 -43,-2 -79,-1 -79,2 0,3 12,23 27,45 116,173 240,255 468,309 36,9 209,-1 258,-15 z M 915,1181 c 3,-5 -4,-13 -15,-16 -12,-4 -50,-28 -85,-55 l -63,-48 -31,32 c -17,18 -31,37 -31,43 0,21 93,52 157,53 34,0 64,-4 68,-9 z m 1907,-1 c 20,-6 46,-18 57,-28 l 21,-17 -33,-39 -33,-39 -56,46 c -31,25 -66,48 -77,52 -12,3 -21,13 -21,21 0,17 85,19 142,4 z M 916,1118 c -14,-25 -41,-62 -60,-84 -28,-32 -37,-37 -52,-28 -40,24 -41,44 -4,76 38,33 132,89 138,83 2,-2 -8,-23 -22,-47 z m 1861,-33 45,-37 -28,-29 c -26,-27 -29,-28 -46,-12 -26,23 -98,135 -98,151 0,16 65,-21 127,-73 z m -1756,46 c 19,-16 48,-53 64,-82 25,-46 30,-65 30,-126 0,-39 -3,-74 -6,-78 -4,-3 -18,-1 -31,6 -19,8 -31,8 -47,0 -18,-10 -28,-8 -61,16 -22,15 -40,32 -40,36 0,4 10,27 22,50 18,34 23,59 23,125 0,45 2,82 5,82 3,0 21,-13 41,-29 z m 1591,-49 c -4,-66 -1,-86 19,-132 l 23,-54 -28,-20 c -39,-30 -142,-30 -150,-1 -20,71 11,162 78,231 29,30 55,54 57,54 3,0 4,-35 1,-78 z M 958,1068 c -4,-73 -30,-148 -51,-148 -6,0 -26,14 -44,32 l -32,31 41,46 c 22,25 47,61 56,79 25,51 35,38 30,-40 z m 1705,27 c 9,-19 32,-52 52,-73 19,-22 35,-42 35,-45 0,-3 -18,-19 -40,-37 l -39,-31 -19,38 c -19,37 -26,83 -23,151 1,41 13,41 34,-3 z M 2022,822 c 45,-19 118,-86 118,-106 0,-6 -14,-19 -30,-28 -17,-9 -30,-24 -30,-32 0,-20 -31,-36 -69,-36 -27,0 -31,5 -41,38 -13,51 -61,116 -105,144 -19,13 -35,26 -35,30 0,24 130,18 192,-10 z m 522,22 c 23,-9 20,-19 -11,-33 -35,-16 -58,3 -29,25 23,16 20,16 40,8 z M 1087,829 c 6,-6 9,-18 6,-25 -4,-11 -10,-11 -34,3 -16,10 -29,21 -29,25 0,12 45,9 57,-3 z m 673,2 c 0,-5 -11,-16 -24,-25 -38,-24 -78,-82 -97,-139 -10,-29 -22,-52 -28,-51 -6,1 -24,2 -39,3 -19,0 -43,15 -71,42 l -42,41 22,33 c 25,36 76,74 123,92 37,14 156,17 156,4 z m -598,-28 c 21,-19 24,-53 5,-53 -10,0 -42,17 -66,36 -6,6 21,34 32,34 6,0 19,-7 29,-17 z m 1322,1 c 8,-20 10,-17 -31,-38 -40,-20 -43,-20 -43,0 0,46 59,76 74,38 z m -729,-49 c -8,-26 -15,-67 -15,-89 0,-56 -8,-63 -57,-58 -41,4 -43,6 -37,31 12,46 46,105 82,139 19,18 36,31 38,29 2,-1 -3,-25 -11,-52 z m 72,-82 6,-73 h -37 c -23,0 -39,5 -42,15 -7,17 12,133 28,173 l 10,27 15,-35 c 8,-19 17,-67 20,-107 z m 53,96 c 41,-40 79,-108 80,-141 0,-15 -9,-18 -45,-18 -25,0 -48,0 -52,0 -5,-1 -13,30 -19,67 -6,37 -14,83 -18,101 -10,43 2,41 54,-9 z m 510,-29 c 0,-5 -4,-10 -10,-10 -5,0 -10,5 -10,10 0,6 5,10 10,10 6,0 10,-4 10,-10 z m -40,-20 c 0,-5 -4,-10 -10,-10 -5,0 -10,5 -10,10 0,6 5,10 10,10 6,0 10,-4 10,-10 z m -109,-10 c 27,-15 24,-26 -13,-39 -26,-9 -35,-9 -47,4 -15,15 -14,18 3,31 24,17 31,17 57,4 z m -926,-10 c 3,-5 -1,-10 -9,-10 -9,0 -16,5 -16,10 0,6 4,10 9,10 6,0 13,-4 16,-10 z m 101,-4 c 27,-21 6,-40 -35,-31 -40,9 -48,23 -19,34 31,13 31,13 54,-3 z m 889,4 c -3,-5 -10,-10 -16,-10 -5,0 -9,5 -9,10 0,6 7,10 16,10 8,0 12,-4 9,-10 z m -141,-25 c 7,-18 -26,-37 -57,-33 l -22,3 23,23 c 25,25 47,28 56,7 z m -666,-34 c 3,-10 -2,-11 -19,-6 -32,10 -43,21 -34,35 8,13 46,-8 53,-29 z"
       id="path121"
       style="fill:#000080" />
    <path
       d="m 1650,2857 c 0,-55 32,-130 76,-177 l 45,-48 -47,-49 c -81,-83 -99,-159 -56,-235 12,-21 13,-30 3,-41 -6,-8 -14,-38 -18,-66 -5,-44 -2,-55 19,-83 14,-18 67,-58 118,-88 136,-82 136,-80 54,-133 -38,-24 -93,-57 -123,-73 -29,-16 -58,-38 -64,-51 -15,-33 -1,-69 32,-83 37,-15 81,-61 64,-67 -7,-3 -22,-12 -34,-22 -21,-17 -21,-17 19,-30 38,-13 43,-12 84,12 73,43 126,95 154,152 23,49 26,62 20,118 -9,78 -9,89 0,159 10,85 -16,123 -133,199 -51,33 -93,62 -93,65 0,11 47,45 117,84 82,46 113,80 113,125 0,35 -16,53 -69,80 l -33,17 48,31 c 43,28 49,36 49,67 0,33 -3,36 -48,51 -47,16 -112,14 -101,-2 3,-5 -12,-10 -33,-11 -35,-1 -34,-2 12,-8 52,-6 49,-10 -25,-28 -41,-10 -47,-9 -64,11 -18,22 -18,22 10,28 l 29,7 -32,1 c -17,0 -35,6 -38,11 -5,7 16,9 62,6 l 68,-5 -75,12 -75,12 -9,38 c -11,41 -26,50 -26,14 z m 108,-165 c 46,-46 51,-68 7,-34 -38,30 -85,92 -84,111 0,11 5,9 17,-9 9,-14 36,-44 60,-68 z m 197,64 c 39,-17 46,-44 18,-68 -10,-8 -55,-36 -101,-61 -106,-59 -189,-130 -201,-171 -9,-30 -9,-30 -10,-5 -1,27 32,84 77,132 15,15 63,49 107,74 44,25 82,48 85,50 3,3 -7,14 -23,25 -15,11 -27,24 -27,29 0,13 36,11 75,-5 z m -55,-36 c 0,-5 -7,-10 -15,-10 -8,0 -15,-6 -15,-13 0,-19 -50,-41 -63,-28 -6,6 2,13 24,20 32,10 32,11 -13,6 -57,-5 -65,11 -10,20 20,4 42,8 47,10 21,7 45,5 45,-5 z m 29,-129 c 52,-27 64,-44 56,-80 -7,-33 -47,-71 -104,-101 -21,-10 -75,-46 -120,-80 -46,-34 -85,-59 -88,-56 -19,19 120,142 217,191 52,26 85,59 75,74 -3,6 -28,21 -56,32 -48,21 -64,39 -34,39 9,0 33,-9 54,-19 z m -42,-23 c 29,-12 53,-25 53,-30 0,-4 -17,-9 -37,-9 l -38,-2 40,-7 c 29,-5 12,-8 -63,-9 -67,0 -101,3 -97,9 3,6 32,11 63,12 l 57,1 -50,6 -50,6 30,22 c 17,12 32,23 35,23 2,0 28,-10 57,-22 z m -54,-68 c 103,0 93,-20 -15,-30 -63,-6 -66,-7 -23,-9 29,0 45,-5 40,-10 -13,-11 -145,-20 -145,-9 0,4 10,9 23,9 l 22,2 -22,4 c -13,2 -23,7 -23,10 0,15 35,43 48,38 7,-3 50,-5 95,-5 z m -40,-81 c -20,-20 -87,-38 -100,-27 -29,24 -9,35 67,37 31,1 41,-2 33,-10 z m -104,-44 c 13,-7 15,-35 3,-35 -11,0 -32,46 -31,68 0,13 2,12 9,-4 5,-12 13,-25 19,-29 z m 135,-114 c 98,-63 128,-88 143,-114 23,-41 13,-41 -29,0 -24,23 -74,60 -113,83 -86,52 -96,60 -89,71 8,13 7,13 88,-40 z m -94,9 c 0,-5 -4,-10 -9,-10 -6,0 -13,5 -16,10 -3,6 1,10 9,10 9,0 16,-4 16,-10 z m 39,-25 c 2,-3 -17,-5 -43,-5 -27,0 -45,4 -41,10 5,9 74,5 84,-5 z m 57,-30 c 17,-14 12,-15 -60,-12 -53,1 -81,6 -84,15 -6,18 119,16 144,-3 z m -55,-85 c 121,-80 166,-117 157,-125 -6,-7 -161,89 -221,135 -24,19 -54,60 -44,60 2,0 51,-31 108,-70 z m -16,50 c 3,-5 37,-10 74,-10 49,0 72,-4 81,-15 11,-13 5,-15 -46,-14 -54,1 -133,14 -109,18 6,1 -1,8 -15,16 -18,10 -20,14 -8,15 9,0 20,-4 23,-10 z m 195,-67 c 43,-37 21,-51 -53,-34 -47,11 -56,19 -37,32 13,10 13,10 0,6 -8,-2 -24,-1 -35,4 -13,5 1,8 42,8 46,1 68,-4 83,-16 z m -9,-61 c -13,-2 -27,0 -32,5 -6,6 3,7 23,4 28,-4 29,-6 9,-9 z m 36,-44 c -18,-42 -77,-101 -134,-135 -24,-14 -43,-27 -43,-29 0,-3 39,-2 88,1 67,4 81,3 62,-5 -14,-6 -59,-10 -100,-9 -64,2 -81,-1 -117,-22 -52,-29 -55,-42 -8,-33 43,8 45,0 6,-21 -34,-17 -58,-12 -66,16 -10,30 12,57 68,85 88,45 187,115 219,155 37,46 45,45 25,-3 z m -27,22 c 0,-5 -4,-10 -10,-10 -5,0 -10,5 -10,10 0,6 5,10 10,10 6,0 10,-4 10,-10 z m 30,-91 c 0,-5 -4,-9 -10,-9 -5,0 -10,7 -10,16 0,8 5,12 10,9 6,-3 10,-10 10,-16 z m -3,-63 c -4,-12 -116,-25 -123,-14 -2,4 18,17 45,30 27,12 47,27 45,33 -3,5 4,-1 16,-14 11,-13 19,-29 17,-35 z m -44,-88 c -19,-18 -25,-18 -107,-7 -48,7 -83,16 -79,20 12,11 197,26 202,15 2,-4 -5,-17 -16,-28 z m 23,-22 c -29,-49 -103,-117 -154,-142 -31,-14 -72,-12 -72,5 0,4 38,28 83,54 79,44 156,112 158,140 0,9 2,9 6,-1 2,-7 -7,-32 -21,-56 z m -68,-5 c 7,-1 11,-5 8,-9 -6,-10 -116,8 -116,18 0,4 21,3 48,-1 26,-4 53,-8 60,-8 z m -28,-30 c 0,-4 -13,-14 -28,-23 -28,-17 -30,-17 -56,11 -14,15 -24,30 -21,33 7,7 105,-13 105,-21 z m -75,-49 c -2,-2 -18,7 -34,21 -16,13 -27,28 -24,31 4,3 19,-6 35,-21 15,-14 26,-29 23,-31 z"
       id="path123"
       style="fill:#000080" />
    <path
       d="m 1241,2355 c -2,-5 -3,-32 -2,-60 1,-27 -2,-55 -6,-61 -8,-11 -176,-114 -186,-114 -4,0 -29,14 -57,30 -28,17 -53,30 -57,30 -15,0 21,-29 57,-45 49,-22 52,-32 48,-155 l -3,-94 -52,-30 c -29,-17 -53,-34 -53,-38 0,-5 25,6 56,24 l 57,32 51,-27 c 28,-15 73,-41 100,-58 l 49,-31 -6,-59 c -3,-32 -1,-59 4,-59 5,0 9,29 9,64 v 64 l 88,51 c 48,28 94,51 103,51 8,0 36,-13 62,-30 26,-16 50,-30 53,-30 15,0 -12,22 -62,50 l -55,32 3,106 3,106 58,34 c 74,45 67,54 -10,12 l -58,-33 -92,54 -92,54 -4,70 c -1,39 -4,66 -6,60 z m 47,-169 c 20,-13 61,-35 90,-50 l 53,-27 -3,-111 -3,-112 -92,-53 -93,-54 -92,54 -93,53 -3,112 -3,111 58,30 c 32,17 72,39 88,50 39,26 48,25 93,-3 z"
       id="path125"
       style="fill:#000080" />
    <path
       d="m 1163,2121 c -33,-21 -59,-61 -63,-96 -7,-63 1,-88 38,-125 48,-48 95,-59 157,-35 105,40 126,165 41,244 -37,35 -127,41 -173,12 z m 174,-35 c 27,-29 33,-44 33,-81 0,-85 -50,-138 -132,-138 -94,0 -157,108 -113,194 25,47 71,71 129,66 42,-4 55,-10 83,-41 z"
       id="path127"
       style="fill:#000080" />
    <path
       d="m 2220,2267 c -113,-26 -160,-65 -146,-120 6,-27 57,-61 108,-75 21,-5 39,-20 51,-39 16,-28 45,-156 62,-275 7,-55 24,-64 26,-15 l 1,32 8,-30 8,-30 1,28 c 1,34 21,36 21,2 0,-14 4,-25 9,-25 4,0 6,11 3,25 -2,14 0,25 6,25 6,0 12,-12 14,-27 2,-17 9,-28 18,-28 11,0 18,24 27,94 24,181 54,238 141,270 58,21 102,58 102,86 0,27 -43,65 -98,86 -71,27 -275,36 -362,16 z m 130,-7 c 0,-5 -13,-10 -30,-10 -16,0 -30,5 -30,10 0,6 14,10 30,10 17,0 30,-4 30,-10 z m 100,0 c 0,-5 -16,-10 -35,-10 -19,0 -35,5 -35,10 0,6 16,10 35,10 19,0 35,-4 35,-10 z m -185,-9 c -6,-6 -30,-13 -55,-17 -45,-7 -49,8 -5,19 37,9 69,7 60,-2 z m 300,-12 c 14,-14 -36,-10 -70,7 l -30,14 45,-5 c 25,-4 49,-10 55,-16 z m -207,-16 c -2,-11 -14,-19 -31,-21 -22,-3 -27,1 -27,17 0,17 6,21 31,21 24,0 30,-4 27,-17 z m 80,0 c -4,-20 -45,-30 -60,-15 -16,16 1,32 33,32 24,0 30,-4 27,-17 z m -250,-20 c 32,-27 32,-29 14,-40 -16,-9 -24,-9 -38,2 -15,11 -16,15 -5,29 9,11 10,16 2,16 -6,0 -14,-7 -17,-15 -7,-16 -54,-21 -54,-5 0,8 46,39 60,40 3,0 20,-12 38,-27 z m 95,13 c 9,-23 -35,-34 -63,-16 -13,9 -13,11 0,20 22,14 57,12 63,-4 z m 231,8 c 13,-5 14,-9 5,-20 -13,-16 -37,-18 -58,-5 -31,20 14,40 53,25 z m 114,-10 c 26,-18 29,-34 5,-34 -18,0 -53,28 -53,42 0,13 24,9 48,-8 z m -47,-20 c 11,-14 10,-18 -6,-30 -16,-12 -21,-12 -37,3 -18,16 -18,18 -2,30 23,17 29,16 45,-3 z m -226,-29 c 0,-30 -39,-27 -43,3 -3,20 0,23 20,20 15,-2 23,-10 23,-23 z m 69,16 c 9,-14 -4,-41 -19,-41 -17,0 -38,27 -30,40 8,12 42,13 49,1 z m -124,-21 c 0,-23 -35,-28 -43,-6 -7,18 1,26 25,26 11,0 18,-7 18,-20 z m 190,12 c 0,-12 -23,-32 -37,-32 -7,0 -13,9 -13,20 0,15 7,20 25,20 14,0 25,-4 25,-8 z m -359,-12 c 25,-14 24,-26 -3,-33 -24,-7 -48,8 -48,29 0,17 24,18 51,4 z m 403,-21 c -7,-11 -44,-12 -44,-1 0,4 5,13 12,20 13,13 42,-4 32,-19 z m 126,17 c 0,-23 -25,-37 -50,-28 -21,8 -21,9 -5,25 20,20 55,22 55,3 z m -414,-7 c 9,-16 -18,-30 -33,-17 -7,6 -10,14 -7,19 7,13 31,11 40,-2 z m 59,-29 c 3,-5 -1,-10 -9,-10 -9,0 -16,5 -16,10 0,6 4,10 9,10 6,0 13,-4 16,-10 z m 53,-2 c -3,-7 -11,-13 -18,-13 -7,0 -15,6 -17,13 -3,7 4,12 17,12 13,0 20,-5 18,-12 z m 62,3 c 0,-6 -5,-13 -10,-16 -15,-9 -43,3 -35,15 8,13 45,13 45,1 z m 40,1 c 0,-13 -12,-22 -22,-16 -10,6 -1,24 13,24 5,0 9,-4 9,-8 z m -265,-11 c 3,-5 1,-12 -4,-16 -13,-8 -61,5 -61,16 0,12 57,12 65,0 z m 410,-1 c 7,-11 -39,-25 -55,-15 -5,3 -8,11 -5,16 8,12 52,12 60,-1 z m -315,-20 c 8,-5 12,-12 8,-15 -9,-10 -99,6 -92,16 7,12 65,11 84,-1 z m 244,1 c 7,-11 -18,-21 -55,-21 -29,0 -39,14 -16,23 21,9 66,7 71,-2 z m -99,-11 c 3,-6 -1,-13 -9,-16 -23,-9 -108,5 -101,17 8,12 102,12 110,-1 z m -161,-66 c 8,-21 8,-24 -3,-24 -5,0 -11,9 -14,20 -6,24 8,27 17,4 z m 36,-10 c 0,-14 -4,-23 -10,-19 -5,3 -10,15 -10,26 0,10 5,19 10,19 6,0 10,-12 10,-26 z m 45,-4 c 0,-13 -5,-25 -12,-27 -13,-5 -27,32 -18,47 11,18 30,5 30,-20 z m 45,-1 c 0,-20 -4,-29 -12,-26 -12,3 -13,13 -9,47 3,25 21,7 21,-21 z m 40,12 c 0,-11 -4,-23 -10,-26 -6,-4 -10,5 -10,19 0,14 5,26 10,26 6,0 10,-9 10,-19 z m 40,11 c 0,-5 -7,-17 -15,-28 -15,-19 -20,-8 -9,20 6,17 24,22 24,8 z m -186,-78 c 7,-19 8,-59 1,-52 -11,10 -23,68 -15,68 4,0 11,-7 14,-16 z m 26,-21 c 0,-43 -5,-41 -13,5 -4,18 -2,32 3,32 6,0 10,-16 10,-37 z m 40,-2 c 0,-42 -14,-62 -24,-35 -12,31 -7,74 9,74 11,0 15,-11 15,-39 z m 36,-3 c -3,-24 -5,-44 -5,-46 -1,-2 -5,0 -11,3 -11,7 -14,68 -3,78 17,17 24,3 19,-35 z m 34,28 c 0,-8 -4,-18 -10,-21 -5,-3 -10,3 -10,14 0,12 5,21 10,21 6,0 10,-6 10,-14 z m -123,-123 c -3,-10 -5,-4 -5,12 0,17 2,24 5,18 2,-7 2,-21 0,-30 z m 53,2 c 0,-19 -4,-35 -10,-35 -5,0 -10,16 -10,35 0,19 5,35 10,35 6,0 10,-16 10,-35 z m 30,0 c 0,-19 -4,-35 -10,-35 -11,0 -14,53 -3,63 11,12 13,8 13,-28 z"
       id="path129"
       style="fill:#000080" />
    <path
       d="m 1304,1487 c -3,-8 -3,-56 -2,-108 l 3,-94 h 30 c 29,0 30,1 33,54 l 3,54 58,-57 c 44,-44 64,-57 82,-54 24,3 24,5 24,108 v 105 h -30 c -29,0 -30,-2 -35,-53 l -5,-53 -55,56 c -54,55 -95,71 -106,42 z"
       id="path131"
       style="fill:#000080" />
    <path
       d="m 1597,1494 c -4,-4 -7,-54 -7,-111 v -104 l 33,3 32,3 v 105 c 0,105 0,105 -25,108 -14,2 -29,0 -33,-4 z"
       id="path133"
       style="fill:#000080" />
    <path
       d="m 1732,1488 c -24,-12 -38,-48 -29,-73 4,-8 24,-26 47,-40 54,-34 52,-49 -5,-42 -40,6 -45,5 -45,-13 0,-43 93,-54 137,-16 24,21 26,27 18,52 -7,18 -27,38 -53,52 -23,13 -42,27 -42,32 0,17 32,19 61,5 28,-15 29,-15 29,10 0,40 -65,58 -118,33 z"
       id="path135"
       style="fill:#000080" />
    <path
       d="m 1904,1487 c -2,-7 -3,-56 -2,-108 l 3,-94 h 80 c 73,0 80,2 80,20 0,17 -8,20 -47,23 -40,3 -48,6 -48,23 0,16 7,19 40,19 27,0 43,5 47,15 8,22 -1,28 -44,29 -27,1 -39,6 -41,18 -3,13 6,17 40,20 35,2 43,7 43,23 0,18 -8,20 -73,23 -54,2 -74,-1 -78,-11 z"
       id="path137"
       style="fill:#000080" />
    <path
       d="m 2110,1496 c -1,-3 -1,-52 -1,-108 l -1,-103 31,-3 c 30,-3 31,-2 31,37 0,63 23,63 57,1 15,-27 27,-36 51,-38 38,-4 40,6 10,59 -17,30 -19,42 -10,51 18,18 14,63 -8,83 -13,12 -42,19 -90,23 -38,2 -70,2 -70,-2 z m 106,-51 c 19,-15 19,-15 0,-30 -11,-8 -24,-15 -28,-15 -12,0 -21,28 -14,45 3,8 9,15 14,15 4,0 17,-7 28,-15 z"
       id="path139"
       style="fill:#000080" />
    <path
       d="m 2855,3414 c -9,-10 -14,-25 -12,-36 3,-11 -2,-22 -14,-28 -40,-22 -12,-100 35,-100 17,0 17,-1 1,-26 -34,-52 -2,-37 54,25 33,37 62,61 69,57 26,-16 18,14 -12,43 -19,18 -36,28 -40,23 -3,-5 1,-15 9,-22 12,-10 11,-17 -11,-46 -30,-39 -70,-46 -97,-16 -23,25 -7,48 23,32 28,-15 38,-5 17,18 -22,25 -21,32 4,29 29,-3 47,26 30,47 -17,20 -35,20 -56,0 z m 45,-19 c 0,-8 -4,-15 -9,-15 -13,0 -22,16 -14,24 11,11 23,6 23,-9 z"
       id="path141"
       style="fill:#000080" />
    <path
       d="m 3020,3289 c 0,-8 5,-20 10,-25 7,-7 -9,-27 -50,-63 -52,-46 -75,-81 -53,-81 4,0 33,25 64,56 66,66 78,65 127,-3 l 34,-46 -22,-21 -21,-21 -29,33 c -34,37 -46,40 -55,12 -8,-26 1,-39 24,-33 31,8 36,-29 7,-52 -24,-19 -35,-45 -20,-45 3,0 34,23 69,50 41,32 69,48 79,44 25,-9 19,5 -21,55 -62,78 -143,157 -143,140 z"
       id="path143"
       style="fill:#000080" />
    <path
       d="m 406,3153 c -60,-69 -95,-118 -84,-122 6,-2 16,3 22,11 61,81 63,82 91,70 l 27,-13 -33,-22 c -19,-13 -35,-32 -37,-44 -4,-25 22,-53 49,-53 24,0 73,46 64,60 -8,13 8,13 22,-1 6,-6 19,-9 29,-7 13,2 -2,18 -54,61 -48,38 -69,62 -66,72 9,23 -3,18 -30,-12 z m 74,-107 c 0,-27 -18,-46 -42,-46 -26,0 -23,45 4,64 26,18 38,13 38,-18 z"
       id="path145"
       style="fill:#000080" />
    <path
       d="m 286,3110 c -37,-12 -76,-48 -76,-72 0,-31 19,-58 40,-58 23,0 24,-4 10,-31 -13,-23 -3,-25 21,-4 15,15 22,12 80,-24 58,-37 108,-54 95,-32 -3,5 -37,27 -75,50 -49,29 -69,46 -65,56 7,18 0,19 -27,4 -42,-22 -68,41 -31,74 9,8 33,22 52,30 38,17 23,21 -24,7 z"
       id="path147"
       style="fill:#000080" />
    <path
       d="m 3270,2980 c 0,-6 5,-20 10,-30 9,-16 5,-22 -19,-34 -26,-14 -30,-14 -35,-1 -10,26 -27,16 -45,-27 -30,-69 -35,-91 -20,-86 7,2 17,19 21,36 11,41 32,41 52,1 17,-35 10,-53 -25,-64 -10,-4 -19,-13 -19,-22 0,-11 19,-4 76,27 60,33 78,39 90,29 27,-22 15,19 -27,96 -40,73 -59,97 -59,75 z m 60,-128 c 0,-7 -11,-18 -25,-24 -21,-9 -28,-8 -45,7 -27,24 -25,37 8,57 26,16 28,16 44,-5 10,-12 18,-28 18,-35 z"
       id="path149"
       style="fill:#000080" />
    <path
       d="m 3424,2869 c -8,-14 18,-31 30,-19 9,9 0,30 -14,30 -5,0 -12,-5 -16,-11 z"
       id="path151"
       style="fill:#000080" />
    <path
       d="m 197,2823 c -15,-15 -77,-156 -72,-162 3,-3 16,8 29,24 28,35 61,29 54,-10 -5,-22 -2,-25 27,-25 36,0 65,26 65,58 0,19 3,20 25,10 25,-11 42,-7 32,9 -3,5 -37,22 -76,38 -47,20 -71,36 -73,48 -2,11 -7,15 -11,10 z m 42,-68 c 32,-16 44,-39 36,-65 -10,-30 -35,-33 -35,-4 0,17 -8,28 -27,36 -16,7 -29,13 -31,14 -6,3 11,34 20,34 5,0 22,-7 37,-15 z"
       id="path153"
       style="fill:#000080" />
    <path
       d="m 3377,2784 c -3,-3 -1,-17 4,-31 5,-14 8,-27 7,-28 -7,-6 -47,-25 -52,-25 -3,0 -6,7 -6,15 0,32 -31,13 -60,-37 -32,-57 -35,-68 -21,-68 5,0 15,16 22,35 16,43 43,43 47,0 4,-37 18,-53 33,-38 8,8 8,13 0,17 -21,14 -12,51 17,64 23,11 29,10 39,-4 7,-9 14,-22 16,-28 2,-6 8,-8 12,-3 5,4 -2,33 -15,65 -25,63 -33,75 -43,66 z"
       id="path155"
       style="fill:#000080" />
    <path
       d="m 116,2631 c -3,-4 -23,-11 -44,-15 -46,-7 -65,-26 -60,-58 2,-15 13,-25 34,-31 l 31,-9 -19,-70 c -10,-39 -17,-73 -14,-75 8,-9 26,8 26,23 0,11 6,13 22,8 13,-4 36,-7 51,-6 16,0 31,-6 34,-14 9,-25 50,-16 76,17 l 24,31 7,-26 c 3,-14 13,-26 22,-26 12,0 14,5 9,18 -18,42 -17,60 4,67 12,3 21,11 21,16 0,5 -14,2 -32,-7 -28,-15 -32,-15 -40,0 -16,29 -28,17 -28,-29 0,-33 -5,-47 -16,-52 -20,-8 -34,13 -34,54 0,34 -29,63 -63,63 -9,0 -20,7 -23,15 -4,8 -16,15 -29,15 -12,0 -28,7 -35,15 -17,20 3,45 36,45 21,0 24,-4 19,-27 -6,-28 -6,-28 12,-7 l 18,21 79,-24 c 51,-16 82,-21 88,-15 7,7 -20,20 -76,38 -59,19 -85,32 -82,41 6,14 -10,18 -18,4 z m 14,-151 c 0,-10 -39,-34 -46,-27 -3,2 -2,12 2,21 7,17 44,23 44,6 z m 40,-41 c 0,-15 -7,-19 -35,-19 -42,0 -45,14 -8,34 32,16 43,13 43,-15 z"
       id="path157"
       style="fill:#000080" />
    <path
       d="m 3416,2594 c -9,-8 -16,-22 -16,-30 0,-19 -19,-18 -27,1 -5,14 -8,14 -24,-1 -20,-18 -26,-78 -9,-89 15,-9 12,-25 -4,-25 -16,0 -31,-18 -23,-26 3,-3 40,4 82,16 85,24 95,21 95,-32 0,-25 -4,-27 -72,-39 -40,-6 -77,-16 -82,-20 -21,-19 6,-20 79,-4 61,14 79,15 85,5 16,-26 28,-1 18,37 -5,21 -11,53 -14,72 -3,19 -9,41 -14,50 -8,14 -11,13 -16,-6 -4,-15 -17,-24 -39,-29 -44,-8 -69,1 -85,30 -18,34 -3,53 21,27 26,-28 73,-27 93,1 9,12 16,28 16,35 0,13 -27,43 -40,43 -5,0 -16,-7 -24,-16 z m 39,-39 c 0,-13 -8,-21 -22,-23 -17,-3 -23,2 -23,16 0,10 3,22 7,26 13,13 38,1 38,-19 z"
       id="path159"
       style="fill:#000080" />
    <path
       d="m 36,2333 c -5,-18 -20,-186 -18,-190 6,-10 18,0 22,19 3,13 11,23 18,22 7,-1 19,-2 27,-2 8,-1 15,-9 15,-17 0,-8 7,-15 16,-15 18,0 114,69 114,82 0,14 -12,9 -48,-23 -25,-23 -37,-27 -43,-18 -4,7 -27,15 -51,18 l -43,6 3,40 c 2,22 5,41 6,42 2,2 39,-2 84,-9 75,-10 105,-8 89,8 -3,4 -42,11 -86,17 -55,7 -81,15 -81,24 0,19 -18,16 -24,-4 z"
       id="path161"
       style="fill:#000080" />
    <path
       d="m 3517,2314 c -4,-4 -4,-31 -1,-61 l 7,-53 h -31 c -29,0 -31,3 -38,45 -6,45 -20,55 -42,33 -17,-17 -15,-38 3,-38 9,0 15,-9 15,-25 0,-22 -4,-25 -40,-25 -28,0 -40,-4 -40,-15 0,-14 24,-14 138,0 22,3 35,-1 39,-10 12,-34 20,-1 16,67 -5,72 -13,95 -26,82 z"
       id="path163"
       style="fill:#000080" />
    <path
       d="m 908,685 c -8,-18 -17,-24 -30,-19 -20,6 -24,-6 -6,-24 9,-9 1,-27 -35,-79 -30,-44 -43,-71 -37,-77 5,-5 11,-8 13,-5 2,2 23,34 47,71 l 43,67 47,-27 c 91,-53 94,-55 81,-81 l -12,-22 -20,25 c -45,57 -124,14 -82,-43 11,-14 30,-27 42,-29 19,-3 21,-8 16,-33 -11,-48 8,-33 49,41 22,39 43,70 47,70 6,0 101,-40 108,-46 1,-1 0,-7 -3,-13 -5,-7 -15,-7 -32,1 -20,9 -28,9 -41,-5 -14,-13 -14,-19 -3,-32 10,-12 10,-19 2,-27 -20,-20 -14,-45 15,-68 17,-13 35,-19 49,-16 14,4 21,1 20,-7 0,-6 3,-14 9,-15 5,-2 23,29 41,70 17,40 36,72 42,70 7,-1 12,4 12,11 0,7 -44,30 -97,51 -94,38 -267,128 -278,145 -3,5 3,19 13,31 31,39 71,8 97,-74 11,-36 16,-8 6,30 -17,62 -37,84 -77,84 -27,0 -37,-5 -46,-25 z m 80,-188 c 25,-27 20,-37 -18,-37 -32,0 -55,23 -46,45 8,22 39,18 64,-8 z m 247,-47 c 3,-5 -5,-31 -17,-57 -22,-45 -25,-48 -63,-48 -31,0 -41,4 -43,19 -3,16 1,18 27,14 39,-6 40,7 1,27 -44,23 -38,38 10,30 32,-5 41,-3 46,9 7,18 30,21 39,6 z"
       id="path165"
       style="fill:#000080" />
    <path
       d="m 2545,669 c -11,-16 4,-24 23,-12 20,12 88,-5 85,-22 -1,-5 -55,-38 -119,-72 -221,-116 -476,-182 -711,-183 -55,0 -93,-4 -93,-10 0,-5 9,-10 20,-10 17,0 20,-7 20,-40 0,-22 -4,-40 -10,-40 -15,0 -12,-16 6,-34 20,-20 34,-20 34,0 0,11 8,14 28,12 21,-2 28,-9 30,-31 2,-17 -3,-37 -13,-47 -10,-11 -14,-26 -11,-38 8,-24 50,-47 72,-38 23,9 10,20 -24,21 -36,0 -42,32 -9,44 23,9 24,12 16,58 -12,75 -11,133 4,134 44,4 86,9 115,13 27,4 32,2 32,-15 0,-13 -7,-19 -23,-19 -12,0 -33,-7 -46,-16 -28,-20 -22,-56 17,-97 35,-37 50,-34 18,4 -31,36 -33,64 -7,79 37,19 47,12 57,-42 12,-69 37,-79 27,-11 -4,26 -8,66 -8,88 0,39 1,40 34,40 30,0 36,-4 42,-29 5,-17 4,-35 -1,-41 -6,-7 -5,-16 2,-23 16,-16 28,-15 42,2 6,8 21,17 34,21 19,5 23,2 28,-24 4,-17 13,-31 20,-31 18,0 18,-3 -6,82 -25,90 -25,85 6,91 18,3 33,-2 45,-14 11,-11 28,-19 39,-19 13,0 20,-7 20,-20 0,-15 -7,-20 -25,-20 -29,0 -34,-18 -7,-26 9,-3 34,-14 55,-25 20,-11 37,-15 37,-9 0,6 -11,16 -25,22 -18,8 -24,16 -19,27 16,36 16,82 0,99 -14,17 -11,20 50,46 36,16 67,27 69,24 3,-2 6,-15 7,-27 2,-18 -5,-28 -29,-40 -37,-18 -40,-44 -5,-49 14,-2 22,2 22,12 0,8 9,20 20,26 17,9 21,6 35,-26 8,-20 15,-43 15,-50 0,-19 18,-18 37,2 18,18 37,6 31,-21 -6,-31 -33,-41 -78,-29 -22,6 -40,8 -40,4 0,-25 111,-26 133,-2 32,35 11,72 -40,72 -14,0 -29,20 -52,69 -19,38 -31,73 -27,79 3,6 32,25 63,41 40,22 60,28 67,21 8,-8 1,-18 -22,-36 -40,-32 -42,-65 -4,-92 34,-24 72,-37 72,-24 0,6 -13,15 -29,20 -16,6 -34,20 -40,31 -9,16 -7,24 11,41 12,11 25,20 29,20 4,0 19,-20 33,-45 25,-42 46,-58 46,-35 0,5 -18,39 -40,76 -32,52 -38,69 -29,80 9,11 8,14 -9,14 -11,0 -36,7 -55,15 -42,18 -83,19 -92,4 z M 2380,441 c 13,-25 13,-31 -2,-31 -23,0 -41,18 -35,34 9,22 24,20 37,-3 z m -145,-68 c 6,-29 4,-33 -20,-39 -32,-8 -34,-5 -42,39 -5,31 -3,36 18,39 30,5 35,0 44,-39 z m -380,-53 c 0,-31 -3,-35 -27,-38 -27,-3 -28,-1 -28,38 0,39 1,41 28,38 24,-3 27,-7 27,-38 z"
       id="path167"
       style="fill:#000080" />
    <path
       d="m 1304,439 c -2,-4 10,-12 26,-18 39,-13 43,-51 5,-51 -20,0 -25,-5 -25,-24 0,-31 46,-69 72,-60 16,5 19,1 16,-22 -2,-15 2,-29 8,-31 7,-2 18,29 28,77 16,70 20,80 39,80 43,0 46,-10 32,-90 -7,-41 -11,-78 -8,-82 12,-21 22,-1 33,72 8,54 18,84 29,90 9,5 14,10 11,11 -102,24 -262,53 -266,48 z m 114,-37 c 10,-7 10,-16 0,-48 -12,-35 -16,-39 -47,-39 -41,0 -50,16 -19,30 14,6 24,20 26,38 3,27 16,33 40,19 z"
       id="path169"
       style="fill:#000080" />
    <path
       d="m 1614,366 c -4,-9 9,-33 31,-60 26,-33 35,-51 30,-66 -8,-25 -51,-27 -77,-3 -10,9 -18,11 -18,5 0,-15 50,-52 71,-52 25,0 49,27 49,54 0,13 -16,40 -35,61 -40,44 -37,59 12,50 27,-5 34,-3 31,7 -7,20 -87,23 -94,4 z"
       id="path171"
       style="fill:#000080" />
    <circle
       style="fill:none;fill-opacity:1;fill-rule:evenodd;stroke:#0000bc;stroke-width:26.5481;stroke-miterlimit:4;stroke-dasharray:none;stroke-opacity:1"
       id="path1060"
       cx="1786.1219"
       cy="-1996.7385"
       r="1936.9895"
       transform="scale(1,-1)" />
  </g>
</svg>
