<?xml version="1.0" encoding="UTF-8" standalone="no"?>
<!-- Created with Inkscape (http://www.inkscape.org/) -->

<svg
   width="22.247061mm"
   height="25.253057mm"
   viewBox="0 0 22.247061 25.253057"
   version="1.1"
   id="svg5181"
   inkscape:version="1.1 (c68e22c387, 2021-05-23)"
   sodipodi:docname="benzene.svg"
   xmlns:inkscape="http://www.inkscape.org/namespaces/inkscape"
   xmlns:sodipodi="http://sodipodi.sourceforge.net/DTD/sodipodi-0.dtd"
   xmlns="http://www.w3.org/2000/svg"
   xmlns:svg="http://www.w3.org/2000/svg">
  <sodipodi:namedview
     id="namedview5183"
     pagecolor="#ffffff"
     bordercolor="#666666"
     borderopacity="1.0"
     inkscape:pageshadow="2"
     inkscape:pageopacity="0.0"
     inkscape:pagecheckerboard="0"
     inkscape:document-units="mm"
     showgrid="false"
     inkscape:zoom="1.5001964"
     inkscape:cx="37.661735"
     inkscape:cy="19.330802"
     inkscape:window-width="1920"
     inkscape:window-height="1046"
     inkscape:window-x="-11"
     inkscape:window-y="1285"
     inkscape:window-maximized="1"
     inkscape:current-layer="layer1" />
  <defs
     id="defs5178" />
  <g
     inkscape:label="Layer 1"
     inkscape:groupmode="layer"
     id="layer1"
     transform="translate(4.4216302,-115.41504)">
    <path
       d="m 6.56712,115.44449 c -0.070556,0.17639 -0.1058334,1.12889 -0.070556,2.11666 0.035278,0.9525 -0.070555,1.94028 -0.2116667,2.15195 -0.2822222,0.38806 -6.20888924,4.02167 -6.56166704,4.02167 -0.14111112,0 -1.02305566,-0.49389 -2.01083346,-1.05834 -0.9877778,-0.59972 -1.8697223,-1.05833 -2.0108335,-1.05833 -0.5291667,0 0.7408334,1.02306 2.0108335,1.5875 1.72861122,0.77611 1.83444456,1.12889 1.69333344,5.46806 l -0.10583334,3.31611 -1.8344446,1.05833 c -1.0230556,0.59972 -1.8697223,1.19944 -1.8697223,1.34056 0,0.17638 0.8819445,-0.21167 1.9755557,-0.84667 l 2.01083344,-1.12889 1.79916676,0.9525 c 0.9877779,0.52917 2.575278,1.44639 3.527778,2.04611 l 1.7286112,1.09361 -0.2116666,2.08139 c -0.1058334,1.12889 -0.035278,2.08139 0.1411111,2.08139 0.1763889,0 0.3175,-1.02305 0.3175,-2.25778 v -2.25778 l 3.1044446,-1.79916 c 1.6933338,-0.98778 3.3161118,-1.79917 3.6336118,-1.79917 0.282222,0 1.27,0.45861 2.187222,1.05833 0.917223,0.56445 1.763889,1.05834 1.869723,1.05834 0.529166,0 -0.423334,-0.77611 -2.187223,-1.76389 l -1.940278,-1.12889 0.105834,-3.73944 0.105833,-3.73945 2.046111,-1.19944 c 2.610556,-1.5875 2.363612,-1.905 -0.352777,-0.42334 l -2.046112,1.16417 -3.245555,-1.905 -3.2455566,-1.905 -0.1411111,-2.46945 C 6.7435089,116.18532 6.6376755,115.23282 6.56712,115.44449 Z m 1.6580556,5.96194 c 0.7055556,0.45861 2.1519444,1.23473 3.1750004,1.76389 l 1.869722,0.9525 -0.105833,3.91584 -0.105834,3.95111 -3.2455553,1.86972 -3.2808335,1.905 -3.2455558,-1.905 -3.2808335,-1.86972 -0.10583334,-3.95111 -0.10583334,-3.91584 2.04611128,-1.05833 c 1.1288889,-0.59972 2.5400001,-1.37583 3.1044446,-1.76389 1.3758334,-0.91722 1.6933334,-0.88194 3.2808335,0.10583 z"
       id="path125"
       style="fill:#000080;stroke-width:0.0352778" />
    <path
       d="m 3.8154531,123.69949 c -1.1641667,0.74083 -2.081389,2.15194 -2.2225001,3.38667 -0.2469445,2.2225 0.035278,3.10444 1.3405556,4.40972 1.6933335,1.69333 3.3513891,2.08139 5.5386115,1.23472 3.7041669,-1.41111 4.4449999,-5.82083 1.446389,-8.60778 -1.3052779,-1.23472 -4.4802781,-1.44639 -6.103056,-0.42333 z m 6.1383338,1.23472 c 0.9525001,1.02306 1.1641671,1.55222 1.1641671,2.8575 0,2.99861 -1.7638894,4.86833 -4.6566674,4.86833 -3.3161113,0 -5.53861142,-3.81 -3.9863891,-6.84388 0.8819445,-1.65806 2.5047224,-2.50473 4.5508336,-2.32834 1.4816668,0.14111 1.9402779,0.35278 2.9280558,1.44639 z"
       id="path127"
       style="fill:#000080;stroke-width:0.0352778" />
  </g>
</svg>
