<?xml version="1.0" encoding="UTF-8" standalone="no"?>
<!-- Created with Inkscape (http://www.inkscape.org/) -->

<svg
   width="21.463087mm"
   height="19.997738mm"
   viewBox="0 0 21.463087 19.997738"
   version="1.1"
   id="svg5078"
   inkscape:version="1.1 (c68e22c387, 2021-05-23)"
   sodipodi:docname="curvature.svg"
   xmlns:inkscape="http://www.inkscape.org/namespaces/inkscape"
   xmlns:sodipodi="http://sodipodi.sourceforge.net/DTD/sodipodi-0.dtd"
   xmlns="http://www.w3.org/2000/svg"
   xmlns:svg="http://www.w3.org/2000/svg">
  <sodipodi:namedview
     id="namedview5080"
     pagecolor="#ffffff"
     bordercolor="#666666"
     borderopacity="1.0"
     inkscape:pageshadow="2"
     inkscape:pageopacity="0.0"
     inkscape:pagecheckerboard="0"
     inkscape:document-units="mm"
     showgrid="false"
     inkscape:zoom="0.7500982"
     inkscape:cx="208.63935"
     inkscape:cy="57.325827"
     inkscape:window-width="1920"
     inkscape:window-height="1046"
     inkscape:window-x="-11"
     inkscape:window-y="1285"
     inkscape:window-maximized="1"
     inkscape:current-layer="layer1" />
  <defs
     id="defs5075" />
  <g
     inkscape:label="Layer 1"
     inkscape:groupmode="layer"
     id="layer1"
     transform="translate(-49.585561,-133.21014)">
    <path
       d="m 54.820866,133.59283 c -3.98639,0.91723 -5.644445,2.29306 -5.150556,4.23334 0.211666,0.9525 2.010833,2.15194 3.81,2.64583 0.740833,0.17639 1.375833,0.70556 1.799167,1.37583 0.564444,0.98778 1.5875,5.50334 2.187222,9.70139 0.246945,1.94028 0.846667,2.25778 0.917222,0.52917 l 0.03528,-1.12889 0.282222,1.05833 0.282223,1.05834 0.03528,-0.98778 c 0.03528,-1.19945 0.740834,-1.27 0.740834,-0.0706 0,0.49389 0.141111,0.88195 0.3175,0.88195 0.141111,0 0.211666,-0.38806 0.105833,-0.88195 -0.07055,-0.49389 0,-0.88194 0.211667,-0.88194 0.211667,0 0.423333,0.42333 0.493889,0.9525 0.07055,0.59972 0.3175,0.98778 0.635,0.98778 0.388055,0 0.635,-0.84667 0.9525,-3.31611 0.846667,-6.38528 1.905,-8.39612 4.974167,-9.525 2.046111,-0.74084 3.598333,-2.04612 3.598333,-3.03389 0,-0.9525 -1.516944,-2.29306 -3.457222,-3.03389 -2.504722,-0.9525 -9.70139,-1.27 -12.770556,-0.56445 z m 4.586111,0.24695 c 0,0.17639 -0.458611,0.35277 -1.058333,0.35277 -0.564445,0 -1.058334,-0.17638 -1.058334,-0.35277 0,-0.21167 0.493889,-0.35278 1.058334,-0.35278 0.599722,0 1.058333,0.14111 1.058333,0.35278 z m 3.527778,0 c 0,0.17639 -0.564444,0.35277 -1.234722,0.35277 -0.670278,0 -1.234723,-0.17638 -1.234723,-0.35277 0,-0.21167 0.564445,-0.35278 1.234723,-0.35278 0.670278,0 1.234722,0.14111 1.234722,0.35278 z m -6.526389,0.3175 c -0.211667,0.21166 -1.058334,0.45861 -1.940278,0.59972 -1.5875,0.24694 -1.728611,-0.28222 -0.176389,-0.67028 1.305278,-0.3175 2.434167,-0.24694 2.116667,0.0706 z m 10.583334,0.42333 c 0.493889,0.49389 -1.27,0.35278 -2.469445,-0.24694 l -1.058333,-0.49389 1.5875,0.17639 c 0.881944,0.14111 1.728611,0.35277 1.940278,0.56444 z m -7.302501,0.56445 c -0.07055,0.38805 -0.493889,0.67027 -1.093611,0.74083 -0.776111,0.10583 -0.9525,-0.0353 -0.9525,-0.59972 0,-0.59973 0.211667,-0.74084 1.093611,-0.74084 0.846667,0 1.058334,0.14111 0.9525,0.59973 z m 2.822223,0 c -0.141111,0.70555 -1.5875,1.05833 -2.116667,0.52916 -0.564445,-0.56444 0.03528,-1.12889 1.164167,-1.12889 0.846666,0 1.058333,0.14111 0.9525,0.59973 z m -8.819445,0.70555 c 1.128889,0.9525 1.128889,1.02306 0.493889,1.41111 -0.564445,0.3175 -0.846667,0.3175 -1.340556,-0.0705 -0.529167,-0.38806 -0.564445,-0.52917 -0.176389,-1.02306 0.3175,-0.38805 0.352778,-0.56444 0.07056,-0.56444 -0.211667,0 -0.493889,0.24694 -0.599723,0.52916 -0.246944,0.56445 -1.905,0.74084 -1.905,0.17639 0,-0.28222 1.622778,-1.37583 2.116667,-1.41111 0.105833,0 0.705556,0.42333 1.340556,0.9525 z m 3.351389,-0.45861 c 0.3175,0.81139 -1.234723,1.19944 -2.2225,0.56444 -0.458612,-0.3175 -0.458612,-0.38805 0,-0.70555 0.776111,-0.49389 2.010833,-0.42333 2.2225,0.14111 z m 8.149167,-0.28222 c 0.458611,0.17639 0.493889,0.3175 0.176389,0.70555 -0.458611,0.56445 -1.305278,0.635 -2.046111,0.17639 -1.093612,-0.70555 0.493888,-1.41111 1.869722,-0.88194 z m 4.021667,0.35278 c 0.917222,0.635 1.023055,1.19944 0.176389,1.19944 -0.635,0 -1.869723,-0.98778 -1.869723,-1.48167 0,-0.45861 0.846667,-0.3175 1.693334,0.28223 z m -1.658056,0.70555 c 0.388056,0.49389 0.352778,0.635 -0.211667,1.05833 -0.564444,0.42334 -0.740833,0.42334 -1.305277,-0.10583 -0.635,-0.56444 -0.635,-0.635 -0.07056,-1.05833 0.811389,-0.59972 1.023056,-0.56445 1.5875,0.10583 z m -7.972778,1.02306 c 0,1.05833 -1.375834,0.9525 -1.516945,-0.10584 -0.105833,-0.70555 0,-0.81139 0.705556,-0.70555 0.529167,0.0705 0.811389,0.35278 0.811389,0.81139 z m 2.434167,-0.56445 c 0.3175,0.49389 -0.141111,1.44639 -0.670278,1.44639 -0.599722,0 -1.340556,-0.9525 -1.058334,-1.41111 0.282223,-0.42333 1.481667,-0.45861 1.728612,-0.0353 z m -4.374445,0.74084 c 0,0.81138 -1.234722,0.98777 -1.516945,0.21166 -0.246944,-0.635 0.03528,-0.91722 0.881945,-0.91722 0.388056,0 0.635,0.24694 0.635,0.70556 z m 6.702778,-0.42334 c 0,0.42334 -0.811389,1.12889 -1.305278,1.12889 -0.246944,0 -0.458611,-0.3175 -0.458611,-0.70555 0,-0.52917 0.246945,-0.70556 0.881945,-0.70556 0.493889,0 0.881944,0.14111 0.881944,0.28222 z m -12.664723,0.42334 c 0.881945,0.49388 0.846667,0.91722 -0.105833,1.16416 -0.846667,0.24695 -1.693334,-0.28222 -1.693334,-1.02305 0,-0.59973 0.846667,-0.635 1.799167,-0.14111 z m 14.216946,0.74083 c -0.246945,0.38805 -1.552223,0.42333 -1.552223,0.0353 0,-0.14111 0.176389,-0.45861 0.423334,-0.70556 0.458611,-0.45861 1.481666,0.14111 1.128889,0.67028 z m 4.445,-0.59972 c 0,0.81139 -0.881945,1.30527 -1.763889,0.98777 -0.740834,-0.28222 -0.740834,-0.3175 -0.176389,-0.88194 0.705556,-0.70556 1.940278,-0.77611 1.940278,-0.10583 z m -14.605001,0.24694 c 0.3175,0.56445 -0.635,1.05833 -1.164167,0.59972 -0.246944,-0.21166 -0.352778,-0.49389 -0.246944,-0.67027 0.246944,-0.45862 1.093611,-0.38806 1.411111,0.0705 z m 2.081389,1.02306 c 0.105833,0.17639 -0.03528,0.35277 -0.3175,0.35277 -0.3175,0 -0.564445,-0.17638 -0.564445,-0.35277 0,-0.21167 0.141112,-0.35278 0.3175,-0.35278 0.211667,0 0.458612,0.14111 0.564445,0.35278 z m 1.869722,0.0705 c -0.105833,0.24695 -0.388055,0.45861 -0.635,0.45861 -0.246944,0 -0.529166,-0.21166 -0.599722,-0.45861 -0.105833,-0.24694 0.141111,-0.42333 0.599722,-0.42333 0.458611,0 0.705556,0.17639 0.635,0.42333 z m 2.187223,-0.10583 c 0,0.21167 -0.176389,0.45861 -0.352778,0.56444 -0.529167,0.3175 -1.516945,-0.10583 -1.234723,-0.52916 0.282223,-0.45861 1.587501,-0.45861 1.587501,-0.0353 z m 1.411111,-0.0353 c 0,0.45861 -0.423334,0.77611 -0.776111,0.56445 -0.352778,-0.21167 -0.03528,-0.84667 0.458611,-0.84667 0.176389,0 0.3175,0.14111 0.3175,0.28222 z m -9.348612,0.38806 c 0.105833,0.17639 0.03528,0.42333 -0.141111,0.56444 -0.458611,0.28222 -2.151945,-0.17639 -2.151945,-0.56444 0,-0.42334 2.010834,-0.42334 2.293056,0 z m 14.46389,0.0353 c 0.246944,0.38806 -1.375834,0.88195 -1.940278,0.52917 -0.176389,-0.10583 -0.282222,-0.38805 -0.176389,-0.56444 0.282222,-0.42334 1.834445,-0.42334 2.116667,0.0353 z M 57.29031,139.837 c 0.282222,0.17639 0.423334,0.42333 0.282222,0.52917 -0.3175,0.35277 -3.4925,-0.21167 -3.245555,-0.56445 0.246944,-0.42333 2.293055,-0.38805 2.963333,0.0353 z m 8.607779,-0.0353 c 0.246944,0.38806 -0.635001,0.74084 -1.940278,0.74084 -1.023056,0 -1.375834,-0.49389 -0.564445,-0.81139 0.740834,-0.3175 2.328334,-0.24695 2.504723,0.0705 z m -3.492501,0.38806 c 0.105834,0.21166 -0.03528,0.45861 -0.3175,0.56444 -0.811389,0.3175 -3.81,-0.17639 -3.563055,-0.59972 0.282222,-0.42333 3.598333,-0.42333 3.880555,0.0353 z m -5.679722,2.32833 c 0.282222,0.74083 0.282222,0.84667 -0.105834,0.84667 -0.176389,0 -0.388055,-0.3175 -0.493889,-0.70556 -0.211666,-0.84666 0.282223,-0.9525 0.599723,-0.14111 z m 1.27,0.35278 c 0,0.49389 -0.141111,0.81139 -0.352778,0.67028 -0.176389,-0.10584 -0.352778,-0.52917 -0.352778,-0.91723 0,-0.35277 0.176389,-0.67027 0.352778,-0.67027 0.211667,0 0.352778,0.42333 0.352778,0.91722 z m 1.5875,0.14111 c 0,0.45861 -0.176389,0.88194 -0.423333,0.9525 -0.458612,0.17639 -0.952501,-1.12889 -0.635,-1.65806 0.388055,-0.635 1.058333,-0.17638 1.058333,0.70556 z m 1.5875,0.0353 c 0,0.70555 -0.141111,1.02305 -0.423333,0.91722 -0.423334,-0.10583 -0.458612,-0.45861 -0.3175,-1.65806 0.105833,-0.88194 0.740833,-0.24694 0.740833,0.74084 z m 1.411111,-0.42334 c 0,0.38806 -0.141111,0.81139 -0.352778,0.91723 -0.211666,0.14111 -0.352777,-0.17639 -0.352777,-0.67028 0,-0.49389 0.176389,-0.91722 0.352777,-0.91722 0.211667,0 0.352778,0.3175 0.352778,0.67027 z m 1.411111,-0.38805 c 0,0.17639 -0.246944,0.59972 -0.529166,0.98778 -0.529167,0.67027 -0.705556,0.28222 -0.3175,-0.70556 0.211666,-0.59972 0.846666,-0.77611 0.846666,-0.28222 z m -6.561667,2.75167 c 0.246945,0.67027 0.282223,2.08138 0.03528,1.83444 -0.388055,-0.35278 -0.811389,-2.39889 -0.529167,-2.39889 0.141112,0 0.388056,0.24695 0.493889,0.56445 z m 0.917223,0.74083 c 0,1.51694 -0.176389,1.44639 -0.458612,-0.17639 -0.141111,-0.635 -0.07055,-1.12889 0.105834,-1.12889 0.211666,0 0.352778,0.56445 0.352778,1.30528 z m 1.411111,0.0705 c 0,1.48167 -0.493889,2.18723 -0.846667,1.23473 -0.423333,-1.09361 -0.246944,-2.61056 0.3175,-2.61056 0.388056,0 0.529167,0.38806 0.529167,1.37583 z m 1.27,0.10584 c -0.105833,0.84666 -0.176389,1.55222 -0.176389,1.62278 -0.03528,0.0705 -0.176389,0 -0.388056,-0.10584 -0.388055,-0.24694 -0.493889,-2.39889 -0.105833,-2.75166 0.599722,-0.59973 0.846667,-0.10584 0.670278,1.23472 z m 1.199444,-0.98778 c 0,0.28222 -0.141111,0.635 -0.352777,0.74083 -0.176389,0.10584 -0.352778,-0.10583 -0.352778,-0.49389 0,-0.42333 0.176389,-0.74083 0.352778,-0.74083 0.211666,0 0.352777,0.21167 0.352777,0.49389 z m -4.339167,4.33917 c -0.105833,0.35277 -0.176388,0.14111 -0.176388,-0.42334 0,-0.59972 0.07055,-0.84666 0.176388,-0.635 0.07056,0.24695 0.07056,0.74084 0,1.05834 z m 1.869723,-0.0706 c 0,0.67028 -0.141111,1.23472 -0.352778,1.23472 -0.176389,0 -0.352778,-0.56444 -0.352778,-1.23472 0,-0.67028 0.176389,-1.23472 0.352778,-1.23472 0.211667,0 0.352778,0.56444 0.352778,1.23472 z m 1.058333,0 c 0,0.67028 -0.141111,1.23472 -0.352778,1.23472 -0.388055,0 -0.493889,-1.86972 -0.105833,-2.2225 0.388056,-0.42333 0.458611,-0.28222 0.458611,0.98778 z"
       id="path129"
       style="fill:#000080;stroke-width:0.0352778" />
  </g>
</svg>
