<?xml version="1.0" encoding="UTF-8" standalone="no"?>
<!-- Created with Inkscape (http://www.inkscape.org/) -->

<svg
   width="12.511149mm"
   height="45.043499mm"
   viewBox="0 0 12.511149 45.043499"
   version="1.1"
   id="svg5044"
   inkscape:version="1.1 (c68e22c387, 2021-05-23)"
   sodipodi:docname="DNA.svg"
   xmlns:inkscape="http://www.inkscape.org/namespaces/inkscape"
   xmlns:sodipodi="http://sodipodi.sourceforge.net/DTD/sodipodi-0.dtd"
   xmlns="http://www.w3.org/2000/svg"
   xmlns:svg="http://www.w3.org/2000/svg">
  <sodipodi:namedview
     id="namedview5046"
     pagecolor="#ffffff"
     bordercolor="#666666"
     borderopacity="1.0"
     inkscape:pageshadow="2"
     inkscape:pageopacity="0.0"
     inkscape:pagecheckerboard="0"
     inkscape:document-units="mm"
     showgrid="false"
     inkscape:zoom="3.0003928"
     inkscape:cx="41.494567"
     inkscape:cy="98.987039"
     inkscape:window-width="1920"
     inkscape:window-height="1046"
     inkscape:window-x="-11"
     inkscape:window-y="1285"
     inkscape:window-maximized="1"
     inkscape:current-layer="layer1" />
  <defs
     id="defs5041" />
  <g
     inkscape:label="Layer 1"
     inkscape:groupmode="layer"
     id="layer1"
     transform="translate(-90.392881,-90.35236)">
    <path
       d="m 90.556809,91.146603 c 0,1.940277 1.128889,4.586111 2.681111,6.244167 l 1.5875,1.693333 -1.658055,1.728607 c -2.8575,2.92806 -3.4925,5.60917 -1.975556,8.29028 0.423333,0.74084 0.458611,1.05834 0.105833,1.44639 -0.211666,0.28222 -0.493889,1.34056 -0.635,2.32834 -0.176389,1.55222 -0.07055,1.94027 0.670278,2.92805 0.493889,0.635 2.363611,2.04611 4.162778,3.10445 4.797782,2.89277 4.797782,2.82222 1.905,4.69194 -1.340555,0.84667 -3.280833,2.01083 -4.339167,2.57528 -1.023055,0.56444 -2.046111,1.34055 -2.257778,1.79916 -0.529166,1.16417 -0.03528,2.43417 1.128889,2.92806 1.305278,0.52917 2.857501,2.15195 2.257778,2.36361 -0.246944,0.10584 -0.776111,0.42334 -1.199444,0.77611 -0.740834,0.59973 -0.740834,0.59973 0.670278,1.05834 1.340555,0.45861 1.516944,0.42333 2.963333,-0.42334 2.575278,-1.51694 4.445003,-3.35139 5.432783,-5.36222 0.81138,-1.72861 0.91722,-2.18722 0.70555,-4.16278 -0.3175,-2.75166 -0.3175,-3.13972 0,-5.60916 0.35278,-2.99862 -0.56444,-4.33917 -4.691944,-7.02028 -1.799167,-1.16417 -3.280833,-2.18723 -3.280833,-2.29306 0,-0.38805 1.658055,-1.5875 4.1275,-2.96333 2.892777,-1.62278 3.986387,-2.82222 3.986387,-4.40972 0,-1.23473 -0.56444,-1.86973 -2.43416,-2.82223 l -1.164172,-0.599719 1.693332,-1.093611 c 1.51695,-0.987778 1.72861,-1.27 1.72861,-2.363612 0,-1.164166 -0.10583,-1.27 -1.69333,-1.799166 -1.658056,-0.564445 -3.951112,-0.493889 -3.563056,0.07055 0.105833,0.176389 -0.423333,0.352778 -1.164167,0.388056 -1.234722,0.03528 -1.199444,0.07055 0.423334,0.282222 1.834444,0.211667 1.728611,0.352778 -0.881945,0.987778 -1.446389,0.352778 -1.658056,0.3175 -2.257778,-0.388056 -0.635,-0.776111 -0.635,-0.776111 0.352778,-0.987778 l 1.023056,-0.246944 -1.128889,-0.03528 c -0.599723,0 -1.234723,-0.211667 -1.340556,-0.388055 -0.176389,-0.246945 0.564444,-0.3175 2.187222,-0.211667 l 2.398889,0.176389 -2.645833,-0.423334 -2.645834,-0.423333 -0.3175,-1.340556 c -0.388055,-1.446389 -0.917222,-1.763889 -0.917222,-0.493888 z m 3.81,5.820833 c 1.622778,1.622778 1.799167,2.398889 0.246945,1.199445 -1.340556,-1.058334 -2.998612,-3.245556 -2.963334,-3.915834 0,-0.388055 0.176389,-0.3175 0.599722,0.3175 0.3175,0.493889 1.270001,1.552223 2.116667,2.398889 z m 6.949721,-2.257778 c 1.37584,0.599723 1.62278,1.552223 0.635,2.398889 -0.35278,0.282223 -1.94028,1.27 -3.563054,2.151945 -3.739445,2.081388 -6.6675,4.586108 -7.090834,6.032498 -0.3175,1.05834 -0.3175,1.05834 -0.352777,0.17639 -0.03528,-0.9525 1.128889,-2.96333 2.716389,-4.65667 0.529166,-0.52916 2.2225,-1.728607 3.774722,-2.610551 1.552222,-0.881945 2.892774,-1.693334 2.998614,-1.763889 0.10583,-0.105834 -0.24695,-0.493889 -0.811392,-0.881945 -0.529166,-0.388056 -0.9525,-0.846667 -0.9525,-1.023056 0,-0.458611 1.27,-0.388055 2.645832,0.176389 z m -1.940276,1.27 c 0,0.176389 -0.246944,0.352778 -0.529167,0.352778 -0.282222,0 -0.529166,0.211667 -0.529166,0.458611 0,0.670278 -1.763889,1.446389 -2.222501,0.987778 -0.211666,-0.211667 0.07056,-0.458611 0.846667,-0.705555 1.128889,-0.352778 1.128889,-0.388056 -0.458611,-0.211667 -2.010833,0.176389 -2.293056,-0.388056 -0.352778,-0.705556 0.705556,-0.141111 1.481667,-0.282222 1.658056,-0.352778 0.740833,-0.246944 1.5875,-0.176388 1.5875,0.176389 z m 1.023056,4.550832 c 1.83444,0.9525 2.25778,1.55222 1.97556,2.82222 -0.24695,1.16417 -1.65806,2.50473 -3.668894,3.56306 -0.740833,0.35278 -2.645833,1.62278 -4.233333,2.82222 -1.622778,1.19945 -2.998612,2.08139 -3.104445,1.97556 -0.670278,-0.67028 4.233334,-5.00945 7.655278,-6.73806 1.834444,-0.91722 2.998614,-2.08139 2.645834,-2.61055 -0.10583,-0.21167 -0.98778,-0.74084 -1.975556,-1.12889 -1.693333,-0.74084 -2.257778,-1.375836 -1.199445,-1.375836 0.317501,0 1.164167,0.317496 1.905001,0.670276 z m -1.481667,0.81139 c 1.023055,0.42333 1.869727,0.88195 1.869727,1.05833 0,0.14112 -0.59973,0.3175 -1.305283,0.3175 l -1.340555,0.0706 1.411111,0.24694 c 1.023057,0.17639 0.423333,0.28223 -2.2225,0.3175 -2.363611,0 -3.563056,-0.10583 -3.421945,-0.3175 0.105833,-0.21166 1.128889,-0.38805 2.2225,-0.42333 l 2.010834,-0.0353 -1.763889,-0.21166 -1.763889,-0.21167 1.058333,-0.77611 c 0.599722,-0.42333 1.128889,-0.81139 1.234722,-0.81139 0.07056,0 0.987778,0.35278 2.010834,0.77611 z m -1.905,2.39889 c 3.633607,0 3.280837,0.70556 -0.529167,1.05833 -2.2225,0.21167 -2.328333,0.24695 -0.811389,0.3175 1.023056,0 1.5875,0.17639 1.411111,0.35278 -0.458611,0.38806 -5.115278,0.70556 -5.115278,0.3175 0,-0.14111 0.352778,-0.3175 0.811389,-0.3175 l 0.776111,-0.0705 -0.776111,-0.14112 c -0.458611,-0.0705 -0.811389,-0.24694 -0.811389,-0.35277 0,-0.52917 1.234722,-1.51695 1.693334,-1.34056 0.246944,0.10583 1.763889,0.17639 3.351389,0.17639 z m -1.411111,2.8575 c -0.705556,0.70556 -3.069167,1.34056 -3.527778,0.9525 -1.023056,-0.84667 -0.3175,-1.23472 2.363611,-1.30528 1.093611,-0.0353 1.446389,0.0706 1.164167,0.35278 z m -3.66889,1.55222 c 0.458612,0.24695 0.529167,1.23472 0.105834,1.23472 -0.388056,0 -1.128889,-1.62277 -1.093611,-2.39888 0,-0.45862 0.07056,-0.42334 0.3175,0.14111 0.176389,0.42333 0.458611,0.88194 0.670277,1.02305 z m 4.762501,4.02167 c 3.457227,2.2225 4.515557,3.10444 5.044727,4.02167 0.81138,1.44639 0.45861,1.44639 -1.02306,0 -0.846667,-0.81139 -2.610556,-2.11667 -3.986389,-2.92806 -3.03389,-1.83444 -3.386667,-2.11667 -3.139723,-2.50472 0.282222,-0.45861 0.246945,-0.45861 3.104445,1.41111 z m -3.316112,-0.3175 c 0,0.17639 -0.141111,0.35278 -0.3175,0.35278 -0.211666,0 -0.458611,-0.17639 -0.564444,-0.35278 -0.105833,-0.21167 0.03528,-0.35278 0.3175,-0.35278 0.3175,0 0.564444,0.14111 0.564444,0.35278 z m 1.375834,0.88194 c 0.07055,0.10584 -0.599722,0.17639 -1.516945,0.17639 -0.9525,0 -1.5875,-0.14111 -1.446389,-0.35278 0.176389,-0.3175 2.610556,-0.17638 2.963334,0.17639 z m 2.010833,1.05834 c 0.599723,0.49389 0.423334,0.52916 -2.116667,0.42333 -1.869722,-0.0353 -2.8575,-0.21167 -2.963333,-0.52917 -0.211667,-0.635 4.198056,-0.56444 5.08,0.10584 z m -1.940278,2.99861 c 4.268612,2.82222 5.85611,4.1275 5.53861,4.40972 -0.21166,0.24695 -5.679721,-3.13972 -7.796388,-4.7625 -0.846666,-0.67028 -1.905,-2.11667 -1.552222,-2.11667 0.07056,0 1.799167,1.09362 3.81,2.46945 z m -0.564444,-1.76389 c 0.105833,0.17639 1.305278,0.35278 2.610556,0.35278 1.728611,0 2.54,0.14111 2.8575,0.52916 0.388058,0.45862 0.176389,0.52917 -1.622778,0.49389 -1.905,-0.0353 -4.691945,-0.49389 -3.845278,-0.635 0.211667,-0.0353 -0.03528,-0.28222 -0.529167,-0.56444 -0.635,-0.35278 -0.705555,-0.49389 -0.282222,-0.52917 0.3175,0 0.705556,0.14111 0.811389,0.35278 z m 6.879164,2.36361 c 1.51695,1.30528 0.74084,1.79917 -1.869719,1.19945 -1.658056,-0.38806 -1.975556,-0.67028 -1.305278,-1.12889 0.458611,-0.35278 0.458611,-0.35278 0,-0.21167 -0.282222,0.0706 -0.846667,0.0353 -1.234722,-0.14111 -0.458612,-0.17639 0.03528,-0.28222 1.481666,-0.28222 1.622778,-0.0353 2.398893,0.14111 2.928053,0.56444 z m -0.3175,2.15195 c -0.45861,0.0705 -0.952497,0 -1.128886,-0.17639 -0.211667,-0.21167 0.105833,-0.24695 0.811386,-0.14111 0.98778,0.14111 1.02306,0.21166 0.3175,0.3175 z m 1.27,1.55222 c -0.635,1.48166 -2.716386,3.56305 -4.727219,4.7625 -0.846667,0.49389 -1.516945,0.9525 -1.516945,1.02305 0,0.10584 1.375833,0.0706 3.104445,-0.0353 2.363609,-0.14112 2.857499,-0.10584 2.187219,0.17638 -0.49389,0.21167 -2.081386,0.35278 -3.527775,0.3175 -2.257778,-0.0705 -2.8575,0.0353 -4.1275,0.77612 -1.834445,1.02305 -1.940278,1.48166 -0.282223,1.16416 1.516945,-0.28222 1.587501,0 0.211667,0.74084 -1.199444,0.59972 -2.046111,0.42333 -2.328333,-0.56445 -0.352778,-1.05833 0.423333,-2.01083 2.398889,-2.99861 3.104444,-1.5875 6.596945,-4.05694 7.725835,-5.46806 1.30528,-1.62277 1.5875,-1.5875 0.88194,0.10584 z m -0.9525,-0.77611 c 0,0.17639 -0.14111,0.35277 -0.35277,0.35277 -0.17639,0 -0.35278,-0.17638 -0.35278,-0.35277 0,-0.21167 0.17639,-0.35278 0.35278,-0.35278 0.21166,0 0.35277,0.14111 0.35277,0.35278 z m 1.05834,3.21027 c 0,0.17639 -0.14111,0.3175 -0.35278,0.3175 -0.17639,0 -0.35278,-0.24694 -0.35278,-0.56444 0,-0.28222 0.17639,-0.42333 0.35278,-0.3175 0.21167,0.10583 0.35278,0.35278 0.35278,0.56444 z m -0.10584,2.2225 c -0.14111,0.42334 -4.092219,0.88195 -4.339164,0.49389 -0.07056,-0.14111 0.635,-0.59972 1.5875,-1.05833 0.952504,-0.42333 1.658054,-0.9525 1.587504,-1.16417 -0.10584,-0.17639 0.14111,0.0353 0.56444,0.49389 0.38806,0.45861 0.67028,1.02306 0.59972,1.23472 z m -1.55222,3.10445 c -0.670277,0.635 -0.881944,0.635 -3.774722,0.24694 -1.693333,-0.24694 -2.928055,-0.56444 -2.786944,-0.70555 0.423333,-0.38806 6.949726,-0.91722 7.126116,-0.52917 0.0705,0.14111 -0.17639,0.59972 -0.56445,0.98778 z m 0.81139,0.77611 c -1.02306,1.72861 -3.633612,4.1275 -5.432778,5.00945 -1.093612,0.49388 -2.540001,0.42333 -2.540001,-0.17639 0,-0.14111 1.340556,-0.98778 2.928056,-1.905 2.786945,-1.55223 5.503333,-3.95112 5.573893,-4.93889 0,-0.3175 0.0706,-0.3175 0.21166,0.0353 0.0706,0.24695 -0.24694,1.12889 -0.74083,1.97556 z m -2.398889,0.17639 c 0.246944,0.0353 0.388055,0.17639 0.282222,0.3175 -0.211667,0.35278 -4.092223,-0.28222 -4.092223,-0.635 0,-0.14111 0.740834,-0.10583 1.693334,0.0353 0.917222,0.14111 1.869722,0.28222 2.116667,0.28222 z m -0.987778,1.05833 c 0,0.14111 -0.458611,0.49389 -0.987778,0.81139 -0.987778,0.59972 -1.058333,0.59972 -1.975556,-0.38805 -0.493889,-0.52917 -0.846666,-1.05834 -0.740833,-1.16417 0.246944,-0.24695 3.704167,0.45861 3.704167,0.74083 z m -2.645834,1.72861 c -0.07055,0.0706 -0.635,-0.24694 -1.199444,-0.74083 -0.564445,-0.45861 -0.9525,-0.98778 -0.846667,-1.09361 0.141111,-0.10583 0.670278,0.21167 1.234722,0.74083 0.529167,0.49389 0.917223,1.02306 0.811389,1.09361 z"
       id="path123"
       style="fill:#000080;stroke-width:0.0352778" />
  </g>
</svg>
