<?xml version="1.0" encoding="UTF-8" standalone="no"?>
<!-- Created with Inkscape (http://www.inkscape.org/) -->

<svg
   width="104.28639mm"
   height="103.88033mm"
   viewBox="0 0 104.28639 103.88033"
   version="1.1"
   id="svg5353"
   inkscape:version="1.1 (c68e22c387, 2021-05-23)"
   sodipodi:docname="fractals.svg"
   xmlns:inkscape="http://www.inkscape.org/namespaces/inkscape"
   xmlns:sodipodi="http://sodipodi.sourceforge.net/DTD/sodipodi-0.dtd"
   xmlns="http://www.w3.org/2000/svg"
   xmlns:svg="http://www.w3.org/2000/svg">
  <sodipodi:namedview
     id="namedview5355"
     pagecolor="#ffffff"
     bordercolor="#666666"
     borderopacity="1.0"
     inkscape:pageshadow="2"
     inkscape:pageopacity="0.0"
     inkscape:pagecheckerboard="0"
     inkscape:document-units="mm"
     showgrid="false"
     inkscape:zoom="0.7500982"
     inkscape:cx="528.59745"
     inkscape:cy="178.64328"
     inkscape:window-width="1920"
     inkscape:window-height="1046"
     inkscape:window-x="-11"
     inkscape:window-y="1285"
     inkscape:window-maximized="1"
     inkscape:current-layer="layer1" />
  <defs
     id="defs5350" />
  <g
     inkscape:label="Layer 1"
     inkscape:groupmode="layer"
     id="layer1"
     transform="translate(34.859347,-101.14534)">
    <path
       d="m 11.806403,101.33705 c -8.925278,1.09361 -16.2277785,3.77472 -23.812501,8.81945 -4.691945,3.13972 -10.01889,8.255 -13.123334,12.62944 -12.629446,17.81528 -12.982223,40.78111 -0.9525,59.09028 3.033889,4.62139 9.525,11.07722 14.358056,14.25222 15.7691677,10.37167 35.27778,11.78278 51.858337,3.66889 15.41639,-7.51416 25.964446,-21.59 28.857224,-38.38222 0.705555,-4.23333 0.529166,-15.02833 -0.352778,-18.94417 -4.938889,-21.87222 -22.860002,-38.34695 -44.66167,-41.02806 -2.786944,-0.3175 -9.807222,-0.42333 -12.170834,-0.10583 z m 14.851946,1.55222 c 11.006667,2.11667 19.54389,6.63223 27.446113,14.56973 10.230556,10.30111 15.733889,25.47055 14.393334,39.79333 -2.081389,21.94278 -17.32139,39.89917 -38.417503,45.22612 -24.8355568,6.27944 -50.411947,-6.56167 -60.21917,-30.19778 -2.751667,-6.70278 -3.915834,-13.54667 -3.633611,-21.23723 0.529166,-13.05278 5.538611,-24.58861 14.675556,-33.76083 7.514167,-7.47889 16.5805566,-12.41778 26.140835,-14.18167 1.6580557,-0.3175 3.316111,-0.635 3.704167,-0.70556 0.388055,-0.10583 3.280833,-0.17639 6.420556,-0.21166 4.445,-0.0353 6.561667,0.14111 9.489723,0.70555 z"
       id="path119"
       style="fill:#000080;stroke-width:0.0352778" />
    <path
       d="m 13.92307,103.10094 c -13.0527785,1.05833 -24.341668,6.38528 -33.05528,15.5575 -6.385278,6.73806 -10.689167,14.78139 -12.700001,23.77722 -0.705555,3.13973 -0.811388,4.58612 -0.811388,10.68917 0,5.46806 0.141111,7.69056 0.635,9.98361 4.339166,19.79084 19.22639,34.53695 39.4052798,39.05251 4.0216672,0.88194 13.4761122,1.09361 17.6388902,0.38805 7.373056,-1.27 14.252223,-3.98639 20.672779,-8.14917 4.162778,-2.71639 10.583334,-9.13694 13.476112,-13.51139 3.81,-5.715 6.385278,-11.92389 7.725834,-18.59139 0.9525,-4.72722 0.846666,-14.605 -0.176389,-19.47333 -2.751667,-12.77056 -10.65389,-24.34167 -21.413613,-31.36195 -7.62,-4.93889 -14.922501,-7.47889 -23.812501,-8.255 -3.986389,-0.35278 -4.762501,-0.35278 -7.584723,-0.10583 z m 2.010834,2.75167 c 0.176388,1.16416 0.352777,2.68111 0.423333,3.35138 0.07055,0.70556 0.211667,1.62278 0.352778,2.01084 0.564444,1.76389 -4.374445,7.44361 -8.6783342,10.05417 -5.0447225,2.99861 -11.7122229,4.16277 -16.6511121,2.8575 -1.3405557,-0.35278 -2.5047227,-0.81139 -2.5399997,-0.98778 -0.07056,-0.21167 0.564444,-0.84667 1.3405552,-1.41111 0.8113889,-0.59973 1.9402779,-1.94028 2.5400001,-2.99861 0.9525001,-1.69334 1.0936112,-2.29306 1.0936112,-4.58612 0,-2.61055 0.035278,-2.68111 1.0583334,-3.175 0.5997223,-0.28222 1.1994445,-0.88194 1.4111112,-1.34055 0.1763889,-0.42334 0.5291667,-0.77611 0.7408334,-0.77611 0.3527778,0 1.4816667,-0.49389 4.0922225,-1.79917 0.3527778,-0.17639 0.9525,-0.17639 1.4111112,0 0.4586111,0.17639 1.1641667,0.17639 1.6580556,0 0.7055556,-0.28222 1.0230556,-0.10583 2.2225002,1.27 2.3636112,2.68111 6.067778,4.1275 8.995834,3.4925 1.234722,-0.24694 1.093611,-0.28222 -1.481667,-0.49389 -3.386667,-0.28222 -5.2211113,-1.12889 -7.0202781,-3.21028 l -1.2700001,-1.48166 1.0230556,-0.635 c 0.5644445,-0.35278 1.1641668,-0.88195 1.3405557,-1.19945 0.2116666,-0.3175 0.9525,-0.67028 1.763889,-0.77611 1.3758329,-0.17639 1.3758329,-0.17639 2.0461109,1.51695 0.635,1.69333 3.280834,4.72722 4.127501,4.72722 0.246944,0 -0.246945,-0.67028 -1.093612,-1.51695 -1.5875,-1.51694 -3.069166,-4.19805 -2.681111,-4.86833 0.141111,-0.17639 0.987778,-0.3175 1.869722,-0.24694 l 1.658056,0.10583 z m 2.928055,-0.635 c -0.352777,2.54 -0.917222,4.69194 -1.234722,4.69194 -0.423333,0 -0.987778,-1.94028 -1.27,-4.33917 l -0.211667,-2.01083 h 1.481667 1.481667 z m 4.021667,-1.34056 c 0.458611,0.28222 0.423334,0.56444 -0.176389,1.86972 -1.023055,2.32834 -5.08,6.10306 -4.198055,3.88056 0.141111,-0.3175 0.423333,-1.62278 0.599722,-2.89278 0.211666,-1.27 0.423333,-2.50472 0.493889,-2.75167 0.141111,-0.49389 2.54,-0.56444 3.280833,-0.10583 z m 5.150556,1.69333 c 1.199445,1.19945 1.234722,1.30528 0.740833,2.08139 -0.776111,1.16417 -2.681111,2.50473 -4.409722,3.13973 -1.693333,0.56444 -5.185834,0.70555 -5.468056,0.21166 -0.105833,-0.17639 0.352778,-0.635 0.987778,-1.02305 1.446389,-0.84667 3.175,-3.10445 3.739445,-4.86834 0.423333,-1.19944 0.458611,-1.23472 1.799166,-1.02305 0.881945,0.14111 1.799167,0.67027 2.610556,1.48166 z M 7.043903,105.14705 c -0.4938889,0.56444 -1.763889,0.74083 -1.763889,0.21167 0,-0.38806 0.635,-0.67028 1.5522223,-0.70556 0.5291667,-0.0353 0.5644445,0.0706 0.2116667,0.49389 z m 22.860001,0 c 0.07056,0.0706 0.03528,0.28222 -0.07056,0.49389 -0.282222,0.42333 -1.975556,-0.24695 -1.975556,-0.77611 0,-0.28222 1.728611,-0.0353 2.046111,0.28222 z m -25.4000012,0.77611 c -0.070555,0.42333 -0.4586111,0.635 -1.1288889,0.635 -1.1641668,0 -1.6580557,-0.74083 -0.6702778,-0.98778 1.3758334,-0.35277 1.9050001,-0.24694 1.7991667,0.35278 z m 28.3986132,0 c 0.529166,0.3175 -0.176389,0.81139 -1.164167,0.81139 -1.058333,0 -1.5875,-0.45861 -1.234722,-1.05833 0.211666,-0.3175 1.658055,-0.17639 2.398889,0.24694 z m -31.8558356,0.81139 c 0,0.17639 -0.24694446,0.35278 -0.5291667,0.35278 -0.28222224,0 -0.5291667,-0.17639 -0.5291667,-0.35278 0,-0.21167 0.24694446,-0.35278 0.5291667,-0.35278 0.28222224,0 0.5291667,0.14111 0.5291667,0.35278 z m 33.8666686,0 c 0,0.17639 -0.141111,0.35278 -0.352778,0.35278 -0.176388,0 -0.352777,-0.17639 -0.352777,-0.35278 0,-0.21167 0.176389,-0.35278 0.352777,-0.35278 0.211667,0 0.352778,0.14111 0.352778,0.35278 z m -3.81,0.38806 c 0.493889,0.28222 0.9525,0.28222 1.552222,0.0353 0.599723,-0.28222 0.881945,-0.24694 1.199445,0.14111 0.246944,0.28223 0.705555,0.49389 1.023055,0.49389 0.3175,0 1.023056,0.24695 1.587501,0.52917 0.529166,0.28222 1.234722,0.52917 1.481666,0.52917 0.282223,0 0.493889,0.17639 0.493889,0.42333 0,0.67028 1.481667,2.04611 2.2225,2.04611 0.599723,0 0.670278,0.17639 0.458611,1.5875 -0.176388,1.05834 -0.07056,2.29306 0.352778,3.77472 0.529167,1.905 0.9525,2.54 2.822223,4.37445 l 2.187222,2.18722 -2.010833,0.56445 c -2.892778,0.81138 -8.396112,0.74083 -11.500557,-0.14112 -4.233333,-1.19944 -7.478889,-3.06916 -10.406945,-5.99722 -2.257778,-2.2225 -4.868333,-5.85611 -4.480278,-6.20889 0.03528,-0.0705 0.740834,0.0706 1.552222,0.24695 2.857501,0.74083 7.373056,-1.02306 9.525001,-3.73945 1.128889,-1.41111 0.987778,-1.34055 1.940278,-0.84666 z m -31.8205576,0.3175 c 0,0.17638 -0.14111112,0.35277 -0.3527778,0.35277 -0.1763889,0 -0.3527778,-0.17639 -0.3527778,-0.35277 0,-0.21167 0.1763889,-0.35278 0.3527778,-0.35278 0.21166668,0 0.3527778,0.14111 0.3527778,0.35278 z m 37.3944466,0 c 0,0.17638 -0.141111,0.35277 -0.3175,0.35277 -0.211666,0 -0.458611,-0.17639 -0.564444,-0.35277 -0.105834,-0.21167 0.03528,-0.35278 0.3175,-0.35278 0.3175,0 0.564444,0.14111 0.564444,0.35278 z m -39.1230578,0.81138 c -0.4586112,0.45862 -0.9172223,0.10584 -0.5644445,-0.42333 0.1058333,-0.21167 0.3880556,-0.28222 0.5997223,-0.17639 0.2116666,0.14111 0.2116666,0.35278 -0.035278,0.59972 z m 40.5341688,-0.10583 c 0,0.17639 -0.141111,0.35278 -0.352777,0.35278 -0.176389,0 -0.352778,-0.17639 -0.352778,-0.35278 0,-0.21167 0.176389,-0.35278 0.352778,-0.35278 0.211666,0 0.352777,0.14111 0.352777,0.35278 z m -42.3333356,1.02306 c 0,0.77611 -0.5997223,1.34055 -1.5875001,1.51694 -1.128889,0.17639 -1.0583334,-0.98778 0.070556,-1.62278 1.3052778,-0.70555 1.5169445,-0.70555 1.5169441,0.10584 z m 44.9791696,0.0706 c 1.164167,0.70556 1.234722,0.81139 0.740833,1.30528 -0.458611,0.45861 -0.635,0.45861 -1.411111,-0.0705 -0.493889,-0.3175 -0.917222,-0.88195 -0.917222,-1.27001 0,-0.88194 0.03528,-0.88194 1.5875,0.0353 z m -48.0483365,1.27 c 0.3880556,0.35278 -0.4586111,1.16417 -1.1994445,1.16417 -0.8466667,0 -0.8819445,-0.56444 -0.035278,-1.02306 0.7055556,-0.42333 0.9525001,-0.45861 1.2347225,-0.14111 z m 50.8000035,0.24695 c 0.811389,0.635 0.740833,0.98778 -0.176389,0.84666 -0.458611,-0.0705 -0.846667,-0.38805 -0.917222,-0.74083 -0.141112,-0.70555 0.211666,-0.74083 1.093611,-0.10583 z m -50.2708368,3.03389 c 0.1411112,2.57527 -0.7408333,4.97416 -2.5752779,6.87916 -0.8819443,0.88195 -1.6933333,1.5875 -1.8344443,1.5875 -0.141111,0 -0.282222,-1.37583 -0.282222,-3.06916 0,-1.94028 -0.211667,-3.4925 -0.529167,-4.16278 -0.670278,-1.44639 -0.670278,-1.48167 0.670278,-2.39889 0.846666,-0.59972 1.6227775,-0.77611 2.822222,-0.74083 l 1.6227779,0.0705 z m 53.1988918,-0.98778 c 0.846667,0.59972 1.516945,1.19944 1.446389,1.30528 -1.023055,1.83444 -1.446389,3.35139 -1.446389,5.57389 0,1.41111 -0.141111,2.57527 -0.246944,2.57527 -0.141111,0 -0.9525,-0.77611 -1.799167,-1.72861 -1.763889,-1.97555 -2.8575,-4.79778 -2.681111,-6.985 0.105833,-1.23472 0.176389,-1.34055 1.234722,-1.34055 0.635,-0.0353 1.234723,-0.14111 1.375834,-0.28223 0.388055,-0.35277 0.423333,-0.35277 2.116666,0.88195 z m -27.587223,1.30528 c 2.751666,4.48027 8.643056,8.67833 14.322778,10.16 2.928056,0.77611 9.313334,0.77611 11.747501,0 0.917222,-0.28223 1.658056,-0.42334 1.658056,-0.3175 0,0.14111 -0.246945,1.02305 -0.564445,2.01083 -0.776111,2.43417 -0.776111,8.14917 -0.03528,11.1125 1.411112,5.43278 5.25639,11.00667 9.666112,13.97 1.128889,0.74084 2.187222,1.44639 2.328334,1.5875 0.176388,0.14111 -0.564445,0.74084 -1.622778,1.34056 -1.093612,0.59972 -2.857501,2.01083 -3.951112,3.06916 -5.856111,5.78556 -8.466667,14.35806 -6.702778,21.97806 0.3175,1.23472 0.493889,2.29306 0.423333,2.36361 -0.03528,0.0706 -0.881944,-0.10583 -1.834444,-0.38805 -2.010834,-0.635 -7.796389,-0.70556 -10.477501,-0.14111 -2.716389,0.56444 -7.902222,3.13972 -10.301112,5.11527 -1.834444,1.48167 -4.550833,4.69195 -5.679722,6.63223 -0.282222,0.52916 -0.564445,0.28222 -1.869722,-1.69334 -2.716389,-4.16277 -7.1966676,-7.47889 -12.6647235,-9.41916 -2.89277792,-1.05834 -9.3486117,-1.30528 -12.3825007,-0.52917 -1.2347228,0.3175 -2.2930558,0.56444 -2.3636108,0.56444 -0.07056,0 0.105833,-0.67027 0.423333,-1.51694 0.846667,-2.36361 1.023055,-7.90222 0.282222,-10.93611 -1.375833,-5.85611 -5.291667,-11.60639 -10.054167,-14.67556 -1.093611,-0.70555 -2.046111,-1.37583 -2.116667,-1.51694 -0.105833,-0.14111 0.776111,-0.84667 1.940278,-1.62278 5.468056,-3.56306 8.854723,-8.74889 10.265834,-15.69861 0.670278,-3.175 0.529167,-7.02028 -0.352778,-9.87778 -0.282222,-0.91722 -0.352778,-1.65806 -0.211667,-1.65806 0.176389,0 1.234723,0.24695 2.3636117,0.52917 2.6458335,0.70555 7.4083338,0.67028 10.3011117,-0.0353 6.4911115,-1.62278 12.6647226,-6.10305 15.3811116,-11.18305 0.388056,-0.70556 0.705556,-1.30528 0.740834,-1.30528 0.03528,0 0.635,0.9525 1.340556,2.08139 z m -31.573614,0.70555 c 0.670278,1.19945 1.058334,3.66889 0.846667,5.3975 -0.105833,0.91722 -0.3175,1.69334 -0.423333,1.69334 -0.105834,0 -0.564445,-0.70556 -1.023056,-1.55223 -0.458611,-0.84666 -1.27,-2.08139 -1.834444,-2.71639 l -0.987778,-1.19944 1.305278,-1.12889 c 1.481666,-1.34055 1.658055,-1.37583 2.116666,-0.49389 z m 62.829727,0.91722 1.164166,1.19945 -1.27,1.41111 c -0.705555,0.77611 -1.516944,1.905 -1.834444,2.46944 -0.9525,1.86973 -1.340556,1.34056 -1.164167,-1.48166 0.141111,-2.36361 0.987778,-4.83306 1.622778,-4.83306 0.176389,0 0.811389,0.56445 1.481667,1.23472 z m -64.558338,3.91584 c 0.987778,1.48166 1.693334,2.78694 1.622778,2.89278 -0.246944,0.21166 -2.892778,-1.41112 -4.445,-2.71639 l -1.234723,-1.02306 0.846667,-0.91722 c 0.493889,-0.49389 0.987778,-0.91722 1.128889,-0.91722 0.141111,0 1.093611,1.19944 2.081389,2.68111 z m 67.098338,-1.72861 c 0.846666,0.74083 0.811389,1.09361 -0.141111,1.905 -1.446389,1.19944 -4.198056,2.89277 -4.409723,2.68111 -0.352778,-0.38806 3.033889,-5.18584 3.704167,-5.18584 0.105833,0 0.493889,0.24695 0.846667,0.59973 z m -67.803893,4.05694 c 0.776111,0.45861 1.411111,0.91722 1.411111,1.05833 0,0.42334 -2.398889,0.74084 -3.774723,0.45862 -1.693333,-0.3175 -3.633611,-1.09362 -3.633611,-1.48167 0,-0.17639 0.493889,-0.88195 1.093611,-1.62278 l 1.093611,-1.30528 1.199445,1.02306 c 0.670278,0.59972 1.834444,1.44639 2.610556,1.86972 z m 70.379171,-1.23472 c 0.9525,1.16417 0.987778,1.27 0.388055,1.72861 -0.9525,0.70556 -3.951111,1.23472 -5.538611,0.98778 -1.622778,-0.28222 -1.728611,-0.59972 -0.388056,-1.16417 0.529167,-0.24694 1.658056,-0.9525 2.54,-1.62278 0.881945,-0.635 1.658056,-1.19944 1.763889,-1.19944 0.105834,0 0.635,0.56444 1.234723,1.27 z m -75.141672,2.61055 c 1.340556,0.59973 2.187223,0.70556 4.268612,0.59973 1.446389,-0.0706 2.610555,-0.0353 2.610555,0.10583 0,0.10583 -0.776111,0.9525 -1.728611,1.83444 -1.869722,1.76389 -4.339167,2.71639 -6.949722,2.71639 -1.622778,0 -2.046112,-0.28222 -1.552223,-1.02305 0.141111,-0.28222 0.141111,-0.91722 -0.07055,-1.48167 -0.282223,-0.77611 -0.176389,-1.19944 0.493889,-2.2225 0.458611,-0.70555 0.917222,-1.27 1.023055,-1.27 0.141111,0 0.987778,0.3175 1.905,0.74083 z m 77.611116,0.52917 c 0.776111,0.98778 0.987778,1.69333 1.023056,3.175 0.03528,1.5875 -0.07056,1.905 -0.670278,2.04611 -2.54,0.70556 -6.0325,-0.59972 -8.5725,-3.21028 -1.940278,-1.94027 -2.151945,-2.82222 -0.564445,-2.2225 1.375833,0.52917 4.021667,0.38806 5.785556,-0.35277 0.881945,-0.35278 1.693333,-0.635 1.799167,-0.67028 0.141111,-0.0353 0.670278,0.52917 1.199444,1.23472 z m -69.250282,1.97556 c 0.246945,1.09361 0.458611,3.59833 0.423334,5.92666 0,3.45723 -0.141112,4.48028 -0.987778,6.87917 -1.27,3.70417 -2.681112,6.10306 -5.115278,8.71361 -1.728612,1.905 -5.644445,4.86834 -6.385279,4.86834 -0.141111,0 -0.176389,-1.02306 -0.105833,-2.25778 0.282222,-3.21028 -0.564444,-5.46806 -2.928056,-7.90222 -1.552222,-1.62278 -1.799166,-2.04612 -1.552222,-2.71639 0.211667,-0.52917 0.141111,-1.09361 -0.176389,-1.69334 -0.388055,-0.77611 -0.388055,-0.98777 0.03528,-1.34055 0.282222,-0.24695 0.458611,-0.59972 0.388055,-0.81139 -0.07055,-0.21167 0.176389,-0.91722 0.529167,-1.55222 0.352778,-0.635 0.635,-1.34056 0.635,-1.5875 0,-0.24695 0.529167,-0.59973 1.164167,-0.77611 0.846667,-0.28223 1.199444,-0.635 1.481667,-1.48167 0.282222,-1.09361 0.388055,-1.12889 1.5875,-0.9525 2.928056,0.45861 7.690556,-1.62278 9.348611,-4.09222 0.388056,-0.56445 0.811389,-1.05834 0.952501,-1.05834 0.105833,0 0.423333,0.84667 0.705555,1.83445 z m 59.690004,-0.59973 c 1.834444,2.78695 4.445,4.16278 8.113889,4.30389 2.504723,0.0706 2.822223,0.14112 3.175001,0.88195 0.211666,0.45861 0.846666,1.02305 1.340555,1.27 0.670278,0.3175 1.023056,0.81139 1.199445,1.65805 0.105833,0.67028 0.423333,1.37584 0.705555,1.62278 0.282223,0.21167 0.423334,0.52917 0.3175,0.67028 -0.105833,0.17639 -0.03528,0.42333 0.176389,0.52917 0.211667,0.14111 0.282222,0.88194 0.141111,1.905 -0.141111,1.16416 -0.07056,1.79916 0.176389,1.97555 0.282222,0.14111 -0.176389,0.81139 -1.305278,1.905 -0.987777,0.91722 -2.010833,2.18722 -2.328333,2.78695 -0.881945,1.69333 -1.305278,4.51555 -0.9525,6.10305 0.388055,1.76389 0.07055,1.76389 -2.434167,0.0706 -4.515556,-2.99861 -8.360834,-8.32556 -9.736667,-13.51139 -0.3175,-1.27 -0.599723,-3.70417 -0.635,-5.46806 -0.03528,-3.10444 0.670277,-7.58472 1.199444,-7.58472 0.141111,0 0.529167,0.38806 0.846667,0.88194 z m -71.931394,2.25778 c -0.211666,0.74084 -1.023055,0.98778 -1.375833,0.45861 -0.105833,-0.17638 0.07056,-0.67027 0.388056,-1.09361 0.635,-0.9525 1.375833,-0.49389 0.987777,0.635 z m 83.784728,-0.14111 c 0.564444,1.02306 0.246944,1.51695 -0.529167,0.88195 -0.564444,-0.45861 -0.740833,-1.76389 -0.246944,-1.76389 0.176389,0 0.529167,0.38805 0.776111,0.88194 z m -84.490283,1.5875 c 0.493889,0.81139 -1.481667,2.78695 -2.293056,2.29306 -0.529167,-0.3175 0.740834,-2.64584 1.446389,-2.64584 0.352778,0 0.740834,0.14112 0.846667,0.35278 z m 86.042505,1.09361 c 0.352778,0.59973 0.564445,1.16417 0.458611,1.27 -0.388055,0.35278 -1.728611,-0.35277 -1.975555,-1.05833 -0.635,-1.62278 0.564444,-1.79917 1.516944,-0.21167 z m -88.688339,2.43417 c 0,0.17639 -0.141111,0.35278 -0.352777,0.35278 -0.176389,0 -0.352778,-0.17639 -0.352778,-0.35278 0,-0.21167 0.176389,-0.35278 0.352778,-0.35278 0.211666,0 0.352777,0.14111 0.352777,0.35278 z m 89.958339,0.38806 c 0,0.17638 -0.141111,0.3175 -0.352777,0.3175 -0.176389,0 -0.352778,-0.24695 -0.352778,-0.56445 0,-0.28222 0.176389,-0.42333 0.352778,-0.3175 0.211666,0.10583 0.352777,0.35278 0.352777,0.56445 z m -90.663894,0.98777 c 0,0.21167 -0.141111,0.45861 -0.352778,0.56445 -0.176389,0.10583 -0.352778,-0.0353 -0.352778,-0.3175 0,-0.3175 0.176389,-0.56445 0.352778,-0.56445 0.211667,0 0.352778,0.14111 0.352778,0.3175 z m 91.36945,0.38806 c 0,0.17639 -0.141111,0.35278 -0.352778,0.35278 -0.176389,0 -0.352778,-0.17639 -0.352778,-0.35278 0,-0.21167 0.176389,-0.35278 0.352778,-0.35278 0.211667,0 0.352778,0.14111 0.352778,0.35278 z m -92.075006,1.41111 c 0,0.17639 -0.141111,0.35278 -0.352778,0.35278 -0.176389,0 -0.352777,-0.17639 -0.352777,-0.35278 0,-0.21167 0.176388,-0.35278 0.352777,-0.35278 0.211667,0 0.352778,0.14111 0.352778,0.35278 z m 92.780562,0.38806 c 0,0.17638 -0.141112,0.3175 -0.352778,0.3175 -0.176389,0 -0.352778,-0.24695 -0.352778,-0.56445 0,-0.28222 0.176389,-0.42333 0.352778,-0.3175 0.211666,0.10583 0.352778,0.35278 0.352778,0.56445 z m -93.13334,1.72861 c 0.458612,0.88194 0.141112,2.11666 -0.564444,2.11666 -0.740833,0 -0.9525,-0.77611 -0.529167,-1.86972 0.458611,-1.12889 0.599722,-1.16417 1.093611,-0.24694 z m 94.050562,2.01083 c -0.141111,0.28222 -0.388056,0.45861 -0.635,0.38806 -0.635,-0.21167 -0.917222,-1.44639 -0.564445,-2.39889 l 0.352778,-0.88195 0.529167,1.19945 c 0.282222,0.635 0.423333,1.41111 0.3175,1.69333 z m -94.756117,1.09361 c 0,0.81139 -0.846667,1.97556 -1.305278,1.79917 -0.529167,-0.21167 0.176389,-2.43417 0.776111,-2.43417 0.282222,0 0.529167,0.28222 0.529167,0.635 z m 95.391117,0.28222 c 0.3175,0.81139 0.246944,1.55223 -0.141111,1.55223 -0.458611,0 -1.128889,-1.34056 -0.881945,-1.76389 0.3175,-0.52917 0.776111,-0.42334 1.023056,0.21166 z m -92.851117,1.09361 c 2.2225,2.36362 2.998611,4.55084 2.822222,8.14917 l -0.07056,1.16417 -1.869723,-1.905 c -1.305277,-1.34056 -2.434166,-2.15195 -3.704166,-2.57528 -1.658056,-0.59972 -1.834445,-0.77611 -1.834445,-1.72861 0,-1.23472 0.211667,-1.5875 1.481667,-2.36361 0.493889,-0.35278 1.023055,-0.9525 1.164166,-1.34056 0.317501,-0.98778 0.564445,-0.91722 2.010834,0.59972 z m 91.298895,-0.45861 c 0,0.28223 0.458611,0.88195 1.023055,1.34056 0.670278,0.49389 1.128889,1.27 1.27,2.08139 0.211667,1.19944 0.176389,1.30528 -0.9525,1.69333 -1.728611,0.59972 -3.704167,2.08139 -4.833056,3.63361 -0.811389,1.05834 -1.058333,1.23473 -1.234722,0.81139 -0.811389,-2.15194 0.458611,-6.31472 2.610556,-8.5725 1.481667,-1.55222 2.116667,-1.83444 2.116667,-0.98778 z m -92.81584,6.56167 c 1.340556,0.67028 3.492501,2.99861 3.139723,3.35139 -0.105834,0.10583 -0.635,0 -1.234722,-0.17639 -0.564445,-0.21167 -2.081389,-0.49389 -3.316112,-0.635 l -2.257778,-0.24694 0.141111,-1.5875 c 0.03528,-0.88195 0.176389,-1.69334 0.246945,-1.83445 0.176389,-0.28222 1.234722,0.0706 3.280833,1.12889 z m 95.638062,0.67028 v 1.72861 l -2.575278,0.35278 c -1.446389,0.21166 -2.8575,0.49389 -3.175,0.635 -0.9525,0.35278 -0.705556,-0.3175 0.705555,-1.72861 1.375834,-1.44639 3.421945,-2.68111 4.445001,-2.71639 0.493889,0 0.599722,0.3175 0.599722,1.72861 z m -94.86195,2.75167 c 1.375833,0.3175 2.398889,0.74083 2.328333,0.9525 -0.211667,0.59972 -2.681111,1.19944 -4.903611,1.23472 l -2.046112,0.0353 v -1.16417 c 0,-0.67028 0.105834,-1.30528 0.246945,-1.41111 0.388055,-0.38806 1.799167,-0.28222 4.374445,0.35278 z m 94.86195,1.16416 c 0,1.27 -0.07056,1.41111 -0.917222,1.41111 -1.552223,0 -5.820834,-1.16416 -5.679723,-1.55222 0.176389,-0.49389 2.892778,-1.19944 4.938889,-1.23472 l 1.658056,-0.0353 z m -7.937501,3.24556 c 0,2.43416 0.176389,3.59833 0.635001,4.55083 0.705555,1.37583 2.54,3.52778 3.4925,4.05695 0.564444,0.28222 0.564444,0.49389 0.211666,1.48166 -0.352777,0.91723 -0.352777,1.30528 0,1.83445 0.282223,0.45861 0.3175,0.91722 0.105834,1.30528 -1.27,2.54 -1.799167,3.77472 -1.799167,4.1275 0,0.21166 -0.458611,0.59972 -1.058333,0.81138 -0.599723,0.21167 -1.128889,0.74084 -1.234723,1.23473 -0.211666,0.77611 -0.352778,0.84666 -2.928055,0.81139 -2.257778,0 -3.03389,0.17638 -4.727223,0.98777 -1.834445,0.91723 -3.81,2.68112 -4.268611,3.84528 -0.3175,0.81139 -0.881945,-0.38805 -1.340556,-2.92805 -1.340556,-7.58473 1.27,-15.73389 6.773334,-20.99028 1.622778,-1.55223 5.362222,-4.30389 5.961945,-4.33917 0.105833,-0.0353 0.176388,1.44639 0.176388,3.21028 z m -80.327505,-1.51695 c 4.233334,2.8575 7.690556,7.54945 9.454445,12.73528 0.846667,2.46945 0.917223,10.26584 0.141112,12.62945 l -0.529167,1.48166 -1.234722,-1.65805 c -0.881945,-1.19945 -1.905001,-2.04611 -3.527778,-2.8575 -2.046112,-1.05834 -2.540001,-1.16417 -4.727223,-1.05834 -2.257778,0.10584 -2.434167,0.0353 -2.716389,-0.70555 -0.176389,-0.45861 -0.776111,-1.02306 -1.340556,-1.23472 -0.564444,-0.21167 -1.199444,-0.70556 -1.375833,-1.09361 -1.340556,-2.82223 -1.728611,-3.95112 -1.516945,-4.26862 0.599723,-0.77611 0.670278,-1.55222 0.211667,-2.39888 -0.423333,-0.81139 -0.352778,-0.9525 1.093611,-2.15195 0.846667,-0.70555 1.975556,-2.04611 2.504723,-2.96333 0.881944,-1.48167 0.987777,-2.01084 0.987777,-4.72723 0,-1.72861 0.141112,-3.10444 0.282223,-3.10444 0.141111,0 1.199444,0.59972 2.293055,1.37583 z m -4.480278,-0.42333 c -0.846666,1.5875 -4.233333,3.98639 -5.573889,3.98639 -0.635,0 -0.811389,-0.21167 -0.811389,-0.98778 0,-0.52917 -0.105833,-1.30528 -0.211666,-1.69333 -0.176389,-0.70556 0,-0.77611 2.2225,-1.02306 1.305278,-0.14111 2.716389,-0.38805 3.104444,-0.52916 1.199445,-0.52917 1.658056,-0.42334 1.27,0.24694 z m 1.552223,2.92806 c -0.246945,2.15194 -1.693334,5.00944 -3.210278,6.35 l -1.234723,1.09361 -0.9525,-1.02306 c -0.529166,-0.56444 -1.164166,-1.09361 -1.411111,-1.16416 -0.282222,-0.10584 -0.599722,-0.84667 -0.776111,-1.65806 l -0.246944,-1.51695 2.151944,-0.98777 c 1.446389,-0.635 2.681111,-1.55223 3.739445,-2.75167 l 1.5875,-1.76389 0.282222,0.91722 c 0.141111,0.49389 0.176389,1.62278 0.07056,2.50473 z m 85.795561,-3.13973 c 0.529166,0.21167 1.940278,0.49389 3.104444,0.59973 l 2.116667,0.24694 0.105833,1.55222 c 0.176389,2.36361 -0.03528,2.61056 -1.552222,1.97556 -1.728611,-0.70556 -3.704167,-2.32834 -4.480278,-3.66889 -0.705556,-1.23472 -0.705556,-1.23472 0.705556,-0.70556 z m 1.058333,3.38667 c 0.529167,0.38806 1.693333,1.05833 2.504722,1.48167 1.516945,0.77611 1.552223,0.84666 1.305278,2.08139 -0.141111,0.70555 -0.388055,1.37583 -0.599722,1.44639 -0.529167,0.17638 -1.5875,1.27 -1.763889,1.83444 -0.246944,0.67028 -2.928056,-1.86972 -3.81,-3.56306 -0.776111,-1.55222 -1.199445,-4.16277 -0.881945,-5.60916 l 0.246945,-1.12889 0.987778,1.37583 c 0.564444,0.77611 1.446389,1.69333 2.010833,2.08139 z m -92.674728,6.45583 c 0.211667,0.38806 0.282222,0.88195 0.176389,1.05834 -0.3175,0.52916 -1.234722,0.42333 -1.234722,-0.14111 0,-0.28223 -0.105834,-0.74084 -0.211667,-1.05834 -0.3175,-0.84666 0.811389,-0.70555 1.27,0.14111 z m 95.955562,-0.10583 c 0,0.98778 -0.599723,1.76389 -1.023056,1.34056 -0.282222,-0.28223 -0.211667,-0.635 0.176389,-1.16417 0.635,-0.9525 0.846667,-0.98778 0.846667,-0.17639 z m -94.861951,2.71639 c 0.388056,0.81139 -0.03528,2.32833 -0.670278,2.32833 -0.3175,0 -1.128889,-2.54 -0.917222,-2.89277 0.352778,-0.56445 1.234722,-0.24695 1.5875,0.56444 z m 93.980006,0.45861 c -0.282222,1.69333 -0.740833,2.15195 -1.058333,1.16417 -0.352778,-1.05834 0.07055,-2.46945 0.740833,-2.46945 0.458611,0 0.529167,0.24695 0.3175,1.30528 z m -94.121117,3.35139 c -0.105833,0.28222 -0.211667,0.17639 -0.211667,-0.21167 -0.03528,-0.38805 0.07056,-0.59972 0.176389,-0.45861 0.105834,0.10584 0.141111,0.42334 0.03528,0.67028 z m 93.098061,0.17639 c -0.352777,0.35278 -0.670277,-0.17639 -0.352777,-0.635 0.211666,-0.38806 0.282222,-0.38806 0.423333,0 0.07056,0.24694 0.03528,0.52917 -0.07056,0.635 z m -92.286672,1.37583 c 0,0.28222 -0.141111,0.42334 -0.352778,0.3175 -0.176389,-0.10583 -0.352778,-0.35278 -0.352778,-0.56444 0,-0.17639 0.176389,-0.3175 0.352778,-0.3175 0.211667,0 0.352778,0.24694 0.352778,0.56444 z m 91.722228,-0.21166 c 0,0.17638 -0.176389,0.35277 -0.388056,0.35277 -0.176388,0 -0.246944,-0.17639 -0.141111,-0.35277 0.105834,-0.21167 0.282223,-0.35278 0.388056,-0.35278 0.07055,0 0.141111,0.14111 0.141111,0.35278 z m -91.016672,1.79916 c 0,0.21167 -0.141112,0.24695 -0.352778,0.14111 -0.176389,-0.10583 -0.352778,-0.38805 -0.352778,-0.56444 0,-0.21167 0.176389,-0.24695 0.352778,-0.14111 0.211666,0.10583 0.352778,0.38805 0.352778,0.56444 z m 90.170005,0.21167 c -0.352778,0.35278 -0.670278,-0.17639 -0.352778,-0.635 0.211667,-0.38806 0.282223,-0.38806 0.423334,0 0.07055,0.24694 0.03528,0.52917 -0.07056,0.635 z m -87.87695,1.51694 c 0.529167,0.56445 0.529167,0.77611 0.176389,1.23473 -0.705555,0.84666 -1.234722,0.635 -1.869722,-0.70556 -0.599722,-1.23472 -0.599722,-1.23472 0.246944,-1.23472 0.423334,0 1.093611,0.3175 1.446389,0.70555 z m 86.712784,0.88195 c -0.635,1.34055 -0.740834,1.37583 -1.481667,0.91722 -0.423334,-0.28222 -0.423334,-0.45861 0.105833,-1.23472 0.3175,-0.49389 0.881945,-0.91722 1.27,-0.91722 0.670278,0 0.670278,0.0353 0.105834,1.23472 z m -79.375005,1.09361 c 1.481666,0.49389 4.833055,3.24556 4.833055,3.98639 0,0.10583 -1.234722,0.24694 -2.716389,0.21167 -2.293055,0 -3.033889,0.17638 -4.550833,0.9525 l -1.834445,0.9525 -0.917222,-1.37584 c -0.776111,-1.19944 -0.846667,-1.51694 -0.493889,-2.29305 0.282222,-0.635 0.282222,-1.09362 0,-1.72862 -0.211667,-0.45861 -0.282222,-0.9525 -0.176389,-1.05833 0.423333,-0.42333 4.268611,-0.21167 5.856112,0.35278 z m 76.552782,0.0353 c 0.105833,0.17639 0.03528,0.59972 -0.105833,0.98777 -0.141111,0.38806 -0.105834,1.09362 0.03528,1.51695 0.246944,0.67028 0.105833,1.09361 -0.740834,2.18722 l -1.093611,1.37584 -1.128889,-0.67028 c -1.693333,-1.02306 -4.445,-1.51695 -6.173611,-1.12889 -0.811389,0.21167 -1.481667,0.24694 -1.481667,0.10583 0.03528,-0.28222 1.728611,-2.18722 2.716389,-2.99861 0.423333,-0.35278 1.375833,-0.84667 2.116667,-1.12889 1.446389,-0.49389 5.609167,-0.67028 5.856111,-0.24694 z m -82.726394,0.91722 c 0.07056,0.35278 0.03528,0.91722 -0.105833,1.23472 -0.176389,0.45861 -0.3175,0.38806 -0.881945,-0.45861 -0.917222,-1.37583 -0.881944,-1.65806 0.07056,-1.51694 0.458611,0.0705 0.846666,0.38805 0.917222,0.74083 z m 84.38445,-0.14111 c 0,0.17639 -0.3175,0.67028 -0.705556,1.12889 -0.529167,0.67027 -0.670278,0.74083 -0.705555,0.24694 0,-0.9525 0.388055,-1.69333 0.917222,-1.69333 0.282222,0 0.493889,0.14111 0.493889,0.3175 z M 0.62334704,181.3824 c 4.90361146,0.98778 10.30111196,4.09223 13.15861196,7.62 1.234722,1.48167 3.139722,4.33917 3.139722,4.65667 0,0.10583 -0.776111,0.0706 -1.728611,-0.0353 -3.421944,-0.38805 -7.6200003,1.51695 -9.4897226,4.26861 -0.7761112,1.12889 -0.9172223,1.19945 -1.7286113,0.81139 -0.5997222,-0.28222 -1.1288889,-0.28222 -1.8344445,-0.0353 -0.9172223,0.35277 -1.128889,0.3175 -2.75166686,-0.49389 -1.02305564,-0.52917 -1.41111124,-0.52917 -0.88194454,0 0.2469445,0.24694 0.4233334,0.56444 0.4233334,0.74083 0,0.45861 -2.7869446,-2.61056 -2.9986113,-3.31611 -0.1058333,-0.3175 -0.5997223,-0.74084 -1.0936112,-0.98778 -0.8466667,-0.38806 -0.8819445,-0.49389 -0.6702778,-2.15194 0.4586111,-3.28084 -1.2700001,-7.12612 -4.1275003,-9.17223 l -1.411111,-1.05833 0.987778,-0.38806 c 2.7869443,-1.05833 7.1261112,-1.27 11.00666704,-0.45861 z m 43.92083596,0.17639 c 0.917222,0.24695 1.658056,0.56445 1.658056,0.70556 0,0.14111 -0.352778,0.45861 -0.776111,0.77611 -2.928056,1.905 -4.62139,5.11528 -4.586112,8.71361 0.03528,2.18722 -0.03528,2.39889 -0.846666,2.78694 -0.458612,0.21167 -1.023056,0.77612 -1.199445,1.23473 -0.423333,1.16416 -3.4925,2.82222 -4.938889,2.68111 -0.282222,-0.0353 -1.164167,-0.0706 -1.940278,-0.10583 -1.164167,-0.0706 -1.693334,-0.35278 -2.963334,-1.62278 -0.811389,-0.81139 -2.398889,-1.905 -3.457222,-2.39889 -1.658056,-0.77611 -2.328334,-0.88195 -4.727223,-0.74084 -1.516944,0.0706 -2.786944,0.0353 -2.786944,-0.0705 0,-0.10583 0.423333,-0.81139 0.9525,-1.5875 4.092222,-6.10306 8.466667,-8.99583 16.510001,-10.90083 1.27,-0.3175 7.373056,0.0353 9.101667,0.52916 z m -58.137781,0.635 c 0.105833,0.17639 -0.141111,0.45861 -0.529167,0.56445 -0.423333,0.14111 -1.763889,0.98777 -2.998611,1.94027 l -2.2225,1.69334 -1.093612,-1.12889 c -0.599722,-0.635 -1.093611,-1.30528 -1.093611,-1.51695 0,-0.74083 3.280834,-1.83444 5.538612,-1.86972 1.199444,0 2.257778,0.14111 2.398889,0.3175 z m 67.274726,0.0353 c 0.705556,0.21167 1.622778,0.635 2.010834,0.98778 l 0.740833,0.59972 -1.164167,1.37583 -1.164166,1.37584 -1.975556,-1.62278 c -1.093611,-0.88195 -2.328334,-1.69333 -2.716389,-1.83445 -0.423334,-0.10583 -0.740834,-0.45861 -0.740834,-0.74083 0,-0.59972 2.998612,-0.67028 5.009445,-0.14111 z m -67.239449,2.18722 c -0.493888,0.88195 -1.446389,2.18722 -2.116666,2.96334 -0.987778,1.12888 -1.305278,1.30527 -1.834445,0.98777 -1.411111,-0.84666 -1.446389,-1.55222 -0.141111,-2.68111 1.340556,-1.16416 4.656667,-3.13972 4.868334,-2.92805 0.07056,0.0705 -0.282223,0.81139 -0.776112,1.65805 z m 65.651949,1.16417 1.5875,1.30528 -0.987778,1.02305 c -0.917222,0.9525 -1.023055,0.98778 -1.622778,0.42334 -0.917222,-0.81139 -3.457222,-4.7625 -3.457222,-5.32695 0,-0.56444 2.293056,0.74083 4.480278,2.57528 z M -9.8541536,183.9577 c 0.6702778,0.56445 1.6933334,1.86972 2.2577779,2.89278 0.8819445,1.62278 1.0583334,2.29305 1.0583334,4.445 0,1.37583 -0.1058333,2.61055 -0.2116667,2.75167 -0.1411111,0.10583 -0.635,0.0353 -1.0936112,-0.21167 -0.6702778,-0.28222 -1.0936111,-0.28222 -1.6580556,0 -0.6350002,0.35278 -0.9877782,0.28222 -2.1519442,-0.56445 -0.776112,-0.52916 -1.411112,-1.12888 -1.411112,-1.27 0,-0.14111 0.352778,-0.9525 0.776112,-1.76388 0.635,-1.19945 0.811389,-2.08139 0.811389,-4.40973 0,-1.5875 0.07056,-2.89277 0.176388,-2.89277 0.105834,0 0.740834,0.45861 1.4463894,1.02305 z m 56.1269476,1.72861 c -0.141111,2.32834 -0.03528,3.03389 0.670278,4.65667 l 0.811389,1.905 -0.987778,0.70555 c -1.375833,1.05834 -5.009444,1.05834 -5.291667,0.0353 -0.705555,-2.50472 0.388056,-5.715 2.751667,-8.14916 1.023056,-1.05834 1.940278,-1.905 2.010834,-1.905 0.105833,0 0.141111,1.23472 0.03528,2.75166 z m -58.349448,0.49389 c -0.141111,2.57528 -1.058333,5.22111 -1.799167,5.22111 -0.211666,0 -0.917222,-0.49389 -1.552222,-1.12889 l -1.128889,-1.09361 1.446389,-1.62278 c 0.776111,-0.88194 1.658056,-2.15194 1.975556,-2.78694 0.881944,-1.79917 1.234722,-1.34056 1.058333,1.41111 z m 60.148615,-0.9525 c 0.3175,0.67028 1.128889,1.83445 1.834445,2.57528 0.670278,0.77611 1.234722,1.48167 1.234722,1.5875 0,0.10583 -0.635,0.67028 -1.411111,1.30528 l -1.375834,1.09361 -0.670277,-1.34056 c -0.670278,-1.30528 -0.917223,-2.92805 -0.811389,-5.32694 0.03528,-1.44639 0.458611,-1.44639 1.199444,0.10583 z m -22.613057,9.63083 c 1.5875,0.67028 4.162778,3.03389 4.162778,3.73945 0,0.21167 -0.493889,0.67028 -1.058333,0.98778 -0.599722,0.3175 -1.058334,0.84666 -1.058334,1.12889 0,0.70555 -1.093611,1.27 -2.434166,1.27 -0.9525,0 -1.093612,-0.17639 -1.446389,-1.34056 -0.458612,-1.79917 -2.151945,-4.09222 -3.704167,-5.08 -0.670278,-0.45861 -1.234723,-0.91722 -1.234723,-1.05833 0,-0.84667 4.586112,-0.635 6.773334,0.35277 z m 18.415001,-0.77611 c 0.811389,0.3175 0.705556,0.67028 -0.388055,1.16417 -1.234723,0.56444 -2.046112,-0.10583 -1.023056,-0.88194 0.811389,-0.56445 0.705556,-0.56445 1.411111,-0.28223 z m -51.3997251,0.52917 c 0.2116666,0.21167 0.3175,0.635 0.2116666,0.88194 -0.1411111,0.38806 -0.3527778,0.38806 -1.1994445,-0.10583 -0.5644445,-0.35278 -1.0230556,-0.74083 -1.0230556,-0.88194 0,-0.42334 1.5875001,-0.3175 2.0108335,0.10583 z m 23.7419461,-0.0706 c 0,0.17639 -0.388056,0.56445 -0.846667,0.88195 -1.340556,0.84667 -2.751667,2.89278 -3.421945,4.90361 -0.352777,1.02306 -0.776111,1.83445 -0.987777,1.79917 -0.211667,-0.0353 -0.846667,-0.0706 -1.3758338,-0.10584 -0.6702779,0 -1.5169446,-0.52916 -2.5047224,-1.48166 l -1.4816668,-1.44639 0.7761112,-1.16417 c 0.8819445,-1.27 2.6811113,-2.61055 4.3391668,-3.24555 1.305278,-0.49389 5.503334,-0.59973 5.503334,-0.14112 z m -21.0961126,0.98778 c 0.7408333,0.67028 0.8466667,1.86972 0.1763889,1.86972 -0.3527778,0 -1.4816668,-0.59972 -2.3283335,-1.27 -0.2116667,-0.21166 0.7408334,-1.19944 1.1288889,-1.19944 0.2116667,0 0.6702779,0.24694 1.0230557,0.59972 z m 46.6372256,-0.0353 c 0.282222,0.70556 0.352777,0.59973 -1.093612,1.34056 -1.411111,0.70556 -1.516944,0.70556 -1.516944,0 0,-1.62278 2.081389,-2.68111 2.610556,-1.34056 z m -25.717502,1.72862 c -0.282222,0.91722 -0.529167,2.36361 -0.529167,3.13972 0,1.97555 -0.282222,2.2225 -2.010833,2.04611 -1.446389,-0.14111 -1.516945,-0.21167 -1.305278,-1.09361 0.423333,-1.62278 1.622778,-3.70417 2.892778,-4.90361 0.670278,-0.635 1.27,-1.09361 1.340555,-1.02306 0.07056,0.0353 -0.105833,0.88195 -0.388055,1.83445 z m 2.54,2.89277 0.211667,2.57528 h -1.305278 c -0.811389,0 -1.375834,-0.17639 -1.481667,-0.52916 -0.246944,-0.59973 0.423333,-4.69195 0.987778,-6.10306 l 0.352778,-0.9525 0.529166,1.23472 c 0.282223,0.67028 0.599723,2.36361 0.705556,3.77472 z m 1.869722,-3.38666 c 1.446389,1.41111 2.786945,3.81 2.822223,4.97416 0,0.52917 -0.3175,0.635 -1.5875,0.635 -0.881945,0 -1.693334,0 -1.834445,0 -0.176389,0.0353 -0.458611,-1.05833 -0.670278,-2.36361 -0.211666,-1.30527 -0.493889,-2.92805 -0.635,-3.56305 -0.352778,-1.51695 0.07056,-1.44639 1.905,0.3175 z m 17.991668,1.02305 c 0,0.17639 -0.141111,0.35278 -0.352778,0.35278 -0.176389,0 -0.352777,-0.17639 -0.352777,-0.35278 0,-0.21166 0.176388,-0.35278 0.352777,-0.35278 0.211667,0 0.352778,0.14112 0.352778,0.35278 z m -1.411111,0.70556 c 0,0.17639 -0.141111,0.35278 -0.352778,0.35278 -0.176389,0 -0.352778,-0.17639 -0.352778,-0.35278 0,-0.21167 0.176389,-0.35278 0.352778,-0.35278 0.211667,0 0.352778,0.14111 0.352778,0.35278 z m -3.845278,0.35278 c 0.9525,0.52916 0.846667,0.91722 -0.458611,1.37583 -0.917222,0.3175 -1.234722,0.3175 -1.658056,-0.14111 -0.529167,-0.52917 -0.493889,-0.635 0.105834,-1.09361 0.846666,-0.59972 1.093611,-0.59972 2.010833,-0.14111 z m -32.6672243,0.35277 c 0.10583334,0.17639 -0.0352778,0.35278 -0.31750002,0.35278 -0.31750002,0 -0.56444448,-0.17639 -0.56444448,-0.35278 0,-0.21166 0.14111112,-0.35277 0.31750002,-0.35277 0.21166668,0 0.45861114,0.14111 0.56444448,0.35277 z m 3.5630558,0.14112 c 0.9525,0.74083 0.2116667,1.41111 -1.2347223,1.09361 -1.4111112,-0.3175 -1.6933335,-0.81139 -0.6702778,-1.19945 1.0936111,-0.45861 1.0936111,-0.45861 1.9050001,0.10584 z m 31.3619465,-0.14112 c -0.105833,0.17639 -0.352778,0.35278 -0.564445,0.35278 -0.176388,0 -0.3175,-0.17639 -0.3175,-0.35278 0,-0.21166 0.246945,-0.35277 0.564445,-0.35277 0.282222,0 0.423333,0.14111 0.3175,0.35277 z m -4.974167,0.88195 c 0.246944,0.635 -0.917222,1.30528 -2.010834,1.16417 l -0.776111,-0.10584 0.811389,-0.81139 c 0.881945,-0.88194 1.658056,-0.98777 1.975556,-0.24694 z m -23.4950016,1.19944 c 0.1058334,0.35278 -0.070555,0.38806 -0.6702778,0.21167 -1.1288889,-0.35278 -1.5169445,-0.74083 -1.1994445,-1.23472 0.2822222,-0.45861 1.6227779,0.28222 1.8697223,1.02305 z"
       id="path121"
       style="fill:#000080;stroke-width:0.0352778" />
  </g>
</svg>
