<?xml version="1.0" encoding="UTF-8" standalone="no"?>
<svg
   xmlns:dc="http://purl.org/dc/elements/1.1/"
   xmlns:cc="http://creativecommons.org/ns#"
   xmlns:rdf="http://www.w3.org/1999/02/22-rdf-syntax-ns#"
   xmlns:svg="http://www.w3.org/2000/svg"
   xmlns="http://www.w3.org/2000/svg"
   xmlns:sodipodi="http://sodipodi.sourceforge.net/DTD/sodipodi-0.dtd"
   xmlns:inkscape="http://www.inkscape.org/namespaces/inkscape"
   width="336.25812mm"
   height="77.474342mm"
   viewBox="0 0 336.25812 77.474344"
   version="1.1"
   id="svg8"
   sodipodi:docname="EVS_logo.svg"
   inkscape:version="1.0.1 (3bc2e813f5, 2020-09-07)">
  <defs
     id="defs2" />
  <sodipodi:namedview
     id="base"
     pagecolor="#ffffff"
     bordercolor="#666666"
     borderopacity="1.0"
     inkscape:pageopacity="0.0"
     inkscape:pageshadow="2"
     inkscape:zoom="0.35"
     inkscape:cx="-59.242069"
     inkscape:cy="688.00851"
     inkscape:document-units="mm"
     inkscape:current-layer="layer1"
     inkscape:document-rotation="0"
     showgrid="false"
     inkscape:window-width="1908"
     inkscape:window-height="1054"
     inkscape:window-x="8"
     inkscape:window-y="1097"
     inkscape:window-maximized="0" />
  <metadata
     id="metadata5">
    <rdf:RDF>
      <cc:Work
         rdf:about="">
        <dc:format>image/svg+xml</dc:format>
        <dc:type
           rdf:resource="http://purl.org/dc/dcmitype/StillImage" />
        <dc:title />
      </cc:Work>
    </rdf:RDF>
  </metadata>
  <g
     inkscape:label="Layer 1"
     inkscape:groupmode="layer"
     id="layer1"
     transform="translate(18.343393,33.868916)">
    <rect
       style="fill:#ff0000;fill-opacity:0.694118;stroke-width:0.139388"
       id="rect174-3"
       width="336.25812"
       height="77.474342"
       x="-18.343393"
       y="-33.868916" />
    <path
       style="fill:#000000;stroke-width:0.264583"
       id="path24"
       d="" />
    <path
       style="fill:#000000;stroke-width:0.264583"
       d="M 90.519003,4.8682531 V -14.314034 h 59.266657 59.26667 V 4.8682531 24.050546 H 149.78566 90.519003 Z m 42.068747,0 V -12.991124 H 112.34712 92.106499 V 4.8682531 22.727629 h 20.240621 20.24063 z M 103.25122,19.083669 c -0.68335,-1.27685 0.87996,-4.977046 2.82678,-6.690707 1.05666,-0.930111 1.14072,-1.094118 0.96882,-1.890342 -0.36199,-1.6766968 -1.92221,-4.1132769 -3.00489,-4.6927089 -0.29393,-0.157306 -0.97408,-0.05751 -2.02199,0.296674 -1.8387,0.621467 -4.015772,0.504323 -5.878552,-0.316317 -3.591489,-1.582214 2.51526,-3.76769 6.372222,-2.280486 l 1.27899,0.493165 0.87461,-0.847707 c 1.05292,-1.020532 2.14854,-2.97112501 2.38159,-4.2401121 0.15739,-0.856993 0.0814,-0.999934 -1.01896,-1.9170569 -1.92501,-1.60443 -3.52642,-5.567111 -2.70421,-6.691556 1.05478,-1.4424901 4.59071,2.657235 5.07455,5.883664 0.14698,0.980141 0.27807,1.1517179 1.08289,1.4173339 1.1802,0.389503 3.75911,0.387865 4.94387,-0.0031 0.83178,-0.274513 0.9547,-0.4430239 1.21769,-1.6692929 0.42629,-1.987725 1.27297,-3.506253 2.69836,-4.839545 1.3478,-1.2607001 1.81296,-1.4126201 2.34871,-0.76707 0.27079,0.32627 0.27587,0.6852 0.0251,1.771551 -0.47332,2.050539 -1.34239,3.576828 -2.76485,4.855749 l -1.28084,1.1515839 0.41076,1.41295699 c 0.44944,1.54600811 1.64564,3.37582611 2.62739,4.01909411 0.56834,0.372394 0.72057,0.368846 1.65889,-0.03865 2.36005,-1.02493 7.51542,-0.210037 7.51542,1.187934 0,0.691362 -0.40465,0.975874 -2.09854,1.475489 -1.87314,0.552487 -3.25578,0.52392 -5.04521,-0.104238 -1.40012,-0.491493 -1.47975,-0.492964 -2.10344,-0.03883 -1.02415,0.745718 -2.32588,2.8274861 -2.61464,4.1814049 l -0.26438,1.239602 1.23771,1.112811 c 1.38193,1.242475 2.25214,2.782583 2.72173,4.816977 0.25076,1.086348 0.24568,1.445279 -0.0251,1.77155 -0.53575,0.645552 -1.00091,0.493633 -2.34871,-0.767072 -1.42539,-1.333288 -2.27207,-2.851817 -2.69836,-4.839542 -0.26299,-1.226269 -0.38591,-1.39478 -1.21769,-1.669293 -1.18323,-0.390498 -3.76317,-0.392803 -4.94,-0.0044 -0.79507,0.262398 -0.93439,0.442179 -1.08824,1.404281 -0.35537,2.222368 -1.65833,4.391716 -3.41748,5.689902 -0.97248,0.717658 -1.39695,0.748659 -1.73,0.126351 z m 2.53335,-2.904988 c 0.46518,-0.690943 0.93142,-1.613447 1.03608,-2.05001 0.17471,-0.728768 0.15296,-0.762987 -0.26572,-0.417968 -0.86816,0.715415 -2.34922,3.725971 -1.83241,3.724749 0.11895,-2.65e-4 0.59687,-0.56583 1.06205,-1.256771 z m 13.18445,0.04335 c -0.47107,-1.127435 -1.71185,-2.858268 -1.90822,-2.661894 -0.2048,0.204795 0.94795,2.622449 1.5621,3.276174 0.74822,0.796451 0.85579,0.605541 0.34612,-0.61428 z m -5.69586,-5.945543 c 0.80037,0.128024 1.61612,0.273233 1.81278,0.322686 0.22125,0.05564 0.48167,-0.313536 0.68313,-0.9684204 0.47424,-1.5416135 1.11426,-2.6725535 2.18006,-3.8522645 l 0.94186,-1.042527 -0.94186,-1.042527 c -1.0658,-1.179711 -1.70582,-2.310652 -2.18006,-3.85226511 -0.20146,-0.65488296 -0.46188,-1.02405699 -0.68313,-0.96841999 -1.79406,0.45113299 -3.43191,0.52135899 -4.92341,0.21109803 l -1.65542,-0.34436103 -0.29054,1.08000799 c -0.41447,1.54066111 -0.92356,2.43284711 -2.1433,3.75609911 l -1.06958,1.160368 1.06958,1.160367 c 1.21974,1.323253 1.72883,2.215438 2.1433,3.7560995 l 0.29054,1.0800084 1.65542,-0.34436 c 1.14584,-0.238356 2.10338,-0.272707 3.11063,-0.111589 z M 100.63931,5.0953061 c 0.5457,-0.0902 0.99219,-0.251804 0.99219,-0.359125 0,-0.290705 -1.965222,-0.499345 -3.175002,-0.337079 -1.27729,0.17132 -1.38213,0.527733 -0.19844,0.674627 0.47294,0.05869 0.97896,0.124457 1.12448,0.146145 0.14552,0.0217 0.711072,-0.03437 1.256772,-0.124568 z m 24.87083,0 c 1.29233,-0.213609 1.26342,-0.517872 -0.0661,-0.696204 -1.9689,-0.264086 -4.29604,0.348716 -2.57969,0.679302 0.96861,0.18656 1.59518,0.190563 2.64583,0.01691 z m -19.0958,-10.768365 c -0.3048,-0.629642 -0.86558,-1.432457 -1.24617,-1.784038 l -0.69198,-0.639233 0.18996,0.661458 c 0.28343,0.986909 2.06535,3.617691 2.19234,3.236714 0.0605,-0.181554 -0.13935,-0.845259 -0.44415,-1.474901 z m 12.17301,-0.293603 c 0.93321,-1.626978 1.02592,-2.309728 0.21391,-1.575363 -0.58097,0.525415 -1.3452,1.884338 -1.69585,3.015496 -0.18721,0.603911 -0.16571,0.627263 0.25563,0.277582 0.25302,-0.209989 0.80486,-0.982961 1.22631,-1.717715 z m -8.10434,23.0177749 c -1.04807,-1.04807 -0.9076,-2.533867 0.36893,-3.902377 1.19653,-1.282742 1.55573,-1.236734 2.59403,0.332248 0.97589,1.474663 0.97505,2.751664 -0.002,3.592391 -0.95674,0.82296 -2.12416,0.814181 -2.9606,-0.02225 z m 2.1098,-1.089258 c 0.53364,-0.533638 0.52331,-0.715714 -0.0831,-1.464561 -0.42766,-0.528138 -0.5598,-0.565452 -0.92604,-0.261498 -0.42481,0.352559 -0.58765,1.628608 -0.25081,1.965444 0.29726,0.297264 0.8232,0.197336 1.25992,-0.239385 z m -10.82902,-3.858498 c -0.81074,-0.443439 -1.19063,-1.042998 -1.19063,-1.879108 0,-1.8454508 1.48285,-2.7649579 3.69414,-2.2907209 1.50433,0.3226201 1.65859,0.7209391 0.94273,2.4342209 -0.70447,1.686049 -2.17907,2.428695 -3.44624,1.735608 z m 1.98345,-1.873231 c 0.51826,-0.8522158 0.51823,-0.8566608 -0.007,-1.0507838 -0.84394,-0.312192 -1.84464,0.204251 -1.84464,0.9519828 0,0.62175 0.28551,0.889394 0.99608,0.933749 0.18404,0.01148 0.56882,-0.364239 0.85508,-0.834948 z m 16.34227,1.764577 c -0.82258,-0.446328 -1.39768,-1.417923 -1.65678,-2.7990408 l -0.17746,-0.9459701 1.24962,-0.314661 c 0.6873,-0.173061 1.58717,-0.240522 1.99972,-0.149913 0.80053,0.175826 2.0873,1.4973401 2.0873,2.1436595 0,0.7248744 -0.75017,1.8461444 -1.44781,2.1640064 -0.87857,0.400307 -1.1609,0.386829 -2.05459,-0.09808 z m 1.76371,-1.324515 c 0.5375,-0.537501 0.52398,-0.7272074 -0.0916,-1.2842718 -0.59342,-0.537038 -1.70209,-0.463606 -1.81317,0.120092 -0.0799,0.4196954 0.84072,1.5799548 1.25359,1.5799548 0.12946,0 0.42248,-0.187098 0.65115,-0.415775 z M 101.99054,1.5631891 c -0.81018,-0.326945 -1.41738,-1.30649101 -1.41738,-2.28653711 0,-1.18196499 1.35042,-2.32717089 2.4782,-2.10161389 1.00742,0.2014829 1.69752,0.8254309 2.17385,1.96546793 0.64192,1.53631909 0.50673,2.03265607 -0.64785,2.37857507 -1.18157,0.354007 -1.79305,0.364434 -2.58682,0.04411 z m 1.86173,-1.21864901 c 0.36421,-0.139758 0.36785,-0.243404 0.0314,-0.8939771 -0.45131,-0.87273599 -1.12005,-1.19065699 -1.62428,-0.77218599 -1.04036,0.86342499 0.22782,2.18997712 1.59285,1.66616309 z m 15.57246,1.17507001 c -0.91057,-0.205983 -1.12448,-0.366575 -1.12448,-0.84419798 0,-0.98110413 1.13502,-2.92452712 1.92765,-3.30059012 1.532,-0.7268609 3.20526,0.295053 3.20526,1.95755699 0,1.76159811 -1.72618,2.70350411 -4.00843,2.18723111 z m 2.32101,-1.49773001 c 0.50548,-0.4093131 0.54777,-0.5665761 0.28459,-1.05833309 -0.38483,-0.719055 -0.92652,-0.735311 -1.61342,-0.04842 -0.85431,0.85431899 -0.6812,1.33047409 0.56601,1.55680909 0.093,0.01688 0.43629,-0.185645 0.76282,-0.450056 z M 110.79041,-3.7314669 c -0.74385,-0.823352 -0.95593,-1.279776 -0.95278,-2.050521 0.005,-1.128535 0.13284,-1.373346 1.04701,-1.998948 0.86154,-0.589587 1.63799,-0.565679 2.45315,0.07553 1.20197,0.94547 1.02867,2.92618 -0.38796,4.434112 -0.77236,0.8221399 -1.05543,0.7618179 -2.15942,-0.460171 z m 2.02374,-1.89175 c 0.087,-0.240516 -0.005,-0.657235 -0.20512,-0.926041 -0.28893,-0.388792 -0.46106,-0.428832 -0.84172,-0.195797 -0.66048,0.404336 -0.73586,1.064299 -0.21276,1.862653 0.41902,0.639501 0.45891,0.649089 0.77169,0.185428 0.18141,-0.268917 0.40097,-0.685726 0.48791,-0.926243 z m 39.92021,22.5385589 c 1.8061,-0.559194 4.38594,-1.995085 4.80308,-2.673302 0.18738,-0.304665 0.0618,-0.708914 -0.47002,-1.51248 l -0.72575,-1.096682 -0.84177,0.642048 c -1.54059,1.175065 -3.84322,2.055336 -5.72942,2.190292 -5.04622,0.361056 -9.2656,-3.072344 -9.92428,-8.0756099 l -0.18287,-1.389063 h 9.2945 9.2945 l -0.003,-1.918229 c -0.008,-4.5993291 -2.11113,-8.254381 -5.76045,-10.008897 -1.86291,-0.895649 -5.49218,-1.021992 -7.94614,-0.276624 -4.71609,1.432467 -7.806,5.6058749 -8.17496,11.041584 -0.43039,6.3405419 3.12018,11.6020139 8.92011,13.2184439 1.89986,0.529487 5.50044,0.461078 7.44661,-0.141481 z M 140.09667,1.5210631 c 0.42728,-2.13642911 2.78001,-5.113023 4.58846,-5.805165 2.68589,-1.027962 5.5352,-0.82672 7.39629,0.522396 1.26618,0.917861 2.44074,3.04047489 2.64723,4.783997 l 0.15781,1.332421 h -7.47826 -7.47826 z m 59.33934,15.5206329 c 2.90579,-0.862925 4.87806,-3.076593 5.06688,-5.687038 0.1352,-1.8690788 -0.26821,-3.1867569 -1.35435,-4.4238029 -1.1222,-1.278117 -2.39937,-2.039059 -5.92371,-3.529378 -4.09981,-1.733669 -5.21009,-2.42345898 -5.75748,-3.57700711 -0.85668,-1.80532699 0.14116,-3.77057789 2.20566,-4.34402989 1.261,-0.350266 4.0379,-0.343162 4.9772,0.01273 1.22371,0.463651 1.93546,1.301166 1.93546,2.2774539 v 0.879922 h 1.5875 1.5875 v -1.4160809 c 0,-1.92768 -0.73318,-2.985403 -2.77813,-4.007877 -1.49931,-0.749652 -1.76389,-0.79375 -4.7625,-0.79375 -2.78072,0 -3.34874,0.07851 -4.57403,0.632182 -4.15251,1.876401 -5.21688,6.75624689 -2.11834,9.711997 1.4336,1.367533 2.39704,1.934173 5.36945,3.157993 5.11438,2.105721 6.21771,2.9935541 6.21771,5.0032819 0,1.37717 -0.66574,2.317885 -2.19109,3.096056 -0.90972,0.464106 -1.42363,0.533562 -3.21613,0.434658 -2.40707,-0.13281 -4.17576,-0.867614 -5.95287,-2.473129 l -1.02235,-0.923629 -0.95436,1.114952 -0.95435,1.114951 0.708,0.738992 c 2.75248,2.87297 7.93512,4.179284 11.90433,3.000555 z M 178.92644,6.5934951 c 2.18245,-5.59955398 4.09365,-10.332288 4.2471,-10.517187 0.15345,-0.184899 0.62161,-0.33618 1.04035,-0.33618 0.74647,0 0.76136,-0.02846 0.76136,-1.455208 v -1.455208 h -1.58333 c -2.61466,0 -2.67335,0.09019 -6.463,9.931849 -1.79522,4.662152 -3.34827,8.8601459 -3.45122,9.3288709 -0.18386,0.837113 -0.67328,0.942753 -0.67328,0.145325 0,-0.787093 -6.72254,-17.9145389 -7.29076,-18.5751289 -0.48274,-0.561224 -0.85826,-0.687015 -2.33089,-0.780783 l -1.75544,-0.111779 v 1.48603 c 0,1.388303 0.0414,1.486032 0.62906,1.486032 1.01711,0 0.32419,-1.569386 8.09456,18.3334959 l 1.11477,2.855371 1.84631,-0.07725 1.84632,-0.07725 z"
       id="path88" />
  </g>
</svg>
