<?xml version="1.0" encoding="UTF-8" standalone="no"?>
<svg
   xmlns:dc="http://purl.org/dc/elements/1.1/"
   xmlns:cc="http://creativecommons.org/ns#"
   xmlns:rdf="http://www.w3.org/1999/02/22-rdf-syntax-ns#"
   xmlns:svg="http://www.w3.org/2000/svg"
   xmlns="http://www.w3.org/2000/svg"
   xmlns:sodipodi="http://sodipodi.sourceforge.net/DTD/sodipodi-0.dtd"
   xmlns:inkscape="http://www.inkscape.org/namespaces/inkscape"
   width="336.25812mm"
   height="77.474342mm"
   viewBox="0 0 336.25812 77.474344"
   version="1.1"
   id="svg8"
   sodipodi:docname="openday_logo.svg"
   inkscape:version="1.0.1 (3bc2e813f5, 2020-09-07)">
  <defs
     id="defs2" />
  <sodipodi:namedview
     id="base"
     pagecolor="#ffffff"
     bordercolor="#666666"
     borderopacity="1.0"
     inkscape:pageopacity="0.0"
     inkscape:pageshadow="2"
     inkscape:zoom="0.35"
     inkscape:cx="1567.0198"
     inkscape:cy="513.4082"
     inkscape:document-units="mm"
     inkscape:current-layer="layer1"
     inkscape:document-rotation="0"
     showgrid="false"
     inkscape:window-width="1908"
     inkscape:window-height="1054"
     inkscape:window-x="1924"
     inkscape:window-y="1097"
     inkscape:window-maximized="0" />
  <metadata
     id="metadata5">
    <rdf:RDF>
      <cc:Work
         rdf:about="">
        <dc:format>image/svg+xml</dc:format>
        <dc:type
           rdf:resource="http://purl.org/dc/dcmitype/StillImage" />
      </cc:Work>
    </rdf:RDF>
  </metadata>
  <g
     inkscape:label="Layer 1"
     inkscape:groupmode="layer"
     id="layer1"
     transform="translate(448.62518,-12.327415)">
    <rect
       style="fill:#c8b7b7;fill-opacity:0.693922;stroke-width:0.139388"
       id="rect174"
       width="336.25812"
       height="77.474342"
       x="-448.62518"
       y="12.327415" />
    <path
       style="fill:#000000;stroke-width:0.264583"
       d="m -330.41089,70.960793 c 0,-0.260752 6.15926,-29.433566 6.50595,-30.814921 0.16443,-0.655114 0.19345,-0.661376 3.06556,-0.661376 2.63692,0 2.88725,0.04194 2.76355,0.46302 -0.0748,0.254662 -0.21934,0.931871 -0.32118,1.504908 l -0.18517,1.041887 0.68776,-0.540988 c 1.61103,-1.267238 5.54877,-1.522339 6.98195,-0.452314 1.34768,1.006187 1.79166,2.316689 1.8891,5.57607 0.14445,4.831583 -1.27518,9.249793 -3.81015,11.858089 -1.71375,1.763319 -3.19241,2.36297 -5.84645,2.370955 -1.80734,0.0054 -2.28658,-0.0872 -2.93737,-0.567764 l -0.77767,-0.574259 -1.01072,4.807593 c -0.5559,2.644177 -1.04543,4.852847 -1.08785,4.908155 -0.0992,0.129368 -5.14928,1.353458 -5.58658,1.354135 -0.1819,2.65e-4 -0.33073,-0.122655 -0.33073,-0.27319 z m 12.29559,-13.587656 c 1.69846,-1.112872 3.08388,-4.272117 3.56857,-8.137574 0.42296,-3.373191 -0.0749,-5.28266 -1.46846,-5.632428 -0.80852,-0.202928 -2.1895,0.430879 -2.8163,1.292553 -0.34538,0.474805 -2.84815,11.129249 -2.84815,12.12477 0,0.08433 0.19992,0.353238 0.44426,0.597578 0.52901,0.529015 2.13082,0.403285 3.12008,-0.244899 z m 93.8905,12.069366 c -0.22733,-0.144619 -0.23713,-0.509702 -0.0372,-1.385009 l 0.27151,-1.188625 1.3601,0.07708 c 0.99632,0.05646 1.58453,-0.06295 2.19913,-0.44644 0.94521,-0.589767 2.08849,-2.383086 2.59748,-4.074313 l 0.34041,-1.131099 -3.80901,-9.515736 c -2.09496,-5.233656 -3.87741,-9.730033 -3.961,-9.991955 -0.13711,-0.429614 0.0116,-0.468452 1.51961,-0.396875 l 1.67159,0.07934 2.00462,5.423958 c 1.10254,2.983177 2.46148,6.717069 3.01986,8.297539 0.63743,1.804209 1.08855,2.739596 1.21222,2.513541 0.10834,-0.198022 0.6246,-1.78879 1.14726,-3.535039 0.52266,-1.74625 1.64201,-5.318125 2.48745,-7.9375 l 1.53716,-4.762499 1.50968,-0.07935 c 1.07637,-0.05658 1.50969,0.0159 1.50969,0.252547 0,0.469514 -7.30403,21.403978 -8.08011,23.158846 -1.43087,3.235457 -3.62764,4.849521 -6.59007,4.842028 -0.88093,-0.0021 -1.74061,-0.09243 -1.9104,-0.20044 z m -37.69015,-8.08209 c -3.31507,-1.240742 -4.93835,-3.519691 -5.51152,-7.737704 -0.56378,-4.148886 0.45916,-7.775109 2.87372,-10.187119 2.89298,-2.88993 6.93999,-3.198442 10.32627,-0.787196 l 0.73972,0.526727 -0.13537,-5.417188 -0.13537,-5.417188 h 1.75768 1.75768 v 14.433619 14.433618 l -1.38906,-0.07997 -1.38906,-0.07997 -0.0821,-0.992188 c -0.0452,-0.545703 -0.15299,-0.992187 -0.23961,-0.992187 -0.0866,0 -0.52592,0.280477 -0.97622,0.623281 -2.32964,1.773524 -5.47697,2.466846 -7.59674,1.673471 z m 5.64648,-2.988767 c 0.40014,-0.206918 1.14585,-0.743509 1.65714,-1.192424 l 0.92961,-0.816211 V 51.00162 45.64023 l -0.99219,-0.651584 c -2.97345,-1.952715 -5.95736,-1.555406 -7.92649,1.055413 -1.16334,1.54243 -1.52506,2.928347 -1.49905,5.743561 0.0342,3.701312 1.27281,6.006316 3.70717,6.898851 1.14912,0.421314 2.96894,0.282384 4.12381,-0.314825 z m 14.88987,2.728163 c -0.7276,-0.351028 -1.52673,-0.867822 -1.77584,-1.148434 -1.37128,-1.544677 -1.67375,-4.525091 -0.65647,-6.468495 1.1272,-2.153391 4.51696,-3.768953 9.40882,-4.484235 l 2.20148,-0.3219 -0.18045,-1.222687 c -0.22433,-1.52005 -1.00933,-2.834259 -1.99848,-3.345768 -1.56979,-0.811768 -5.14581,-0.216791 -7.11205,1.183302 l -0.7856,0.559395 -0.31948,-0.60356 c -0.17571,-0.331956 -0.49389,-0.872447 -0.70707,-1.201089 -0.37988,-0.585663 -0.34095,-0.619834 1.95941,-1.719791 2.32717,-1.112785 2.37192,-1.12226 5.30076,-1.12226 2.85062,0 2.99383,0.02772 4.10104,0.79375 0.79544,0.550334 1.39068,1.280581 1.94102,2.38125 l 0.79375,1.5875 0.0811,7.606771 0.081,7.606769 h -1.3216 -1.32161 l -0.17728,-1.182145 -0.17727,-1.182147 -0.83112,0.623384 c -2.8932,2.170036 -6.13548,2.803081 -8.50405,1.66039 z m 6.8211,-2.966254 c 2.31398,-1.50304 2.30703,-1.4893 2.30703,-4.563228 v -2.755262 l -1.12448,0.173879 c -3.81067,0.589243 -6.33752,1.6437 -7.27604,3.036302 -1.04795,1.554965 -0.69354,3.592729 0.78715,4.525954 1.24558,0.78504 3.75936,0.587187 5.30634,-0.417645 z m -110.14261,3.081113 c -3.36602,-1.110017 -4.86342,-3.617878 -4.83885,-8.104131 0.0412,-7.528981 3.75985,-15.996317 7.94857,-18.098974 1.29334,-0.649229 3.15229,-0.965023 4.17287,-0.708872 l 0.70381,0.176644 -1.06889,1.159611 c -4.50497,4.887312 -7.60032,19.74705 -4.6043,22.103714 0.9113,0.71683 1.60336,0.663522 3.01594,-0.23231 2.16979,-1.376037 4.31474,-5.34591 5.72619,-10.598003 0.59533,-2.215279 0.68321,-3.080742 0.70053,-6.898685 0.0178,-3.911084 -0.0353,-4.459163 -0.50936,-5.26401 -0.92027,-1.56237 -1.76886,-1.998321 -4.09547,-2.103977 -3.7707,-0.171238 -6.82563,0.927076 -9.21227,3.312009 -2.05944,2.057967 -2.81461,3.867632 -2.8242,6.767785 l -0.008,2.314935 -0.79375,-7.94e-4 c -2.1704,-0.0021 -3.40421,-2.001416 -2.81379,-4.559262 0.84342,-3.653907 4.46191,-6.857784 9.8396,-8.712166 2.32944,-0.803262 2.74181,-0.862505 6.07107,-0.87221 3.17798,-0.0093 3.72065,0.05693 4.92094,0.600276 3.88279,1.75764 5.61053,6.024661 4.90322,12.10953 -0.97682,8.403346 -5.0341,14.96067 -10.55361,17.056609 -1.63901,0.622385 -5.50011,0.941594 -6.6806,0.552304 z m 40.10139,-0.147095 c -2.13889,-0.797735 -3.16301,-2.115641 -3.55092,-4.569548 -0.48917,-3.094481 0.71893,-8.24636 2.63333,-11.229696 1.77082,-2.759593 4.46426,-4.445955 7.4516,-4.665445 2.62592,-0.192934 4.05147,0.406786 4.75672,2.001128 1.73907,3.931463 -2.04789,9.032383 -7.5493,10.168681 l -1.56088,0.322395 0.10063,1.780778 c 0.0817,1.445553 0.22364,1.912275 0.75416,2.479335 0.60839,0.650309 0.78146,0.691555 2.50562,0.597149 2.3143,-0.126714 3.49918,-0.687956 5.44861,-2.580845 l 1.51104,-1.467218 0.97896,-4.7625 c 0.53843,-2.619375 1.15831,-5.566172 1.37753,-6.548437 l 0.39856,-1.785938 h 2.88675 2.88675 l -0.15943,0.727604 c -0.0877,0.400183 -0.20702,0.88097 -0.26519,1.068417 -0.0582,0.187444 0.2792,0.05267 0.7497,-0.299495 2.20074,-1.64723 4.65188,-1.999001 6.53892,-0.938427 2.13914,1.202264 2.36491,3.60549 0.93113,9.911252 -0.50932,2.239994 -0.92604,4.364122 -0.92604,4.720282 0,0.935262 0.67786,1.479116 1.84357,1.479116 0.81392,0 1.16229,-0.171135 1.77964,-0.87426 0.42219,-0.480843 0.92521,-1.254749 1.11784,-1.719791 0.27921,-0.674063 0.50469,-0.845531 1.11188,-0.845531 0.41891,0 0.76165,0.139946 0.76165,0.310993 0,0.863156 -2.01842,4.270096 -3.1654,5.342971 -2.76346,2.584887 -6.93052,2.275012 -8.43006,-0.626882 -0.76061,-1.471946 -0.68347,-2.774937 0.46996,-7.937499 1.16045,-5.193988 1.02717,-6.680729 -0.59891,-6.680729 -1.01676,0 -1.94562,0.707887 -2.59239,1.975665 -0.43711,0.856805 -3.41028,13.537405 -3.41028,14.544877 0,0.117893 -1.30969,0.214352 -2.91042,0.214352 -1.60073,0 -2.90623,-0.0893 -2.90112,-0.198437 0.005,-0.109141 0.17952,-0.972344 0.38758,-1.918229 0.20806,-0.945886 0.38247,-1.826361 0.38758,-1.95661 0.005,-0.130249 -0.64453,0.381548 -1.44366,1.137325 -2.08758,1.974352 -4.35713,2.967887 -7.09056,3.104031 -1.49774,0.0746 -2.49594,-0.0126 -3.21515,-0.280834 z m 4.11863,-10.349629 c 2.35048,-0.828775 4.45718,-3.765005 4.46245,-6.219594 0.003,-1.326917 -0.33406,-1.838854 -1.21017,-1.838854 -0.64097,0 -2.20056,1.580493 -2.90631,2.945275 -0.92892,1.79633 -2.01023,5.521391 -1.60274,5.521391 0.0545,0 0.62001,-0.183698 1.25677,-0.408218 z"
       id="path28" />
    <path
       style="fill:#000000;stroke-width:0.264583"
       id="path24"
       d="" />
  </g>
</svg>
