<?xml version="1.0" encoding="UTF-8" standalone="no"?>
<svg
   xmlns:dc="http://purl.org/dc/elements/1.1/"
   xmlns:cc="http://creativecommons.org/ns#"
   xmlns:rdf="http://www.w3.org/1999/02/22-rdf-syntax-ns#"
   xmlns:svg="http://www.w3.org/2000/svg"
   xmlns="http://www.w3.org/2000/svg"
   xmlns:sodipodi="http://sodipodi.sourceforge.net/DTD/sodipodi-0.dtd"
   xmlns:inkscape="http://www.inkscape.org/namespaces/inkscape"
   width="336.25812mm"
   height="77.474342mm"
   viewBox="0 0 336.25812 77.474344"
   version="1.1"
   id="svg8"
   sodipodi:docname="VigyanP_log.svg"
   inkscape:version="1.0.1 (3bc2e813f5, 2020-09-07)">
  <defs
     id="defs2" />
  <sodipodi:namedview
     id="base"
     pagecolor="#ffffff"
     bordercolor="#666666"
     borderopacity="1.0"
     inkscape:pageopacity="0.0"
     inkscape:pageshadow="2"
     inkscape:zoom="0.35"
     inkscape:cx="-89.955327"
     inkscape:cy="191.86408"
     inkscape:document-units="mm"
     inkscape:current-layer="layer1"
     inkscape:document-rotation="0"
     showgrid="false"
     inkscape:window-width="1908"
     inkscape:window-height="1054"
     inkscape:window-x="8"
     inkscape:window-y="35"
     inkscape:window-maximized="0" />
  <metadata
     id="metadata5">
    <rdf:RDF>
      <cc:Work
         rdf:about="">
        <dc:format>image/svg+xml</dc:format>
        <dc:type
           rdf:resource="http://purl.org/dc/dcmitype/StillImage" />
        <dc:title></dc:title>
      </cc:Work>
    </rdf:RDF>
  </metadata>
  <g
     inkscape:label="Layer 1"
     inkscape:groupmode="layer"
     id="layer1"
     transform="translate(15.88682,35.618191)">
    <rect
       style="fill:#ecc700;fill-opacity:0.693922;stroke-width:0.139388"
       id="rect174"
       width="336.25812"
       height="77.474342"
       x="-15.88682"
       y="-35.618191" />
    <path
       style="fill:#000000;stroke-width:0.264583"
       id="path24"
       d="" />
    <path
       style="fill:#000000;stroke-width:0.230186"
       d="m 92.393814,25.907434 v -3.798071 h 59.848416 59.84842 v 3.798071 3.798072 H 152.24223 92.393814 Z m 3.913169,1.611303 c 0,-1.02245 0.01001,-1.035838 0.774608,-1.035838 1.028143,0 1.987623,-0.764651 1.987623,-1.584018 0,-1.10405 -0.48062,-1.478931 -2.040736,-1.591787 l -1.412054,-0.102137 v 2.67481 c 0,2.22415 0.0582,2.674808 0.345284,2.674808 0.255761,0 0.345275,-0.268551 0.345275,-1.035838 z m 0,-2.647139 c 0,-0.888196 0.02688,-0.920751 0.759618,-0.920751 0.781517,0 1.312063,0.337741 1.312063,0.835248 0,0.499564 -0.703727,1.006246 -1.397566,1.006246 -0.633008,0 -0.674115,-0.05614 -0.674115,-0.920743 z m 7.781977,2.44217 c 0.0906,-1.395389 0.57466,-1.364868 1.42547,0.08988 0.33303,0.569426 0.78002,1.068925 0.99331,1.110002 0.51534,0.09925 0.48099,-0.129291 -0.18154,-1.207675 l -0.55498,-0.903327 0.56217,-0.668096 c 0.70674,-0.839925 0.7062,-1.200208 -0.003,-1.909254 -0.46403,-0.464038 -0.79312,-0.565009 -1.8415,-0.565009 h -1.27649 v 2.493687 c 0,1.371527 0.0713,2.564898 0.15825,2.651938 0.36486,0.364859 0.65189,-0.07166 0.71814,-1.092146 z m 0.0444,-2.557262 c 0,-0.822337 0.0115,-0.832489 0.8632,-0.762002 0.78978,0.06534 0.8632,0.130177 0.8632,0.762002 0,0.631817 -0.0734,0.696632 -0.8632,0.761999 -0.8517,0.07049 -0.8632,0.06032 -0.8632,-0.761999 z m 7.24092,2.919746 c 0.19703,-0.655723 0.31195,-0.732981 1.0903,-0.732981 0.77677,0 0.90614,0.08637 1.20667,0.805652 0.32021,0.766357 0.58212,0.967287 0.87679,0.672625 0.0732,-0.07317 -0.26098,-1.238482 -0.74254,-2.589595 -1.17483,-3.296222 -1.43909,-3.300303 -2.5661,-0.03961 -0.45946,1.329326 -0.78662,2.500111 -0.72701,2.601747 0.21291,0.363036 0.64533,0.0029 0.86189,-0.717836 z m 0.60292,-1.711272 c 0.01,-0.158253 0.14775,-0.648448 0.3069,-1.089319 l 0.2894,-0.801588 0.16439,0.686496 c 0.0904,0.377568 0.21826,0.867764 0.28408,1.089318 0.0921,0.310119 -0.0164,0.402826 -0.4713,0.402826 -0.32867,0 -0.5832,-0.127714 -0.57347,-0.287733 z m 8.21999,0.227521 0.0659,-2.241654 h 0.68222 c 0.45296,0 0.68222,-0.116022 0.68222,-0.345275 0,-0.279834 -0.37086,-0.345283 -1.95658,-0.345283 -1.58573,0 -1.95658,0.06542 -1.95658,0.345283 0,0.241146 0.24297,0.345275 0.80565,0.345275 h 0.80565 v 2.318744 c 0,2.084234 0.0407,2.310944 0.40282,2.241649 0.34521,-0.06607 0.41226,-0.397766 0.46871,-2.318739 z m 6.26423,1.09605 v -1.266024 h 1.15094 1.15092 v 1.266024 c 0,0.971896 0.0802,1.266024 0.34529,1.266024 0.28689,0 0.34527,-0.447583 0.34527,-2.647141 0,-2.199559 -0.0584,-2.647145 -0.34527,-2.647145 -0.25577,0 -0.34529,0.268558 -0.34529,1.035842 v 1.035837 h -1.15092 -1.15094 v -1.035837 c 0,-0.767284 -0.0895,-1.035842 -0.34527,-1.035842 -0.28691,0 -0.34529,0.447586 -0.34529,2.647145 0,2.199558 0.0584,2.647141 0.34529,2.647141 0.26506,0 0.34527,-0.294128 0.34527,-1.266024 z m 8.46688,-1.45742 c 0.0621,-2.452532 0.0436,-2.570842 -0.40282,-2.570842 -0.44163,0 -0.46791,0.140069 -0.46791,2.493687 0,1.371527 0.0712,2.564898 0.15825,2.651938 0.46855,0.468553 0.65224,-0.195263 0.71248,-2.574783 z m 7.1197,2.481799 c 0.95054,-0.331358 1.35386,-1.241615 0.87437,-1.973398 -0.19719,-0.300954 -0.46712,-0.547191 -0.59985,-0.547191 -0.13272,0 -0.0786,-0.162775 0.1204,-0.361722 0.51916,-0.519158 0.4468,-1.394069 -0.14987,-1.811997 -0.28971,-0.202926 -0.98853,-0.358333 -1.6113,-0.358333 h -1.09971 v 2.647145 2.647141 h 0.88639 c 0.48752,0 1.19832,-0.108739 1.57957,-0.241645 z m -1.7754,-1.369659 c 0,-0.834961 0.055,-0.920744 0.59059,-0.920744 0.83622,0 1.48108,0.400897 1.48108,0.920744 0,0.519848 -0.64486,0.920746 -1.48108,0.920746 -0.53558,0 -0.59059,-0.08578 -0.59059,-0.920746 z m 0,-2.301865 c 0,-0.689332 0.0349,-0.715458 0.8632,-0.646902 0.74823,0.06194 0.86319,0.148081 0.86319,0.646902 0,0.498829 -0.11496,0.584983 -0.86319,0.646912 -0.82834,0.06855 -0.8632,0.04243 -0.8632,-0.646912 z m 7.44863,3.04839 c 0.19285,-0.672386 0.30046,-0.746525 1.0837,-0.746525 0.78972,0 0.89402,0.074 1.13549,0.805652 0.15152,0.459107 0.4191,0.805652 0.62209,0.805652 0.45614,0 0.3393,-0.611206 -0.62698,-3.280154 -0.99681,-2.753237 -1.25355,-2.699984 -2.35452,0.48837 -0.47476,1.374882 -0.8632,2.573077 -0.8632,2.662661 0,0.08958 0.1776,0.128676 0.39466,0.08688 0.21707,-0.0418 0.49101,-0.411941 0.60876,-0.822531 z m 0.62041,-2.070095 c 0.12722,-0.348157 0.29178,-0.788384 0.36568,-0.978295 0.0921,-0.236761 0.22917,-0.09207 0.43603,0.460376 0.42289,1.129397 0.41638,1.150931 -0.34817,1.150931 -0.64974,0 -0.673,-0.03246 -0.45354,-0.633012 z m 12.18734,1.899036 c 0,-1.00241 0.0228,-1.035838 0.7057,-1.035838 0.74169,0 1.59495,-0.355099 1.88037,-0.782564 0.093,-0.139302 0.1707,-0.584047 0.17264,-0.988329 0.005,-1.000573 -0.6896,-1.451717 -2.23446,-1.451717 h -1.21481 v 2.647145 c 0,2.199558 0.0584,2.647141 0.34528,2.647141 0.25577,0 0.34528,-0.268551 0.34528,-1.035838 z m 0,-2.647139 V 23.92306 l 0.83988,0.07143 c 0.99008,0.08422 1.4809,0.659396 1.09221,1.279918 -0.14706,0.234779 -0.60269,0.43263 -1.09221,0.474269 l -0.83988,0.07144 z m 7.82633,2.532046 c 0,-1.566935 0.57329,-1.565614 1.4386,0.0033 0.34812,0.631187 0.78835,1.147614 0.97829,1.147614 0.46809,0 0.43615,-0.19137 -0.21019,-1.259192 l -0.55318,-0.913911 0.55436,-0.513761 c 1.31477,-1.218482 0.33065,-2.60742 -1.84747,-2.60742 h -1.05097 v 2.647145 c 0,2.199558 0.0584,2.647142 0.34528,2.647142 0.26088,0 0.34528,-0.281339 0.34528,-1.150932 z m 0,-2.647138 c 0,-0.822337 0.0115,-0.832489 0.8632,-0.762002 0.78978,0.06534 0.8632,0.130177 0.8632,0.762002 0,0.631817 -0.0734,0.696632 -0.8632,0.761999 -0.85169,0.07049 -0.8632,0.06032 -0.8632,-0.761999 z m 10.19558,3.334097 c 1.20608,-0.948701 1.33937,-3.08774 0.26467,-4.247357 -0.7398,-0.798264 -2.19312,-0.814489 -2.9744,-0.03323 -1.5258,1.525802 -0.51402,4.744537 1.49141,4.744537 0.34567,0 0.89391,-0.208788 1.21832,-0.463973 z m -2.13906,-0.686959 c -0.31687,-0.31687 -0.46038,-0.767286 -0.46038,-1.444991 0,-1.270702 0.50988,-2.007806 1.38887,-2.007806 0.96995,0 1.4674,0.847932 1.31108,2.234832 -0.18014,1.598081 -1.26789,2.189648 -2.23957,1.217965 z m 8.88526,0.974767 c 0.56001,-0.37393 0.78256,-1.268729 0.78256,-3.146404 0,-1.81826 -0.0358,-1.971718 -0.46038,-1.971718 -0.42816,0 -0.46036,0.153458 -0.46036,2.193996 0,1.816997 -0.0646,2.218771 -0.37578,2.338192 -0.20667,0.07931 -0.58143,0.01576 -0.83278,-0.141217 -0.69026,-0.431075 -1.03662,0.06513 -0.37093,0.531397 0.56163,0.393376 1.2963,0.477104 1.71767,0.195754 z m 8.3787,-0.169115 c 0,-0.260877 -0.28133,-0.345279 -1.15093,-0.345279 h -1.15092 v -0.920746 -0.920744 h 0.92074 c 0.66498,0 0.92074,-0.09591 0.92074,-0.34528 0,-0.249367 -0.25576,-0.345279 -0.92074,-0.345279 -0.8696,0 -0.92074,-0.03837 -0.92074,-0.690562 0,-0.675212 0.0256,-0.690559 1.15092,-0.690559 0.8696,0 1.15093,-0.08439 1.15093,-0.345275 0,-0.271499 -0.3197,-0.345283 -1.4962,-0.345283 h -1.49621 v 2.647145 2.647141 h 1.49621 c 1.1765,0 1.4962,-0.07377 1.4962,-0.345279 z m 7.24004,0.07814 c 0.32247,-0.146924 0.58629,-0.405883 0.58629,-0.575466 0,-0.358568 -0.59657,-0.416435 -0.80565,-0.07814 -0.27406,0.443454 -1.23043,0.232946 -1.70969,-0.376322 -1.1964,-1.520983 0.1114,-4.05617 1.60971,-3.120456 0.30807,0.192391 0.46985,0.176627 0.67068,-0.06534 0.20712,-0.249567 0.16463,-0.372463 -0.19542,-0.565158 -1.8783,-1.005236 -3.86566,0.994935 -3.24001,3.260886 0.41062,1.487096 1.7296,2.137171 3.08409,1.520022 z m 6.52193,-2.110932 0.0659,-2.22566 h 0.68222 c 0.45297,0 0.68223,-0.116022 0.68223,-0.345275 0,-0.278137 -0.35807,-0.345283 -1.8415,-0.345283 -1.48342,0 -1.84148,0.06716 -1.84148,0.345283 0,0.230184 0.23018,0.345275 0.69056,0.345275 h 0.69056 v 2.148407 c 0,1.181624 0.0713,2.219619 0.15825,2.306659 0.45102,0.451018 0.65258,-0.17899 0.71328,-2.229406 z m -70.35155,-9.004123 c -5.50891,-1.044933 -7.10006,-4.501485 -3.01243,-6.544094 0.79113,-0.395343 1.57726,-0.7187991 1.74695,-0.7187991 0.59691,0 0.29818,-0.361996 -0.66978,-0.81161 -2.36075,-1.09656 -1.72267,-3.4683844 1.33075,-4.9465149 l 1.09287,-0.5290527 -0.83329,-0.4275069 c -2.11551,-1.085319 -3.40343,-3.18890629 -3.41724,-5.581393 -0.0154,-2.660854 1.55392,-4.9022486 4.14621,-5.9220654 1.17915,-0.46389 1.80293,-0.522946 6.41621,-0.607518 l 5.11006,-0.09368 0.58704,0.587038 c 0.37226,0.3722535 0.58704,0.8435299 0.58704,1.2880626 0,0.8185001 -0.1163,0.8364742 -2.30186,0.355741 -2.25525,-0.4960712 -2.47156,-0.4583482 -1.59607,0.2783289 1.02009,0.8583459 1.82243,2.664769 1.81895,4.0952063 -0.003,1.3166941 -0.6457,2.91407491 -1.55459,3.8650665 -1.4321,1.4984536 -4.18819,2.695245 -6.20688,2.695245 -0.89555,0 -2.55101,0.7825258 -2.74946,1.299651 -0.21019,0.5477663 0.27781,0.7156319 2.5555,0.8790605 7.03223,0.5045884 10.0415,1.8389351 10.02936,4.4471552 -0.0129,2.768899 -2.45672,5.157279 -6.32389,6.180411 -1.80395,0.477262 -4.85073,0.572552 -6.75545,0.211268 z m 6.20086,-1.400927 c 1.20605,-0.425514 2.0001,-1.117874 2.42457,-2.114044 0.45236,-1.061664 0.39406,-1.535011 -0.27094,-2.200018 -0.68775,-0.687748 -1.90052,-1.006367 -5.03253,-1.322149 -2.05083,-0.2067631 -2.32655,-0.1891371 -2.72826,0.174399 -1.96367,1.777096 -1.09441,4.767939 1.62391,5.587353 1.02816,0.309935 2.91778,0.250376 3.98325,-0.125541 z M 142.06592,2.4132288 c 0.28306,-0.1982719 0.72045,-0.7638557 0.97196,-1.2568559 0.58411,-1.14493969 0.64139,-4.6659492 0.10167,-6.2499146 -0.79135,-2.3224781 -2.90969,-3.143362 -4.24759,-1.645996 -1.89969,2.1261289 -1.22131,8.3869098 1.00623,9.2864239 0.76895,0.31051 1.60739,0.2588148 2.16773,-0.1336574 z m 12.82347,14.6426202 c -1.30733,-0.540746 -2.10746,-2.278405 -1.71694,-3.728695 0.30396,-1.128828 0.49905,-1.219986 1.41536,-0.661318 1.44265,0.879547 3.31965,0.537213 4.58778,-0.836753 1.5531,-1.682753 1.71079,-0.910711 -1.98379,-9.7128531 -1.82468,-4.3471744 -3.57806,-8.2454399 -3.8964,-8.6628114 -0.37524,-0.4919648 -0.88431,-0.8311063 -1.44744,-0.9642765 -0.52874,-0.1250531 -0.89834,-0.3598126 -0.9446,-0.5999834 -0.0699,-0.3630056 0.33042,-0.3945606 5.00499,-0.3945606 4.92752,0 5.08098,0.01392 5.08098,0.460367 0,0.3343304 -0.15346,0.4603753 -0.56049,0.4603753 -1.16689,0 -1.74138,0.3954041 -1.74138,1.1985575 0,0.7319008 3.82327,10.3132009 4.11337,10.3083028 0.24857,-0.00435 3.94315,-9.5214618 3.94315,-10.1575848 0,-0.7740869 -0.44341,-1.1297496 -1.60227,-1.2851829 -0.70998,-0.09523 -0.92978,-0.2263815 -0.92978,-0.5547785 0,-0.4031644 0.24578,-0.4300564 3.93004,-0.4300564 3.57796,0 3.92328,0.03515 3.85454,0.3920811 -0.0471,0.2443903 -0.44229,0.4828299 -1.04926,0.6330084 -0.53555,0.132509 -1.23,0.4998905 -1.54321,0.8163948 -0.35504,0.3587773 -2.07643,4.2158834 -4.57149,10.243288 -4.53934,10.9659077 -4.48932,10.8582977 -5.64019,12.1337187 -1.25945,1.395742 -2.92119,1.914294 -4.30297,1.34276 z m 20.83185,-8.2823541 c -2.64485,-0.807443 -4.26446,-2.9555488 -3.80515,-5.0467996 0.39265,-1.7877357 3.52735,-3.53679999 8.29379,-4.62766949 l 1.6113,-0.36877351 0.0755,-1.4886052 c 0.10486,-2.0668127 -0.30501,-3.7810685 -1.04281,-4.3614162 -1.42819,-1.1234249 -3.22837,-0.1853089 -3.9707,2.0692313 -0.35958,1.0920875 -0.55175,1.3343724 -1.4133,1.7818718 -1.79585,0.932774 -2.85292,0.5546219 -2.80872,-1.0047835 0.0456,-1.6072899 2.07863,-3.3780693 4.86826,-4.2402175 3.51208,-1.085406 7.1799,0.07456 8.34468,2.639122 0.37173,0.8184566 0.42623,1.5720029 0.43064,5.95500361 0.006,5.92141319 0.12072,6.37623799 1.60869,6.37623799 1.81438,0 1.28298,0.8422078 -1.01361,1.6064633 -2.60237,0.866012 -3.59466,0.613443 -4.37323,-1.1131326 l -0.42287,-0.9377504 -0.76614,1.0033828 c -1.27555,1.6705392 -3.56013,2.3855712 -5.61635,1.7578352 z m 4.54828,-2.7759296 c 1.25258,-0.7637078 1.6649,-1.6960033 1.66589,-3.7667223 l 8.7e-4,-1.80889389 -0.63301,0.1486822 c -1.22131,0.2868722 -3.48793,1.53451479 -4.09199,2.25240869 -0.71541,0.8502202 -0.65258,1.7699617 0.18236,2.6694757 0.95867,1.0328061 1.77514,1.17619 2.87589,0.5050496 z m -73.42863,2.4432426 c -0.17476,-0.174756 -2.26741,-4.9655064 -4.65032,-10.6461049 -2.382896,-5.6806072 -4.572861,-10.806897 -4.866563,-11.391768 -0.621873,-1.238386 -1.753684,-2.274298 -2.484837,-2.274298 -0.570186,0 -1.064213,-0.395378 -1.064213,-0.851691 0,-0.237708 1.206997,-0.299243 5.869747,-0.299243 5.605706,0 5.869746,0.01957 5.869746,0.435746 0,0.492321 -0.4283,0.715188 -1.37444,0.715188 -0.95036,0 -1.69439,0.697414 -1.66972,1.565112 0.019,0.669705 6.6967,16.603492 6.96297,16.6145758 0.2048,0.0087 5.28864,-15.5407138 5.28864,-16.1756538 0,-0.956316 -0.91811,-1.826964 -2.09169,-1.983572 -0.82806,-0.110498 -1.02942,-0.231288 -1.08938,-0.653479 l -0.0735,-0.517917 h 4.86593 4.86593 l -0.0736,0.51482 c -0.0564,0.394377 -0.27088,0.546705 -0.91694,0.651104 -1.11016,0.179393 -1.90677,0.723444 -2.6057,1.779601 -0.31398,0.474469 -2.40209,5.728831 -4.64023,11.6763612 -2.23815,5.9475304 -4.18221,10.8897907 -4.32015,10.9828107 -0.41499,0.279852 -1.46256,0.197524 -1.80167,-0.141592 z m 14.41557,-0.01166 c -0.18955,-0.49394 0.0913,-0.8215539 0.70439,-0.8215539 0.295,0 0.78091,-0.1978804 1.0798,-0.4397307 l 0.54342,-0.4397216 0.0681,-6.23110539 c 0.0453,-4.15196481 -0.015,-6.38624281 -0.18074,-6.69604811 -0.19835,-0.3706179 -0.48068,-0.4649428 -1.39167,-0.4649428 -0.99403,0 -1.14283,-0.060639 -1.14283,-0.4660651 0,-0.2841839 0.22251,-0.5506721 0.57016,-0.6828505 0.96204,-0.3657634 5.84852,-1.2123818 6.20595,-1.0752268 0.28401,0.108984 0.34731,1.3304834 0.40564,7.8282161 0.0639,7.1191181 0.10127,7.7345962 0.49605,8.1704898 0.23481,0.2592763 0.75273,0.5030577 1.15093,0.5417463 0.5471,0.053157 0.724,0.1828207 0.724,0.5307057 0,0.442741 -0.17426,0.462759 -4.55153,0.522798 -3.83683,0.05263 -4.57196,0.0092 -4.68167,-0.276711 z m 69.05589,1.04e-4 c -0.19292,-0.502761 0.0944,-0.8216579 0.74032,-0.8216579 0.31479,0 0.8266,-0.2542561 1.13735,-0.5650013 l 0.565,-0.5650096 V 0.46715401 c 0,-3.70295161 -0.0915,-6.18137641 -0.23828,-6.45567721 -0.18714,-0.3496858 -0.48701,-0.4452374 -1.39713,-0.4452374 -1.06546,0 -1.15291,-0.041151 -1.08529,-0.5105654 0.066,-0.4577392 0.38309,-0.5765718 3.06598,-1.1488198 3.79784,-0.8100702 4.02826,-0.7675622 4.02826,0.7430193 0,0.6305986 0.0613,1.1465492 0.13605,1.1465492 0.0748,0 0.55275,-0.3566806 1.06204,-0.7926265 0.50931,-0.4359371 1.40624,-1.0186425 1.99318,-1.2949002 2.05073,-0.96519 5.0506,-0.512958 6.40802,0.966016 1.17989,1.2855483 1.30491,1.9958993 1.43908,8.17632741 0.13954,6.42832489 0.19624,6.65468899 1.70352,6.80111779 0.5471,0.053157 0.72401,0.1828207 0.72401,0.5307057 0,0.444628 -0.15346,0.460367 -4.48864,0.460367 -4.33517,0 -4.48863,-0.01575 -4.48863,-0.460367 0,-0.31667 0.17963,-0.4848917 0.57546,-0.5389097 1.35814,-0.1853438 1.38112,-0.2901608 1.38112,-6.2986956 0,-4.4295281 -0.067,-5.6297038 -0.34396,-6.1653772 -0.99488,-1.9238725 -3.31189,-1.8479828 -5.46823,0.1790885 l -0.63302,0.5950593 0.013,4.96348751 c 0.0153,5.83999039 0.15362,6.51637719 1.36813,6.68988029 0.61383,0.087687 0.80565,0.2247019 0.80565,0.5754669 0,0.442279 -0.1743,0.462829 -4.43639,0.522902 -3.73613,0.05264 -4.45694,0.009 -4.56658,-0.276711 z M 123.9411,-12.286724 c -0.65595,-0.363267 -0.89381,-0.866306 -0.91632,-1.937862 -0.0331,-1.57229 1.30543,-2.797748 3.05574,-2.797748 2.39152,0 3.03663,3.583545 0.84878,4.714921 -0.82976,0.429091 -2.2332,0.4388 -2.9882,0.02071 z m -31.54726,-9.684612 v -1.496209 h 59.84841 59.84841 v 1.496209 1.496209 H 152.24225 92.393831 Z"
       id="path140" />
  </g>
</svg>
